<?xml version="1.0" encoding="utf-8"?>
<svg version="1.1" id="Layer_1" xmlns="http://www.w3.org/2000/svg" xmlns:xlink="http://www.w3.org/1999/xlink" x="0px" y="0px"
	 viewBox="0 0 281 266" style="enable-background:new 0 0 281 266;" xml:space="preserve">
<style type="text/css">
	.st0{clip-path:url(#SVGID_2_);fill:#ffffff;stroke:#ffffff;stroke-miterlimit:10;}
	.st1{clip-path:url(#SVGID_4_);fill:#ffffff;stroke:#ffffff;stroke-width:3.6;}
	.st2{clip-path:url(#SVGID_6_);fill:#ffffff;stroke:#ffffff;stroke-miterlimit:10;}
	.st3{clip-path:url(#SVGID_8_);fill:#ffffff;stroke:#ffffff;stroke-width:3.6;}
	.st4{clip-path:url(#SVGID_10_);fill:#ffffff;stroke:#ffffff;stroke-miterlimit:10;}
	.st5{clip-path:url(#SVGID_12_);fill:#ffffff;stroke:#ffffff;stroke-width:3.6;}
	.st6{clip-path:url(#SVGID_14_);fill:#ffffff;stroke:#ffffff;stroke-miterlimit:10;}
	.st7{clip-path:url(#SVGID_16_);fill:#ffffff;stroke:#ffffff;stroke-width:3.6;}
	.st8{clip-path:url(#SVGID_18_);fill:#ffffff;stroke:#ffffff;stroke-miterlimit:10;}
	.st9{clip-path:url(#SVGID_20_);fill:#ffffff;stroke:#ffffff;stroke-width:3.6;}
	.st10{clip-path:url(#SVGID_22_);fill:#ffffff;stroke:#ffffff;stroke-miterlimit:10;}
	.st11{clip-path:url(#SVGID_24_);fill:#ffffff;stroke:#ffffff;stroke-width:3.6;}
	.st12{clip-path:url(#SVGID_26_);fill:#ffffff;stroke:#ffffff;stroke-miterlimit:10;}
	.st13{clip-path:url(#SVGID_28_);fill:#ffffff;stroke:#ffffff;stroke-width:3.6;}
	.st14{clip-path:url(#SVGID_30_);fill:#ffffff;stroke:#ffffff;stroke-miterlimit:10;}
	.st15{clip-path:url(#SVGID_32_);fill:#ffffff;stroke:#ffffff;stroke-width:3.6;}
	.st16{clip-path:url(#SVGID_34_);fill:#ffffff;stroke:#ffffff;stroke-miterlimit:10;}
	.st17{clip-path:url(#SVGID_36_);fill:#ffffff;stroke:#ffffff;stroke-width:3.6;}
	.st18{clip-path:url(#SVGID_38_);fill:#ffffff;stroke:#ffffff;stroke-miterlimit:10;}
	.st19{clip-path:url(#SVGID_40_);fill:#ffffff;stroke:#ffffff;stroke-width:3.6;}
	.st20{clip-path:url(#SVGID_42_);fill:#ffffff;stroke:#ffffff;stroke-miterlimit:10;}
	.st21{clip-path:url(#SVGID_44_);fill:#ffffff;stroke:#ffffff;stroke-width:3.6;}
	.st22{clip-path:url(#SVGID_46_);fill:#ffffff;stroke:#ffffff;stroke-miterlimit:10;}
	.st23{clip-path:url(#SVGID_48_);fill:#ffffff;stroke:#ffffff;stroke-width:3.6;}
	.st24{clip-path:url(#SVGID_50_);fill:#ffffff;stroke:#ffffff;stroke-miterlimit:10;}
	.st25{clip-path:url(#SVGID_52_);fill:#ffffff;stroke:#ffffff;stroke-width:3.6;}
	.st26{clip-path:url(#SVGID_54_);fill:#ffffff;}
	.st27{clip-path:url(#SVGID_56_);fill:#ffffff;stroke:#ffffff;stroke-width:3.6;}
	.st28{clip-path:url(#SVGID_58_);fill:#ffffff;stroke:#ffffff;stroke-miterlimit:10;}
	.st29{clip-path:url(#SVGID_60_);fill:#ffffff;stroke:#ffffff;}
	.st30{clip-path:url(#SVGID_62_);fill:#ffffff;stroke:#ffffff;stroke-miterlimit:10;}
	.st31{clip-path:url(#SVGID_64_);fill:#ffffff;stroke:#ffffff;}
	.st32{clip-path:url(#SVGID_66_);fill:#ffffff;stroke:#ffffff;stroke-miterlimit:10;}
	.st33{clip-path:url(#SVGID_68_);fill:#ffffff;stroke:#ffffff;}
	.st34{clip-path:url(#SVGID_70_);fill:#ffffff;stroke:#ffffff;stroke-miterlimit:10;}
	.st35{clip-path:url(#SVGID_72_);fill:#ffffff;stroke:#ffffff;}
	.st36{clip-path:url(#SVGID_74_);fill:#ffffff;stroke:#ffffff;stroke-miterlimit:10;}
	.st37{clip-path:url(#SVGID_76_);fill:#ffffff;stroke:#ffffff;}
	.st38{clip-path:url(#SVGID_78_);fill:#ffffff;stroke:#ffffff;stroke-miterlimit:10;}
	.st39{clip-path:url(#SVGID_80_);fill:#ffffff;stroke:#ffffff;}
	.st40{clip-path:url(#SVGID_82_);fill:#ffffff;stroke:#ffffff;stroke-miterlimit:10;}
	.st41{clip-path:url(#SVGID_84_);fill:#ffffff;stroke:#ffffff;}
	.st42{clip-path:url(#SVGID_86_);fill:#ffffff;stroke:#ffffff;stroke-miterlimit:10;}
	.st43{clip-path:url(#SVGID_88_);fill:#ffffff;stroke:#ffffff;}
	.st44{clip-path:url(#SVGID_90_);fill:#ffffff;stroke:#ffffff;stroke-miterlimit:10;}
	.st45{clip-path:url(#SVGID_92_);fill:#ffffff;stroke:#ffffff;}
	.st46{clip-path:url(#SVGID_94_);fill:#ffffff;stroke:#ffffff;stroke-miterlimit:10;}
	.st47{clip-path:url(#SVGID_96_);fill:#ffffff;stroke:#ffffff;}
	.st48{clip-path:url(#SVGID_98_);fill:#ffffff;stroke:#ffffff;stroke-miterlimit:10;}
	.st49{clip-path:url(#SVGID_100_);fill:#ffffff;stroke:#ffffff;}
	.st50{clip-path:url(#SVGID_102_);fill:#ffffff;stroke:#ffffff;stroke-miterlimit:10;}
	.st51{clip-path:url(#SVGID_104_);fill:#ffffff;stroke:#ffffff;}
	.st52{clip-path:url(#SVGID_106_);fill:#ffffff;stroke:#ffffff;stroke-miterlimit:10;}
	.st53{clip-path:url(#SVGID_108_);fill:#ffffff;stroke:#ffffff;}
	.st54{clip-path:url(#SVGID_110_);fill:#ffffff;stroke:#ffffff;stroke-miterlimit:10;}
	.st55{clip-path:url(#SVGID_112_);fill:#ffffff;stroke:#ffffff;}
	.st56{clip-path:url(#SVGID_114_);fill:#ffffff;stroke:#ffffff;stroke-miterlimit:10;}
	.st57{clip-path:url(#SVGID_116_);fill:#ffffff;stroke:#ffffff;}
	.st58{clip-path:url(#SVGID_118_);fill:#ffffff;stroke:#ffffff;stroke-miterlimit:10;}
	.st59{clip-path:url(#SVGID_120_);fill:#ffffff;stroke:#ffffff;}
	.st60{clip-path:url(#SVGID_122_);fill:#ffffff;stroke:#ffffff;stroke-miterlimit:10;}
	.st61{clip-path:url(#SVGID_124_);fill:#ffffff;stroke:#ffffff;}
	.st62{clip-path:url(#SVGID_126_);fill:#ffffff;stroke:#ffffff;stroke-miterlimit:10;}
	.st63{clip-path:url(#SVGID_128_);fill:#ffffff;stroke:#ffffff;}
	.st64{clip-path:url(#SVGID_130_);fill:#ffffff;stroke:#ffffff;stroke-miterlimit:10;}
	.st65{clip-path:url(#SVGID_132_);fill:#ffffff;stroke:#ffffff;}
	.st66{clip-path:url(#SVGID_134_);fill:#ffffff;stroke:#ffffff;stroke-miterlimit:10;}
	.st67{clip-path:url(#SVGID_136_);fill:#ffffff;stroke:#ffffff;}
	.st68{clip-path:url(#SVGID_138_);fill:#ffffff;stroke:#ffffff;stroke-miterlimit:10;}
	.st69{clip-path:url(#SVGID_140_);fill:#ffffff;stroke:#ffffff;}
	.st70{clip-path:url(#SVGID_142_);fill:#ffffff;stroke:#ffffff;stroke-miterlimit:10;}
	.st71{clip-path:url(#SVGID_144_);fill:#ffffff;stroke:#ffffff;}
	.st72{clip-path:url(#SVGID_146_);fill:none;stroke:#ffffff;stroke-width:5.04;stroke-linecap:round;}
	.st73{clip-path:url(#SVGID_148_);fill:#ffffff;stroke:#ffffff;stroke-miterlimit:10;}
	.st74{clip-path:url(#SVGID_150_);fill:#ffffff;stroke:#ffffff;stroke-width:3.6;}
</style>
<g>
	<g>
		<g>
			<defs>
				<rect id="SVGID_1_" x="-145" y="-178" width="612" height="792"/>
			</defs>
			<clipPath id="SVGID_2_">
				<use xlink:href="#SVGID_1_"  style="overflow:visible;"/>
			</clipPath>
			<path class="st0" d="M96.9,45.8c-1.4,4.2-3,10.9-5,20.2c-1.8,8.5-12.3,57.7-13.2,63.4c-0.3,1.8-12.1,58.1-12.6,58.1
				c-0.4,0,10.4-54.7,9.3-55.2c-0.4-0.2,2.8-14.4,3-14.4C78.9,115.4,89,67.4,90.7,60c2-8.4,3-13,3.2-13.8 M95.3,41.5
				c0.6-1.6,1-2.4,1.2-2.4c0.4,0,1.1,0.6,2,1.8"/>
		</g>
	</g>
	<g>
		<g>
			<defs>
				<rect id="SVGID_3_" x="-145" y="-178" width="612" height="792"/>
			</defs>
			<clipPath id="SVGID_4_">
				<use xlink:href="#SVGID_3_"  style="overflow:visible;"/>
			</clipPath>
			<path class="st1" d="M96.9,45.8c-1.4,4.2-3,10.9-5,20.2c-1.8,8.5-12.3,57.7-13.2,63.4c-0.3,1.8-12.1,58.1-12.6,58.1
				c-0.4,0,10.4-54.7,9.3-55.2c-0.4-0.2,2.8-14.4,3-14.4C78.9,115.4,89,67.4,90.7,60c2-8.4,3-13,3.2-13.8 M95.3,41.5
				c0.6-1.6,1-2.4,1.2-2.4c0.4,0,1.1,0.6,2,1.8"/>
		</g>
	</g>
	<g>
		<g>
			<defs>
				<rect id="SVGID_5_" x="-145" y="-178" width="612" height="792"/>
			</defs>
			<clipPath id="SVGID_6_">
				<use xlink:href="#SVGID_5_"  style="overflow:visible;"/>
			</clipPath>
			<path class="st2" d="M163.5,115.2c0.1,3-1.1,5-3.4,6c-0.3,1-0.6,1.7-0.8,2.1c-0.4,0.6-1,0.9-1.8,1c-0.5,0.1-1,0-1.6-0.1
				c-1-0.2-2.3-0.5-3.8-0.8c-0.4-0.1-0.7-0.5-0.8-1.1c0.1-0.7,0.5-1.1,1.4-1.2c1.2-0.1,3-0.4,5.4-0.9c0.9-0.3,1.5-1,1.9-2.2
				c0.2-0.6,0.3-1.3,0.3-2.2c0-1.5-0.5-4.3-1.6-8.2c-1.1-3.8-1.6-6.4-1.5-7.6c0.1-3.1,2.2-5.2,6-6.4c0.4-0.1,0.6,0.1,0.6,0.6
				c0,0.3-0.1,0.5-0.4,0.7c-1.9,1.2-2.9,2.6-2.9,4.3c0,0.7,0.1,1.5,0.3,2.5s0.7,3.4,1.6,7.2C163.1,111.7,163.5,113.7,163.5,115.2
				 M167.7,94.1c0,1.1-0.2,2.9-0.6,5.3c-0.2,0.8-0.3,1.4-0.5,1.6c-0.1,0.1-0.4,0.3-0.9,0.6c-0.6,0.3-1,0.5-1.2,0.5
				c-0.3,0-0.4-0.2-0.4-0.7c0-0.3,0-0.6,0.1-1.1c0.4-2.4,0.6-4.1,0.5-5.1c-0.1-0.9,0.1-1.5,0.6-1.8c0.8-0.6,1.4-0.9,1.6-0.9
				C167.5,92.5,167.7,93,167.7,94.1"/>
		</g>
	</g>
	<g>
		<g>
			<defs>
				<rect id="SVGID_7_" x="-145" y="-178" width="612" height="792"/>
			</defs>
			<clipPath id="SVGID_8_">
				<use xlink:href="#SVGID_7_"  style="overflow:visible;"/>
			</clipPath>
			<path class="st3" d="M163.5,115.2c0.1,3-1.1,5-3.4,6c-0.3,1-0.6,1.7-0.8,2.1c-0.4,0.6-1,0.9-1.8,1c-0.5,0.1-1,0-1.6-0.1
				c-1-0.2-2.3-0.5-3.8-0.8c-0.4-0.1-0.7-0.5-0.8-1.1c0.1-0.7,0.5-1.1,1.4-1.2c1.2-0.1,3-0.4,5.4-0.9c0.9-0.3,1.5-1,1.9-2.2
				c0.2-0.6,0.3-1.3,0.3-2.2c0-1.5-0.5-4.3-1.6-8.2c-1.1-3.8-1.6-6.4-1.5-7.6c0.1-3.1,2.2-5.2,6-6.4c0.4-0.1,0.6,0.1,0.6,0.6
				c0,0.3-0.1,0.5-0.4,0.7c-1.9,1.2-2.9,2.6-2.9,4.3c0,0.7,0.1,1.5,0.3,2.5s0.7,3.4,1.6,7.2C163.1,111.7,163.5,113.7,163.5,115.2z
				 M167.7,94.1c0,1.1-0.2,2.9-0.6,5.3c-0.2,0.8-0.3,1.4-0.5,1.6c-0.1,0.1-0.4,0.3-0.9,0.6c-0.6,0.3-1,0.5-1.2,0.5
				c-0.3,0-0.4-0.2-0.4-0.7c0-0.3,0-0.6,0.1-1.1c0.4-2.4,0.6-4.1,0.5-5.1c-0.1-0.9,0.1-1.5,0.6-1.8c0.8-0.6,1.4-0.9,1.6-0.9
				C167.5,92.5,167.7,93,167.7,94.1z"/>
		</g>
	</g>
	<g>
		<g>
			<defs>
				<rect id="SVGID_9_" x="-145" y="-178" width="612" height="792"/>
			</defs>
			<clipPath id="SVGID_10_">
				<use xlink:href="#SVGID_9_"  style="overflow:visible;"/>
			</clipPath>
			<path class="st4" d="M195.2,70.7c0.2,0.2,1.7-5.6,1.7-5.3c0,0.5-4.3,6-2,4.8c0.1-0.1,2.3-5.9,2.2-6c-0.8-0.6,1.7,0.3,1.3,0.3
				c-1.1,0-1.9,3.7-3.2,6.7c-5,11.7-8.6,28.7-10.7,46.7c0.4-0.6-0.2-9.2,0.6-10.5c0.4-0.8,0.8-1.2,1-1.2c0.5,0-1.2-5.2-1.6-4.4
				c-1.7,3.3,0.5,17.4,0,21.2c-0.2,0.9-0.5,1.4-0.8,1.4c-0.2,0-0.3-0.1-0.6-0.3c-0.9-0.8-1.4-1.3-1.5-1.5c-0.3-0.5-0.5-1.1-0.5-1.9
				c0-0.4,0-0.9,0.1-1.5c0.8-5.7,1.4-9.9,1.9-12.7c-1.7,3.5-3.6,7-5.7,10.4c-2.1,3.5-3.7,5.7-4.7,6.6c-0.7,0.7-1.3,1.1-1.7,1.1
				c-0.3,0-0.8-0.4-1.4-1.1c-1.1-1-1.7-2.1-1.7-3.4c0-0.2,0-0.5,0.1-0.7c0.4-3.7,1.5-7.9,3.5-12.8c1.9-4.8,4.2-8.9,6.7-12.2
				c0.8-1.1,1.5-1.6,2.2-1.6s1.9,1.2,3.6,3.5c0.2,0.2,0.2,0.4,0.2,0.6c0,0.4-0.2,0.6-0.5,0.6c-0.1,0-0.3,0-0.4-0.1
				c-1.2-0.7-2.2-0.7-3,0.1c-1.6,1.7-3.4,4.7-5.4,9c-2.3,4.9-3.6,9.4-4,13.3c-0.1,0.9,0.1,1.4,0.5,1.4c0.6,0,1.3-0.6,2.1-1.7
				c1.9-2.7,4-6.1,6.2-10.1c2.3-4.2,3.7-7.4,4.4-9.5c0.4-1.2,0.6-2.3,0.9-3.4c1.8-9.1,3.8-16.8,6-23.2c1.7-5,3.2-8.4,4.6-10.1
				c0.5-0.7,0.9-1,1.4-1s1.1,0.4,1.9,1.2C199.5,64.3,194.3,69.7,195.2,70.7"/>
		</g>
	</g>
	<g>
		<g>
			<defs>
				<rect id="SVGID_11_" x="-145" y="-178" width="612" height="792"/>
			</defs>
			<clipPath id="SVGID_12_">
				<use xlink:href="#SVGID_11_"  style="overflow:visible;"/>
			</clipPath>
			<path class="st5" d="M195.2,70.7c0.2,0.2,1.7-5.6,1.7-5.3c0,0.5-4.3,6-2,4.8c0.1-0.1,2.3-5.9,2.2-6c-0.8-0.6,1.7,0.3,1.3,0.3
				c-1.1,0-1.9,3.7-3.2,6.7c-5,11.7-8.6,28.7-10.7,46.7c0.4-0.6-0.2-9.2,0.6-10.5c0.4-0.8,0.8-1.2,1-1.2c0.5,0-1.2-5.2-1.6-4.4
				c-1.7,3.3,0.5,17.4,0,21.2c-0.2,0.9-0.5,1.4-0.8,1.4c-0.2,0-0.3-0.1-0.6-0.3c-0.9-0.8-1.4-1.3-1.5-1.5c-0.3-0.5-0.5-1.1-0.5-1.9
				c0-0.4,0-0.9,0.1-1.5c0.8-5.7,1.4-9.9,1.9-12.7c-1.7,3.5-3.6,7-5.7,10.4c-2.1,3.5-3.7,5.7-4.7,6.6c-0.7,0.7-1.3,1.1-1.7,1.1
				c-0.3,0-0.8-0.4-1.4-1.1c-1.1-1-1.7-2.1-1.7-3.4c0-0.2,0-0.5,0.1-0.7c0.4-3.7,1.5-7.9,3.5-12.8c1.9-4.8,4.2-8.9,6.7-12.2
				c0.8-1.1,1.5-1.6,2.2-1.6s1.9,1.2,3.6,3.5c0.2,0.2,0.2,0.4,0.2,0.6c0,0.4-0.2,0.6-0.5,0.6c-0.1,0-0.3,0-0.4-0.1
				c-1.2-0.7-2.2-0.7-3,0.1c-1.6,1.7-3.4,4.7-5.4,9c-2.3,4.9-3.6,9.4-4,13.3c-0.1,0.9,0.1,1.4,0.5,1.4c0.6,0,1.3-0.6,2.1-1.7
				c1.9-2.7,4-6.1,6.2-10.1c2.3-4.2,3.7-7.4,4.4-9.5c0.4-1.2,0.6-2.3,0.9-3.4c1.8-9.1,3.8-16.8,6-23.2c1.7-5,3.2-8.4,4.6-10.1
				c0.5-0.7,0.9-1,1.4-1s1.1,0.4,1.9,1.2C199.5,64.3,194.3,69.7,195.2,70.7z"/>
		</g>
	</g>
	<g>
		<g>
			<defs>
				<rect id="SVGID_13_" x="-145" y="-178" width="612" height="792"/>
			</defs>
			<clipPath id="SVGID_14_">
				<use xlink:href="#SVGID_13_"  style="overflow:visible;"/>
			</clipPath>
			<path class="st6" d="M210.7,99c-1.6,6.3-2.7,11.5-3.3,15.8c0.3-0.3-1.6-2.9-1.1-3.6c0.4-0.7,0.7-1.1,0.8-1.2
				c0.2-0.4,0.5-0.6,0.8-0.6s0.4,0.2,0.4,0.5c0,0.2-0.1,0.5-0.2,0.8c-1.6,3.4,0.9,9.8-0.9,12.9c-0.5,0.9-0.5,0.9-0.9,0.9
				c-0.3,0-0.8-0.4-1.6-1.2c-0.5-0.4-0.7-0.8-0.8-1.1c-0.1-0.3-0.1-0.8,0-1.6c0.7-6.3,1.6-11.5,2.7-15.6c-1.5,3.5-3.5,7.3-6.1,11.5
				c-2.3,3.7-3.9,6-4.9,7c-0.7,0.7-1.3,1.1-1.7,1.1c-0.3,0-0.8-0.4-1.4-1.1c-0.9-0.8-1.4-1.9-1.4-3.3c0-0.3,0-0.6,0.1-0.9
				c0.3-3.7,1.4-7.9,3.3-12.7c1.9-4.8,4.1-8.9,6.6-12.3c0.8-1.1,3.5-0.7,4.1-0.7s3.6,0.5,1.6,2.6c-0.8,0.9,0.2,0.4,0.2,0.6
				c0,0.4-0.2,0.6-0.5,0.6c-0.1,0-0.3,0-0.4-0.1c-1.2-0.7-2.2-0.7-3,0.1c-1.6,1.7-3.4,4.7-5.4,9c-2.3,4.9-3.7,9.4-4.1,13.3
				c0,0.2,0,0.3,0,0.5c0,0.6,0.2,0.9,0.5,0.9c0.6,0,1.3-0.6,2.1-1.8c1.9-2.7,4-6.1,6.2-10.1c2.3-4.2,3.7-7.4,4.4-9.5
				c0.5-1.6,0.8-2.7,0.9-3.3c0.2-1.1-2.6-3.2,0.7-1.7c0.2,0.1,0.9,0.5,1.8,1.5c0.4,0.4,0.6,0.8,0.7,1.1
				C211,97.8,210.9,98.3,210.7,99"/>
		</g>
	</g>
	<g>
		<g>
			<defs>
				<rect id="SVGID_15_" x="-145" y="-178" width="612" height="792"/>
			</defs>
			<clipPath id="SVGID_16_">
				<use xlink:href="#SVGID_15_"  style="overflow:visible;"/>
			</clipPath>
			<path class="st7" d="M210.7,99c-1.6,6.3-2.7,11.5-3.3,15.8c0.3-0.3-1.6-2.9-1.1-3.6c0.4-0.7,0.7-1.1,0.8-1.2
				c0.2-0.4,0.5-0.6,0.8-0.6s0.4,0.2,0.4,0.5c0,0.2-0.1,0.5-0.2,0.8c-1.6,3.4,0.9,9.8-0.9,12.9c-0.5,0.9-0.5,0.9-0.9,0.9
				c-0.3,0-0.8-0.4-1.6-1.2c-0.5-0.4-0.7-0.8-0.8-1.1c-0.1-0.3-0.1-0.8,0-1.6c0.7-6.3,1.6-11.5,2.7-15.6c-1.5,3.5-3.5,7.3-6.1,11.5
				c-2.3,3.7-3.9,6-4.9,7c-0.7,0.7-1.3,1.1-1.7,1.1c-0.3,0-0.8-0.4-1.4-1.1c-0.9-0.8-1.4-1.9-1.4-3.3c0-0.3,0-0.6,0.1-0.9
				c0.3-3.7,1.4-7.9,3.3-12.7c1.9-4.8,4.1-8.9,6.6-12.3c0.8-1.1,3.5-0.7,4.1-0.7s3.6,0.5,1.6,2.6c-0.8,0.9,0.2,0.4,0.2,0.6
				c0,0.4-0.2,0.6-0.5,0.6c-0.1,0-0.3,0-0.4-0.1c-1.2-0.7-2.2-0.7-3,0.1c-1.6,1.7-3.4,4.7-5.4,9c-2.3,4.9-3.7,9.4-4.1,13.3
				c0,0.2,0,0.3,0,0.5c0,0.6,0.2,0.9,0.5,0.9c0.6,0,1.3-0.6,2.1-1.8c1.9-2.7,4-6.1,6.2-10.1c2.3-4.2,3.7-7.4,4.4-9.5
				c0.5-1.6,0.8-2.7,0.9-3.3c0.2-1.1-2.6-3.2,0.7-1.7c0.2,0.1,0.9,0.5,1.8,1.5c0.4,0.4,0.6,0.8,0.7,1.1
				C211,97.8,210.9,98.3,210.7,99z"/>
		</g>
	</g>
	<g>
		<g>
			<defs>
				<rect id="SVGID_17_" x="-145" y="-178" width="612" height="792"/>
			</defs>
			<clipPath id="SVGID_18_">
				<use xlink:href="#SVGID_17_"  style="overflow:visible;"/>
			</clipPath>
			<path class="st8" d="M234.4,98c-2.4,15.8-4.7,27.5-6.8,35.3c-4.1,15.2-8.8,22.8-14,22.8c-3.1,0-32.6-20.2-36.1-25
				c-0.3-0.4-0.5-0.9-0.5-1.3c0-0.7,0.2-1.1,0.7-1.1c0.2,0,0.5,0.1,0.7,0.4c2.8,3.4,31.5,22.9,33.7,22.9c4.1,0,7.8-4.8,11.1-14.4
				c2.6-7.5,4.9-17.6,6.8-30.3c0.1-0.9,0.3-2.3,0.6-4.2c-1.8,4.2-3.9,8.3-6.1,12.4c-2.2,3.9-3.9,6.6-5.1,8.1
				c-0.7,0.8-1.2,1.2-1.7,1.2c-0.3,0-0.7-0.8-1.1-1.3c-0.4-0.7,0.9-2.1,0.3-1.6c-1.7,1.4,1.2,0.9,0,0c0,0-0.1,0.3-0.1-0.9
				c0-0.6-0.6,1.7-0.3,1.6c0.8-1.6,0.9-7,1.6-12.3c0.6-4.2,0.9-8.1,1.2-11.9c0-0.9,0-1.3-0.2-1.3c-0.1,0,1.3-0.5,0.6,0.4
				c-1.2,1.5,0.2,5.3-0.4,5.2c-0.2-0.1,0.4-2.7,0.4-3c0-0.2,0.7-1.2-0.2-1.6c-0.5-0.2-0.1,1.1-0.2-1.5c-0.1-2.1,0-3.6,0.4-3.6
				c0.2,0,0.8-0.5,1.2-0.2c0.9-0.2,1.2,0.3,1.3,0.3c0.6,0,0.9,0.6,0.9,1.9c0,2.1-0.4,6.3-1.3,12.6c-0.9,6.2-1.6,10.3-2.1,12.1
				c1.7-1.9,4-5.8,6.7-11.4c2.7-5.5,4.4-9.7,5-12.5c0-1.6,0.8-2.1,1.3-2.1c0.4,0,1.3,0.1,2.2,1.2C235.3,95.3,234.7,96.4,234.4,98"/>
		</g>
	</g>
	<g>
		<g>
			<defs>
				<rect id="SVGID_19_" x="-145" y="-178" width="612" height="792"/>
			</defs>
			<clipPath id="SVGID_20_">
				<use xlink:href="#SVGID_19_"  style="overflow:visible;"/>
			</clipPath>
			<path class="st9" d="M234.4,98c-2.4,15.8-4.7,27.5-6.8,35.3c-4.1,15.2-8.8,22.8-14,22.8c-3.1,0-32.6-20.2-36.1-25
				c-0.3-0.4-0.5-0.9-0.5-1.3c0-0.7,0.2-1.1,0.7-1.1c0.2,0,0.5,0.1,0.7,0.4c2.8,3.4,31.5,22.9,33.7,22.9c4.1,0,7.8-4.8,11.1-14.4
				c2.6-7.5,4.9-17.6,6.8-30.3c0.1-0.9,0.3-2.3,0.6-4.2c-1.8,4.2-3.9,8.3-6.1,12.4c-2.2,3.9-3.9,6.6-5.1,8.1
				c-0.7,0.8-1.2,1.2-1.7,1.2c-0.3,0-0.7-0.8-1.1-1.3c-0.4-0.7,0.9-2.1,0.3-1.6c-1.7,1.4,1.2,0.9,0,0c0,0-0.1,0.3-0.1-0.9
				c0-0.6-0.6,1.7-0.3,1.6c0.8-1.6,0.9-7,1.6-12.3c0.6-4.2,0.9-8.1,1.2-11.9c0-0.9,0-1.3-0.2-1.3c-0.1,0,1.3-0.5,0.6,0.4
				c-1.2,1.5,0.2,5.3-0.4,5.2c-0.2-0.1,0.4-2.7,0.4-3c0-0.2,0.7-1.2-0.2-1.6c-0.5-0.2-0.1,1.1-0.2-1.5c-0.1-2.1,0-3.6,0.4-3.6
				c0.2,0,0.8-0.5,1.2-0.2c0.9-0.2,1.2,0.3,1.3,0.3c0.6,0,0.9,0.6,0.9,1.9c0,2.1-0.4,6.3-1.3,12.6c-0.9,6.2-1.6,10.3-2.1,12.1
				c1.7-1.9,4-5.8,6.7-11.4c2.7-5.5,4.4-9.7,5-12.5c0-1.6,0.8-2.1,1.3-2.1c0.4,0,1.3,0.1,2.2,1.2C235.3,95.3,234.7,96.4,234.4,98z"
				/>
		</g>
	</g>
	<g>
		<g>
			<defs>
				<rect id="SVGID_21_" x="-145" y="-178" width="612" height="792"/>
			</defs>
			<clipPath id="SVGID_22_">
				<use xlink:href="#SVGID_21_"  style="overflow:visible;"/>
			</clipPath>
			<path class="st10" d="M61.8,150.7c-0.8,4.8-1.8,8.5-2.9,11.1c-0.5,1.2-1,1.8-1.5,1.8c-0.2,0-0.4-0.1-0.7-0.2c-1.3-0.6-2-1.2-2-2
				c0-0.4,0.2-0.6,0.5-0.8c1.5-3.2,2.4-7.1,2.7-11.6c-0.9-1.2-1.8-1.8-2.7-1.8c-1.8,0-3.9,2.2-6.3,6.8c-2.2,4.2-4.2,9.2-5.8,15
				c-1.7,6-2.5,11-2.5,15.1c0,2.3,0.5,4.1,1.5,5.2c0.7,0.8,1.5,1.2,2.4,1.2c0.5,0,1.1-0.1,1.8-0.4c1.6-0.7,3.6-2.2,5.7-4.3
				c2.1-2,3.4-4.3,5.1-6.1c2-2.1,0.4,0.7,0.5-0.3c0.1-0.5,1.2-1.8,1.5-1.8c0.2,0,0.4,0.2,0.5,0.7c0.6,2.2,0.4,2.9,0.4,3.8
				c0,0.8-0.4,1.2-0.9,1.9c-0.3,0.4-1,1.3-2.2,2.5c-3.6,3.9-6.8,6.3-9.4,7.3c-0.8,0.3-1.5,0.4-2.2,0.4c-1.4,0-2.5-0.7-3.2-2
				c-3.4-1.8-5-4.5-5-8.2c0-5.9,1.1-12.3,3.3-19.1c1.9-5.9,4.2-11.1,7-15.6c2.7-4.3,4.8-6.7,6.5-6.7c5.7,0.1,5.7,1.6,6.7,2.2
				c1.4,0.9-3.5,0.1-2.2,1.6c0.1-1,0.3-1.6,0.7-1.6s1.5,0.2,2.5,1.2c0.6,0.7,0.6,1.7,0.6,2.4C62.1,148.8,62,149.6,61.8,150.7"/>
		</g>
	</g>
	<g>
		<g>
			<defs>
				<rect id="SVGID_23_" x="-145" y="-178" width="612" height="792"/>
			</defs>
			<clipPath id="SVGID_24_">
				<use xlink:href="#SVGID_23_"  style="overflow:visible;"/>
			</clipPath>
			<path class="st11" d="M61.8,150.7c-0.8,4.8-1.8,8.5-2.9,11.1c-0.5,1.2-1,1.8-1.5,1.8c-0.2,0-0.4-0.1-0.7-0.2c-1.3-0.6-2-1.2-2-2
				c0-0.4,0.2-0.6,0.5-0.8c1.5-3.2,2.4-7.1,2.7-11.6c-0.9-1.2-1.8-1.8-2.7-1.8c-1.8,0-3.9,2.2-6.3,6.8c-2.2,4.2-4.2,9.2-5.8,15
				c-1.7,6-2.5,11-2.5,15.1c0,2.3,0.5,4.1,1.5,5.2c0.7,0.8,1.5,1.2,2.4,1.2c0.5,0,1.1-0.1,1.8-0.4c1.6-0.7,3.6-2.2,5.7-4.3
				c2.1-2,3.4-4.3,5.1-6.1c2-2.1,0.4,0.7,0.5-0.3c0.1-0.5,1.2-1.8,1.5-1.8c0.2,0,0.4,0.2,0.5,0.7c0.6,2.2,0.4,2.9,0.4,3.8
				c0,0.8-0.4,1.2-0.9,1.9c-0.3,0.4-1,1.3-2.2,2.5c-3.6,3.9-6.8,6.3-9.4,7.3c-0.8,0.3-1.5,0.4-2.2,0.4c-1.4,0-2.5-0.7-3.2-2
				c-3.4-1.8-5-4.5-5-8.2c0-5.9,1.1-12.3,3.3-19.1c1.9-5.9,4.2-11.1,7-15.6c2.7-4.3,4.8-6.7,6.5-6.7c5.7,0.1,5.7,1.6,6.7,2.2
				c1.4,0.9-3.5,0.1-2.2,1.6c0.1-1,0.3-1.6,0.7-1.6s1.5,0.2,2.5,1.2c0.6,0.7,0.6,1.7,0.6,2.4C62.1,148.8,62,149.6,61.8,150.7z"/>
		</g>
	</g>
	<g>
		<g>
			<defs>
				<rect id="SVGID_25_" x="-145" y="-178" width="612" height="792"/>
			</defs>
			<clipPath id="SVGID_26_">
				<use xlink:href="#SVGID_25_"  style="overflow:visible;"/>
			</clipPath>
			<path class="st12" d="M106.2,1.9c-1.9,2.5-4.1,7.9-6.4,16.1c-3.2,11.1-33.9,155.2-35.9,170.8c-0.1,1.2,0,2.1,0.4,2.6
				c0.9,1,1.4,1.5,1.7,1.5c0.3,0,0.7-0.8,1.1-2.3c1.4-5.3,3.4-10.5,5.9-15.6c1.9-3.9,3.6-6.6,4.9-8.1c0.7-0.8,1.2-1.2,1.4-1.2
				c0.3,0,0.5,0.7,0.4,2.2c-0.2,5.2-1.8,13.2-4.7,23.8c-0.2,0.7-0.2,1.3,0.2,1.6c0.8,0.9,1.5,1.3,2,1.3c0.4,0,0.7-0.4,0.9-1.2
				c0.5-1.7,0.9-2.7,1-3.1c1.7-4,1.4-13,2.4-15.1c0.2-0.5-0.8,4.1-0.8,3.8s-0.2,1.1-0.1,0.7c4.2-20.9-1.2,1.9,0,0
				c-1.2,2-0.2,3.9-0.7,4.9c1.5-6.2,2.3-11.5,2.6-15.9c0-0.5,0.1-0.9,0.1-1.3c0-1.4-0.2-2.4-0.7-2.9c-0.1-0.1-0.2-0.3-1.1-0.9
				c-0.3-0.4-1.6-0.6-1.8-0.6c-0.4,0-0.9-0.1-1.7,0.9c-3.6,4.6-6.8,10.7-9.7,18.4c2.2-17.1,34.8-163.9,38.2-172.4
				C109.4,1.6,106.2,1.9,106.2,1.9"/>
		</g>
	</g>
	<g>
		<g>
			<defs>
				<rect id="SVGID_27_" x="-145" y="-178" width="612" height="792"/>
			</defs>
			<clipPath id="SVGID_28_">
				<use xlink:href="#SVGID_27_"  style="overflow:visible;"/>
			</clipPath>
			<path class="st13" d="M106.2,1.9c-1.9,2.5-4.1,7.9-6.4,16.1c-3.2,11.1-33.9,155.2-35.9,170.8c-0.1,1.2,0,2.1,0.4,2.6
				c0.9,1,1.4,1.5,1.7,1.5c0.3,0,0.7-0.8,1.1-2.3c1.4-5.3,3.4-10.5,5.9-15.6c1.9-3.9,3.6-6.6,4.9-8.1c0.7-0.8,1.2-1.2,1.4-1.2
				c0.3,0,0.5,0.7,0.4,2.2c-0.2,5.2-1.8,13.2-4.7,23.8c-0.2,0.7-0.2,1.3,0.2,1.6c0.8,0.9,1.5,1.3,2,1.3c0.4,0,0.7-0.4,0.9-1.2
				c0.5-1.7,0.9-2.7,1-3.1c1.7-4,1.4-13,2.4-15.1c0.2-0.5-0.8,4.1-0.8,3.8s-0.2,1.1-0.1,0.7c4.2-20.9-1.2,1.9,0,0
				c-1.2,2-0.2,3.9-0.7,4.9c1.5-6.2,2.3-11.5,2.6-15.9c0-0.5,0.1-0.9,0.1-1.3c0-1.4-0.2-2.4-0.7-2.9c-0.1-0.1-0.2-0.3-1.1-0.9
				c-0.3-0.4-1.6-0.6-1.8-0.6c-0.4,0-0.9-0.1-1.7,0.9c-3.6,4.6-6.8,10.7-9.7,18.4c2.2-17.1,34.8-163.9,38.2-172.4
				C109.4,1.6,106.2,1.9,106.2,1.9z"/>
		</g>
	</g>
	<g>
		<g>
			<defs>
				<rect id="SVGID_29_" x="-145" y="-178" width="612" height="792"/>
			</defs>
			<clipPath id="SVGID_30_">
				<use xlink:href="#SVGID_29_"  style="overflow:visible;"/>
			</clipPath>
			<path class="st14" d="M107.4,166.5c-2.3,6.1-4,13.2-5.2,21.3c0.5-1.2-0.3-4.7,0.4-6.6c0.1-0.3,0.2-0.5,0.4-0.5
				c0.3,0,0.1-0.9,0.1-0.4c0,0.1,0.3,1.4,0.2,1.6c-1.1,3.6-0.4,8.3-0.8,10.3c-0.2,1.2-0.5,1.8-0.8,1.8s-1-0.5-2-1.4
				c-0.5-0.5-0.7-1.5-0.5-2.9c0.7-5.4,1.6-10,2.6-14c-3.3,7.7-6.1,13.4-8.4,17.1c-0.5,0.8-1,1.2-1.6,1.2c-0.5,0-1.1-0.3-1.7-0.8
				c-1.2-0.3-1.8-1.2-1.8-2.7c0-0.3,0-0.6,0.1-0.9c0.4-7.1,1.3-12.9,2.7-17.6c-0.3,0.4,0.2,0.5-0.4,1.3c-0.2,0.3,0,2.6-0.1,1.5
				c0-0.6-0.1-1.1,0.1-1.5c0.9-1.9-0.3,1.3,0.1-0.8c0.3-1.8,1.4-6.6,2-7.6c0.3-0.5,0.6-0.8,1-0.8c0.5,0,1.1,0.4,2,1.2
				c0.2,0.2,0.4,0.4,0.4,0.7l-0.6,1.2c-0.9,1.9-1.8,5.2-2.8,9.9c-1.1,5.1-1.6,9.3-1.6,12.5c0,1.1,0.2,1.6,0.5,1.6s0.7-0.5,1.4-1.4
				c1.3-2,3.3-5.8,5.8-11.4c2.2-4.9,3.6-8.1,4.1-9.6c0.8-2.5,1.4-4,1.9-4.4c0.3-0.3,0.6-0.4,0.8-0.4s0.7,0.3,1.4,0.8
				c0.7,0.5,1,0.9,1,1.1c0,0.1-0.1,0.2-0.2,0.3C107.5,166.2,107.4,166.3,107.4,166.5"/>
		</g>
	</g>
	<g>
		<g>
			<defs>
				<rect id="SVGID_31_" x="-145" y="-178" width="612" height="792"/>
			</defs>
			<clipPath id="SVGID_32_">
				<use xlink:href="#SVGID_31_"  style="overflow:visible;"/>
			</clipPath>
			<path class="st15" d="M107.4,166.5c-2.3,6.1-4,13.2-5.2,21.3c0.5-1.2-0.3-4.7,0.4-6.6c0.1-0.3,0.2-0.5,0.4-0.5
				c0.3,0,0.1-0.9,0.1-0.4c0,0.1,0.3,1.4,0.2,1.6c-1.1,3.6-0.4,8.3-0.8,10.3c-0.2,1.2-0.5,1.8-0.8,1.8s-1-0.5-2-1.4
				c-0.5-0.5-0.7-1.5-0.5-2.9c0.7-5.4,1.6-10,2.6-14c-3.3,7.7-6.1,13.4-8.4,17.1c-0.5,0.8-1,1.2-1.6,1.2c-0.5,0-1.1-0.3-1.7-0.8
				c-1.2-0.3-1.8-1.2-1.8-2.7c0-0.3,0-0.6,0.1-0.9c0.4-7.1,1.3-12.9,2.7-17.6c-0.3,0.4,0.2,0.5-0.4,1.3c-0.2,0.3,0,2.6-0.1,1.5
				c0-0.6-0.1-1.1,0.1-1.5c0.9-1.9-0.3,1.3,0.1-0.8c0.3-1.8,1.4-6.6,2-7.6c0.3-0.5,0.6-0.8,1-0.8c0.5,0,1.1,0.4,2,1.2
				c0.2,0.2,0.4,0.4,0.4,0.7l-0.6,1.2c-0.9,1.9-1.8,5.2-2.8,9.9c-1.1,5.1-1.6,9.3-1.6,12.5c0,1.1,0.2,1.6,0.5,1.6s0.7-0.5,1.4-1.4
				c1.3-2,3.3-5.8,5.8-11.4c2.2-4.9,3.6-8.1,4.1-9.6c0.8-2.5,1.4-4,1.9-4.4c0.3-0.3,0.6-0.4,0.8-0.4s0.7,0.3,1.4,0.8
				c0.7,0.5,1,0.9,1,1.1c0,0.1-0.1,0.2-0.2,0.3C107.5,166.2,107.4,166.3,107.4,166.5z"/>
		</g>
	</g>
	<g>
		<g>
			<defs>
				<rect id="SVGID_33_" x="-145" y="-178" width="612" height="792"/>
			</defs>
			<clipPath id="SVGID_34_">
				<use xlink:href="#SVGID_33_"  style="overflow:visible;"/>
			</clipPath>
			<path class="st16" d="M134.1,97.5c-2.3,6.1-4,13.2-5.2,21.3c0.5-1.2-0.3-4.7,0.4-6.6c0.1-0.3,0.2-0.5,0.4-0.5
				c0.3,0,0.1-0.9,0.1-0.4c0,0.1,0.3,1.4,0.2,1.6c-1.1,3.6-0.4,8.3-0.8,10.3c-0.2,1.2-0.5,1.8-0.8,1.8s-1-0.5-2-1.4
				c-0.5-0.5-0.7-1.5-0.5-2.9c0.7-5.4,1.6-10,2.6-14c-3.3,7.7-6.1,13.4-8.4,17.1c-0.5,0.8-1,1.2-1.6,1.2c-0.5,0-1.1-0.3-1.7-0.8
				c-1.2-0.3-1.8-1.2-1.8-2.7c0-0.3,0-0.6,0.1-0.9c0.4-7.1,1.3-12.9,2.7-17.6c-0.3,0.4,0.2,0.5-0.4,1.3c-0.2,0.3,0,2.6-0.1,1.5
				c0-0.6-0.1-1.1,0.1-1.5c0.9-1.9-0.3,1.3,0.1-0.8c0.3-1.8,1.4-6.6,2-7.6c0.3-0.5,0.6-0.8,1-0.8c0.5,0,1.1,0.4,2,1.2
				c0.2,0.2,0.4,0.4,0.4,0.7l-0.6,1.2c-0.9,1.9-1.8,5.2-2.8,9.9c-1.1,5.1-1.6,9.3-1.6,12.5c0,1.1,0.2,1.6,0.5,1.6s0.7-0.5,1.4-1.4
				c1.3-2,3.3-5.8,5.8-11.4c2.2-4.9,3.6-8.1,4.1-9.6c0.8-2.5,1.4-4,1.9-4.4c0.3-0.3,0.6-0.4,0.8-0.4s0.7,0.3,1.4,0.8s1,0.9,1,1.1
				c0,0.1-0.1,0.2-0.2,0.3C134.2,97.2,134.1,97.3,134.1,97.5"/>
		</g>
	</g>
	<g>
		<g>
			<defs>
				<rect id="SVGID_35_" x="-145" y="-178" width="612" height="792"/>
			</defs>
			<clipPath id="SVGID_36_">
				<use xlink:href="#SVGID_35_"  style="overflow:visible;"/>
			</clipPath>
			<path class="st17" d="M134.1,97.5c-2.3,6.1-4,13.2-5.2,21.3c0.5-1.2-0.3-4.7,0.4-6.6c0.1-0.3,0.2-0.5,0.4-0.5
				c0.3,0,0.1-0.9,0.1-0.4c0,0.1,0.3,1.4,0.2,1.6c-1.1,3.6-0.4,8.3-0.8,10.3c-0.2,1.2-0.5,1.8-0.8,1.8s-1-0.5-2-1.4
				c-0.5-0.5-0.7-1.5-0.5-2.9c0.7-5.4,1.6-10,2.6-14c-3.3,7.7-6.1,13.4-8.4,17.1c-0.5,0.8-1,1.2-1.6,1.2c-0.5,0-1.1-0.3-1.7-0.8
				c-1.2-0.3-1.8-1.2-1.8-2.7c0-0.3,0-0.6,0.1-0.9c0.4-7.1,1.3-12.9,2.7-17.6c-0.3,0.4,0.2,0.5-0.4,1.3c-0.2,0.3,0,2.6-0.1,1.5
				c0-0.6-0.1-1.1,0.1-1.5c0.9-1.9-0.3,1.3,0.1-0.8c0.3-1.8,1.4-6.6,2-7.6c0.3-0.5,0.6-0.8,1-0.8c0.5,0,1.1,0.4,2,1.2
				c0.2,0.2,0.4,0.4,0.4,0.7l-0.6,1.2c-0.9,1.9-1.8,5.2-2.8,9.9c-1.1,5.1-1.6,9.3-1.6,12.5c0,1.1,0.2,1.6,0.5,1.6s0.7-0.5,1.4-1.4
				c1.3-2,3.3-5.8,5.8-11.4c2.2-4.9,3.6-8.1,4.1-9.6c0.8-2.5,1.4-4,1.9-4.4c0.3-0.3,0.6-0.4,0.8-0.4s0.7,0.3,1.4,0.8s1,0.9,1,1.1
				c0,0.1-0.1,0.2-0.2,0.3C134.2,97.2,134.1,97.3,134.1,97.5z"/>
		</g>
	</g>
	<g>
		<g>
			<defs>
				<rect id="SVGID_37_" x="-145" y="-178" width="612" height="792"/>
			</defs>
			<clipPath id="SVGID_38_">
				<use xlink:href="#SVGID_37_"  style="overflow:visible;"/>
			</clipPath>
			<path class="st18" d="M125.9,165.5c0,3.2-0.3,6.3-0.9,9.3c-0.2,0.9-0.4,1.3-0.8,1.3c-0.2,0-0.8-0.5-1.6-1.5
				c-0.4-0.5-0.5-1.2-0.3-2.1c0.5-2.2,0.7-4,0.7-5.3c0-0.5-0.1-0.7-0.2-0.7c-0.2,0-0.5,0.4-1,1.3c-3.6,6.6-6.3,14-8,22.3
				c-0.6,2.6-1.1,3.9-1.4,3.9c-0.2,0-0.8-0.4-2-1.3c-0.6-0.4-0.8-1.2-0.6-2.4c1.2-7.5,2.6-14.7,4.4-21.5c-1.3,1.9,0.1,3.5-0.3,4.2
				c-0.1,0.3,0.8,1.1,0.5,1.1s-1.1-0.5-1.1-0.8c0-0.2-0.1-0.3,0-0.6c0.8-1.5-0.4-4.4,1-7.4c0.4-1.1,0.9-1.6,1.3-1.6
				c0.3,0,0.9,0.3,1.9,1c0.5,0.4,0.6,0.9,0.3,1.6c-0.4,0.7-1.1,3.2-2.1,7.6c-1,4.2-1.7,7.5-2.1,9.9c2.3-7.4,5-14,8-19.6
				c0.6-1.1,1.1,0.1,0.9-0.8c-0.1-0.3,2.2-0.8,2.7-0.3c0.7,0.1,0.6,0.7,0.8,0.9C126.1,164.1,125.9,164.6,125.9,165.5"/>
		</g>
	</g>
	<g>
		<g>
			<defs>
				<rect id="SVGID_39_" x="-145" y="-178" width="612" height="792"/>
			</defs>
			<clipPath id="SVGID_40_">
				<use xlink:href="#SVGID_39_"  style="overflow:visible;"/>
			</clipPath>
			<path class="st19" d="M125.9,165.5c0,3.2-0.3,6.3-0.9,9.3c-0.2,0.9-0.4,1.3-0.8,1.3c-0.2,0-0.8-0.5-1.6-1.5
				c-0.4-0.5-0.5-1.2-0.3-2.1c0.5-2.2,0.7-4,0.7-5.3c0-0.5-0.1-0.7-0.2-0.7c-0.2,0-0.5,0.4-1,1.3c-3.6,6.6-6.3,14-8,22.3
				c-0.6,2.6-1.1,3.9-1.4,3.9c-0.2,0-0.8-0.4-2-1.3c-0.6-0.4-0.8-1.2-0.6-2.4c1.2-7.5,2.6-14.7,4.4-21.5c-1.3,1.9,0.1,3.5-0.3,4.2
				c-0.1,0.3,0.8,1.1,0.5,1.1s-1.1-0.5-1.1-0.8c0-0.2-0.1-0.3,0-0.6c0.8-1.5-0.4-4.4,1-7.4c0.4-1.1,0.9-1.6,1.3-1.6
				c0.3,0,0.9,0.3,1.9,1c0.5,0.4,0.6,0.9,0.3,1.6c-0.4,0.7-1.1,3.2-2.1,7.6c-1,4.2-1.7,7.5-2.1,9.9c2.3-7.4,5-14,8-19.6
				c0.6-1.1,1.1,0.1,0.9-0.8c-0.1-0.3,2.2-0.8,2.7-0.3c0.7,0.1,0.6,0.7,0.8,0.9C126.1,164.1,125.9,164.6,125.9,165.5z"/>
		</g>
	</g>
	<g>
		<g>
			<defs>
				<rect id="SVGID_41_" x="-145" y="-178" width="612" height="792"/>
			</defs>
			<clipPath id="SVGID_42_">
				<use xlink:href="#SVGID_41_"  style="overflow:visible;"/>
			</clipPath>
			<path class="st20" d="M142.4,166.1c0,3.8-0.4,6.9-1.1,9.2c-0.3,1-0.8,1.2-1.5,0.7c-1-0.8-1.5-1.4-1.5-1.9c0-0.2,0.1-0.5,0.4-0.7
				c0.6-2.3,0.9-4.2,0.8-5.5c0-1.1-0.4-1.6-1.2-1.6c-0.1,0-0.2,0-0.4-0.1s-0.3-0.1-0.4-0.1c-0.6,0-1.4,0.8-2.2,2.4
				c-1,1.8-1.9,4.4-2.8,7.6c-0.7,2.7-1.2,5-1.5,6.9c-0.2,1.4-0.3,2.6-0.3,3.8c0,3.8,0.8,5.6,2.5,5.5c1.5,0,3.6-2.7,6.5-7.9
				c0.3-0.5,0.5-0.7,0.8-0.7c0.2,0,0.3,0.2,0.3,0.6c0,0.2,0,0.4-0.1,0.7c-0.9,3.2-2.1,6-3.6,8.5c-0.4,0.6-1,0.9-1.9,0.9
				c-0.6,0-1.2-0.2-2-0.5c-1.6-0.1-2.9-0.9-3.8-2.2c-1-1.4-1.5-3.2-1.4-5.5c0.1-2.6,0.7-6.2,1.9-10.8c1.3-5,2.7-8.6,4.1-10.9
				c0.7-1,2.1-1.8,2.6-1.8c0.4,0,0.9-0.2,2.5,0c0.8,0.1,1.5,0.1,2.1,0.5C142.3,164,142.4,164.7,142.4,166.1"/>
		</g>
	</g>
	<g>
		<g>
			<defs>
				<rect id="SVGID_43_" x="-145" y="-178" width="612" height="792"/>
			</defs>
			<clipPath id="SVGID_44_">
				<use xlink:href="#SVGID_43_"  style="overflow:visible;"/>
			</clipPath>
			<path class="st21" d="M142.4,166.1c0,3.8-0.4,6.9-1.1,9.2c-0.3,1-0.8,1.2-1.5,0.7c-1-0.8-1.5-1.4-1.5-1.9c0-0.2,0.1-0.5,0.4-0.7
				c0.6-2.3,0.9-4.2,0.8-5.5c0-1.1-0.4-1.6-1.2-1.6c-0.1,0-0.2,0-0.4-0.1s-0.3-0.1-0.4-0.1c-0.6,0-1.4,0.8-2.2,2.4
				c-1,1.8-1.9,4.4-2.8,7.6c-0.7,2.7-1.2,5-1.5,6.9c-0.2,1.4-0.3,2.6-0.3,3.8c0,3.8,0.8,5.6,2.5,5.5c1.5,0,3.6-2.7,6.5-7.9
				c0.3-0.5,0.5-0.7,0.8-0.7c0.2,0,0.3,0.2,0.3,0.6c0,0.2,0,0.4-0.1,0.7c-0.9,3.2-2.1,6-3.6,8.5c-0.4,0.6-1,0.9-1.9,0.9
				c-0.6,0-1.2-0.2-2-0.5c-1.6-0.1-2.9-0.9-3.8-2.2c-1-1.4-1.5-3.2-1.4-5.5c0.1-2.6,0.7-6.2,1.9-10.8c1.3-5,2.7-8.6,4.1-10.9
				c0.7-1,2.1-1.8,2.6-1.8c0.4,0,0.9-0.2,2.5,0c0.8,0.1,1.5,0.1,2.1,0.5C142.3,164,142.4,164.7,142.4,166.1z"/>
		</g>
	</g>
	<g>
		<g>
			<defs>
				<rect id="SVGID_45_" x="-145" y="-178" width="612" height="792"/>
			</defs>
			<clipPath id="SVGID_46_">
				<use xlink:href="#SVGID_45_"  style="overflow:visible;"/>
			</clipPath>
			<path class="st22" d="M160.8,134.3c0.2,0.2-0.3,1.8-0.4,1.5c-0.5-1-0.1-2,0.2-0.4c0.2,0.8,2.2,0.7,1.6-1.8
				c-0.7-3.1-3,1.9-0.9,1.9c1.1,0-0.7,2.4-2,5.4c-4.6,10.6-7.9,24.5-10.1,41.6c2.8-7.7,6.2-13.4,9.9-18c1.1-1.3,4.9,1.3,1.8-1
				c-0.5-0.4-1.1,0.3,0,0c1-0.3,2.5,1,2.6,1.1c0.4,0.6,0.7,1.5,0.7,2.9c0,0.4,0,0.8-0.1,1.3c-0.3,4.4-1.2,9.7-2.6,15.9
				c0.5-1,0.4-4.4,1.5-6.4c0.3-0.4,0.8-6.6,0.6-6.6c-0.1,0-1.4,13.8-0.1,3.5c0-0.4-0.3,1.6-0.5,2.1c-0.4,0.9,1.8-4.8-2.4,13.1
				c-0.1,0.4-0.5,1.4-1,3.1c-0.2,0.8-0.5,1.2-0.9,1.2c-0.5,0-1.1-0.4-1.9-1.3c-0.3-0.3-0.4-0.9-0.2-1.6c3-10.6,4.6-18.6,4.7-23.8
				c0.1-1.5-0.1-2.2-0.4-2.2c-0.2,0-0.7,0.4-1.4,1.2c-1.3,1.5-3,4.2-4.9,8.1c-2.6,5.1-4.5,10.3-5.9,15.6c-0.4,1.5-0.7,2.3-1.1,2.3
				c-0.3,0-0.9-0.5-1.7-1.5c-0.4-0.5-0.6-1.4-0.4-2.6c2-15.6,4.6-28.9,7.8-40c2.4-8.2,4.5-13.6,6.4-16.1c0.5-0.6,1.1-0.9,1.5-0.7
				C162.7,132.5,160.1,133.6,160.8,134.3C161.7,135.3,160,133.3,160.8,134.3"/>
		</g>
	</g>
	<g>
		<g>
			<defs>
				<rect id="SVGID_47_" x="-145" y="-178" width="612" height="792"/>
			</defs>
			<clipPath id="SVGID_48_">
				<use xlink:href="#SVGID_47_"  style="overflow:visible;"/>
			</clipPath>
			<path class="st23" d="M160.8,134.3c0.2,0.2-0.3,1.8-0.4,1.5c-0.5-1-0.1-2,0.2-0.4c0.2,0.8,2.2,0.7,1.6-1.8
				c-0.7-3.1-3,1.9-0.9,1.9c1.1,0-0.7,2.4-2,5.4c-4.6,10.6-7.9,24.5-10.1,41.6c2.8-7.7,6.2-13.4,9.9-18c1.1-1.3,4.9,1.3,1.8-1
				c-0.5-0.4-1.1,0.3,0,0c1-0.3,2.5,1,2.6,1.1c0.4,0.6,0.7,1.5,0.7,2.9c0,0.4,0,0.8-0.1,1.3c-0.3,4.4-1.2,9.7-2.6,15.9
				c0.5-1,0.4-4.4,1.5-6.4c0.3-0.4,0.8-6.6,0.6-6.6c-0.1,0-1.4,13.8-0.1,3.5c0-0.4-0.3,1.6-0.5,2.1c-0.4,0.9,1.8-4.8-2.4,13.1
				c-0.1,0.4-0.5,1.4-1,3.1c-0.2,0.8-0.5,1.2-0.9,1.2c-0.5,0-1.1-0.4-1.9-1.3c-0.3-0.3-0.4-0.9-0.2-1.6c3-10.6,4.6-18.6,4.7-23.8
				c0.1-1.5-0.1-2.2-0.4-2.2c-0.2,0-0.7,0.4-1.4,1.2c-1.3,1.5-3,4.2-4.9,8.1c-2.6,5.1-4.5,10.3-5.9,15.6c-0.4,1.5-0.7,2.3-1.1,2.3
				c-0.3,0-0.9-0.5-1.7-1.5c-0.4-0.5-0.6-1.4-0.4-2.6c2-15.6,4.6-28.9,7.8-40c2.4-8.2,4.5-13.6,6.4-16.1c0.5-0.6,1.1-0.9,1.5-0.7
				C162.7,132.5,160.1,133.6,160.8,134.3C161.7,135.3,160,133.3,160.8,134.3z"/>
		</g>
	</g>
	<g>
		<g>
			<defs>
				<rect id="SVGID_49_" x="-145" y="-178" width="612" height="792"/>
			</defs>
			<clipPath id="SVGID_50_">
				<use xlink:href="#SVGID_49_"  style="overflow:visible;"/>
			</clipPath>
			<path class="st24" d="M107.5,64.7c0.2,0.2-0.3,1.8-0.4,1.5c-0.5-1-0.1-2,0.2-0.4c0.2,0.8,2.2,0.7,1.6-1.8c-0.7-3.1-3,1.9-0.9,1.9
				c1.1,0-0.7,2.4-2,5.4c-4.6,10.6-7.9,24.5-10.1,41.6c2.8-7.7,6.2-13.4,9.9-18c1.1-1.3,4.9,1.3,1.8-1c-0.5-0.4-1.1,0.3,0,0
				c1-0.3,2.5,1,2.6,1.1c0.4,0.6,0.7,1.5,0.7,2.9c0,0.4,0,0.8-0.1,1.3c-0.3,4.4-1.2,9.7-2.6,15.9c0.5-1,0.4-4.4,1.5-6.4
				c0.3-0.4,0.8-6.6,0.6-6.6c-0.1,0-1.4,13.8-0.1,3.5c0-0.4-0.3,1.6-0.5,2.1c-0.4,0.9,1.8-4.8-2.4,13.1c-0.1,0.4-0.5,1.4-1,3.1
				c-0.2,0.8-0.5,1.2-0.9,1.2c-0.5,0-1.1-0.4-1.9-1.3c-0.3-0.3-0.4-0.9-0.2-1.6c3-10.6,4.6-18.6,4.7-23.8c0.1-1.5-0.1-2.2-0.4-2.2
				c-0.2,0-0.7,0.4-1.4,1.2c-1.3,1.5-3,4.2-4.9,8.1c-2.6,5.1-4.5,10.3-5.9,15.6c-0.4,1.5-0.7,2.3-1.1,2.3c-0.3,0-0.9-0.5-1.7-1.5
				c-0.4-0.5-0.6-1.4-0.4-2.6c2-15.6,4.6-28.9,7.8-40c2.4-8.2,4.5-13.6,6.4-16.1c0.5-0.6,1.1-0.9,1.5-0.7
				C109.3,62.8,106.8,63.9,107.5,64.7C108.4,65.7,106.6,63.7,107.5,64.7"/>
		</g>
	</g>
	<g>
		<g>
			<defs>
				<rect id="SVGID_51_" x="-145" y="-178" width="612" height="792"/>
			</defs>
			<clipPath id="SVGID_52_">
				<use xlink:href="#SVGID_51_"  style="overflow:visible;"/>
			</clipPath>
			<path class="st25" d="M107.5,64.7c0.2,0.2-0.3,1.8-0.4,1.5c-0.5-1-0.1-2,0.2-0.4c0.2,0.8,2.2,0.7,1.6-1.8c-0.7-3.1-3,1.9-0.9,1.9
				c1.1,0-0.7,2.4-2,5.4c-4.6,10.6-7.9,24.5-10.1,41.6c2.8-7.7,6.2-13.4,9.9-18c1.1-1.3,4.9,1.3,1.8-1c-0.5-0.4-1.1,0.3,0,0
				c1-0.3,2.5,1,2.6,1.1c0.4,0.6,0.7,1.5,0.7,2.9c0,0.4,0,0.8-0.1,1.3c-0.3,4.4-1.2,9.7-2.6,15.9c0.5-1,0.4-4.4,1.5-6.4
				c0.3-0.4,0.8-6.6,0.6-6.6c-0.1,0-1.4,13.8-0.1,3.5c0-0.4-0.3,1.6-0.5,2.1c-0.4,0.9,1.8-4.8-2.4,13.1c-0.1,0.4-0.5,1.4-1,3.1
				c-0.2,0.8-0.5,1.2-0.9,1.2c-0.5,0-1.1-0.4-1.9-1.3c-0.3-0.3-0.4-0.9-0.2-1.6c3-10.6,4.6-18.6,4.7-23.8c0.1-1.5-0.1-2.2-0.4-2.2
				c-0.2,0-0.7,0.4-1.4,1.2c-1.3,1.5-3,4.2-4.9,8.1c-2.6,5.1-4.5,10.3-5.9,15.6c-0.4,1.5-0.7,2.3-1.1,2.3c-0.3,0-0.9-0.5-1.7-1.5
				c-0.4-0.5-0.6-1.4-0.4-2.6c2-15.6,4.6-28.9,7.8-40c2.4-8.2,4.5-13.6,6.4-16.1c0.5-0.6,1.1-0.9,1.5-0.7
				C109.3,62.8,106.8,63.9,107.5,64.7C108.4,65.7,106.6,63.7,107.5,64.7z"/>
		</g>
	</g>
	<g>
		<g>
			<defs>
				<rect id="SVGID_53_" x="-145" y="-178" width="612" height="792"/>
			</defs>
			<clipPath id="SVGID_54_">
				<use xlink:href="#SVGID_53_"  style="overflow:visible;"/>
			</clipPath>
			<path class="st26" d="M3.4,203.4c-0.8,0-1.5,0.9-1.5,2.1c0,1.2,0.7,2.1,1.5,2.1h273.8c0.8,0,1.5-0.9,1.5-2.1
				c0-1.2-0.7-2.1-1.5-2.1H3.4z"/>
		</g>
	</g>
	<g>
		<g>
			<defs>
				<rect id="SVGID_55_" x="-145" y="-178" width="612" height="792"/>
			</defs>
			<clipPath id="SVGID_56_">
				<use xlink:href="#SVGID_55_"  style="overflow:visible;"/>
			</clipPath>
			<path class="st27" d="M3.4,203.4c-0.8,0-1.5,0.9-1.5,2.1c0,1.2,0.7,2.1,1.5,2.1h273.8c0.8,0,1.5-0.9,1.5-2.1
				c0-1.2-0.7-2.1-1.5-2.1H3.4z"/>
		</g>
	</g>
	<g>
		<g>
			<defs>
				<rect id="SVGID_57_" x="-145" y="-178" width="612" height="792"/>
			</defs>
			<clipPath id="SVGID_58_">
				<use xlink:href="#SVGID_57_"  style="overflow:visible;"/>
			</clipPath>
			<path class="st28" d="M43.8,226.9c-0.3,3-1,6.3-2.1,9.8c-1,3.2-2.1,5.9-3.3,8.2s-2.2,3.4-2.9,3.4c-0.9,0-2.2-0.8-3.9-2.4
				c-0.1-0.1-0.2-0.3-0.2-0.4c0-0.4,0.2-0.6,0.5-0.6c0.1,0,0.2,0,0.3,0.1c0.7,0.6,1.4,0.9,2.3,1c1.1,0.1,2.6-2.3,4.4-7.2
				c1.8-4.8,2.8-9,3.1-12.8c0.1-1.2-0.4-2.1-1.4-2.7c-0.2-0.1-0.5-0.2-0.6-0.2c-1.8,0.4-3.5,1.3-5.1,2.7c-0.9,2.9-1.7,6.4-2.6,10.3
				c-1,4.3-1.7,8.1-2.1,11.3c-0.1,0.6-0.3,1-0.6,1c-0.1,0-0.2,0-0.4-0.1c-0.5-0.4-0.8-0.6-0.9-0.9c-0.2-0.3-0.3-0.7-0.3-1.2
				c0-1.1,0.1-2.4,0.4-3.9c0.1-0.4,0.2-0.6,0.3-0.6c0.1,0,0.4,0.3,0.9,0.9c1.2-6,2.4-11.2,3.5-15.5c-2,1.8-3.6,3.6-4.7,5.3
				c-0.3,0.4-0.4,0.9-0.4,1.4s0.1,1,0.3,1.6c0.2,0.6,0.3,1,0.3,1.1c0,0.2-0.1,0.3-0.3,0.3c-0.2,0-0.3-0.1-0.4-0.2
				c-1.1-1.9-1.7-3.2-1.7-4s0.4-1.6,1.1-2.6c1.5-2,3.8-4.2,6.7-6.6c0.5-1.6,0.8-2.4,1.1-2.4c0.2,0,0.5,0.4,1,1.1
				c0.5-0.3,1-0.6,1.5-1c0.4-0.3,0.8-0.4,1-0.4c0.4,0,1,0.4,1.8,1.1c0-0.1,0.1-0.1,0.2-0.1c0.5,0,1.3,0.7,2.3,2
				c0.6,0.7,0.9,1.5,0.9,2.4C43.8,226.4,43.8,226.6,43.8,226.9"/>
		</g>
	</g>
	<g>
		<g>
			<defs>
				<rect id="SVGID_59_" x="-145" y="-178" width="612" height="792"/>
			</defs>
			<clipPath id="SVGID_60_">
				<use xlink:href="#SVGID_59_"  style="overflow:visible;"/>
			</clipPath>
			<path class="st29" d="M43.8,226.9c-0.3,3-1,6.3-2.1,9.8c-1,3.2-2.1,5.9-3.3,8.2s-2.2,3.4-2.9,3.4c-0.9,0-2.2-0.8-3.9-2.4
				c-0.1-0.1-0.2-0.3-0.2-0.4c0-0.4,0.2-0.6,0.5-0.6c0.1,0,0.2,0,0.3,0.1c0.7,0.6,1.4,0.9,2.3,1c1.1,0.1,2.6-2.3,4.4-7.2
				c1.8-4.8,2.8-9,3.1-12.8c0.1-1.2-0.4-2.1-1.4-2.7c-0.2-0.1-0.5-0.2-0.6-0.2c-1.8,0.4-3.5,1.3-5.1,2.7c-0.9,2.9-1.7,6.4-2.6,10.3
				c-1,4.3-1.7,8.1-2.1,11.3c-0.1,0.6-0.3,1-0.6,1c-0.1,0-0.2,0-0.4-0.1c-0.5-0.4-0.8-0.6-0.9-0.9c-0.2-0.3-0.3-0.7-0.3-1.2
				c0-1.1,0.1-2.4,0.4-3.9c0.1-0.4,0.2-0.6,0.3-0.6c0.1,0,0.4,0.3,0.9,0.9c1.2-6,2.4-11.2,3.5-15.5c-2,1.8-3.6,3.6-4.7,5.3
				c-0.3,0.4-0.4,0.9-0.4,1.4s0.1,1,0.3,1.6c0.2,0.6,0.3,1,0.3,1.1c0,0.2-0.1,0.3-0.3,0.3c-0.2,0-0.3-0.1-0.4-0.2
				c-1.1-1.9-1.7-3.2-1.7-4s0.4-1.6,1.1-2.6c1.5-2,3.8-4.2,6.7-6.6c0.5-1.6,0.8-2.4,1.1-2.4c0.2,0,0.5,0.4,1,1.1
				c0.5-0.3,1-0.6,1.5-1c0.4-0.3,0.8-0.4,1-0.4c0.4,0,1,0.4,1.8,1.1c0-0.1,0.1-0.1,0.2-0.1c0.5,0,1.3,0.7,2.3,2
				c0.6,0.7,0.9,1.5,0.9,2.4C43.8,226.4,43.8,226.6,43.8,226.9z"/>
		</g>
	</g>
	<g>
		<g>
			<defs>
				<rect id="SVGID_61_" x="-145" y="-178" width="612" height="792"/>
			</defs>
			<clipPath id="SVGID_62_">
				<use xlink:href="#SVGID_61_"  style="overflow:visible;"/>
			</clipPath>
			<path class="st30" d="M52.2,235.4c0,1.2-0.2,2.7-0.6,4.6c-0.6,3-1.4,5.4-2.5,7c-0.6,0.9-1.2,1.3-1.9,1.3c-0.3,0-0.6-0.1-1.1-0.3
				c-0.9-0.1-1.6-0.5-2.1-1.1c-0.6-0.8-0.9-1.7-0.8-2.9c0-1.4,0.4-3.3,1-5.8c0.7-2.7,1.4-4.6,2.2-5.8c0.4-0.6,0.6-0.9,0.9-0.9
				c0.3,0,0.8,0.5,1.5,1.4c0.2-0.1,0.6-0.4,1.2-0.7c0.3-0.1,0.5-0.2,0.7-0.2c0.4,0,0.8,0.5,1.2,1.4
				C52.1,234.1,52.2,234.7,52.2,235.4 M50.6,236c0.1-0.9,0.1-1.4,0.1-1.7c0-0.5-0.1-0.8-0.4-0.8c-0.1,0-0.2,0-0.4,0.1l-2.1,1.2
				c-0.2,0.1-0.4,0.2-0.4,0.2c-0.1,0-0.1-0.1-0.2-0.4c-0.5,0.9-1,2.3-1.5,4c-0.4,1.4-0.6,2.6-0.7,3.7c-0.1,0.7-0.2,1.4-0.2,2
				c0,2,0.4,3,1.3,2.9c0.3,0,0.7-0.2,1.1-0.6c0.8-0.7,1.5-2.2,2.2-4.4C50.1,240.1,50.5,238.1,50.6,236"/>
		</g>
	</g>
	<g>
		<g>
			<defs>
				<rect id="SVGID_63_" x="-145" y="-178" width="612" height="792"/>
			</defs>
			<clipPath id="SVGID_64_">
				<use xlink:href="#SVGID_63_"  style="overflow:visible;"/>
			</clipPath>
			<path class="st31" d="M52.2,235.4c0,1.2-0.2,2.7-0.6,4.6c-0.6,3-1.4,5.4-2.5,7c-0.6,0.9-1.2,1.3-1.9,1.3c-0.3,0-0.6-0.1-1.1-0.3
				c-0.9-0.1-1.6-0.5-2.1-1.1c-0.6-0.8-0.9-1.7-0.8-2.9c0-1.4,0.4-3.3,1-5.8c0.7-2.7,1.4-4.6,2.2-5.8c0.4-0.6,0.6-0.9,0.9-0.9
				c0.3,0,0.8,0.5,1.5,1.4c0.2-0.1,0.6-0.4,1.2-0.7c0.3-0.1,0.5-0.2,0.7-0.2c0.4,0,0.8,0.5,1.2,1.4
				C52.1,234.1,52.2,234.7,52.2,235.4z M50.6,236c0.1-0.9,0.1-1.4,0.1-1.7c0-0.5-0.1-0.8-0.4-0.8c-0.1,0-0.2,0-0.4,0.1l-2.1,1.2
				c-0.2,0.1-0.4,0.2-0.4,0.2c-0.1,0-0.1-0.1-0.2-0.4c-0.5,0.9-1,2.3-1.5,4c-0.4,1.4-0.6,2.6-0.7,3.7c-0.1,0.7-0.2,1.4-0.2,2
				c0,2,0.4,3,1.3,2.9c0.3,0,0.7-0.2,1.1-0.6c0.8-0.7,1.5-2.2,2.2-4.4C50.1,240.1,50.5,238.1,50.6,236z"/>
		</g>
	</g>
	<g>
		<g>
			<defs>
				<rect id="SVGID_65_" x="-145" y="-178" width="612" height="792"/>
			</defs>
			<clipPath id="SVGID_66_">
				<use xlink:href="#SVGID_65_"  style="overflow:visible;"/>
			</clipPath>
			<path class="st32" d="M57,234.5c-0.2,1.8-0.8,4.7-1.7,8.7c0.3-0.3,0.6-1,1.1-1.9c0.1-0.1,0.1-0.2,0.2-0.2c0.1,0,0.2,0.2,0.1,0.5
				c0,0.1-0.4,1-1.2,2.7c-0.5,1.2-0.9,2.4-1.2,3.3c-0.1,0.3-0.2,0.4-0.5,0.4s-0.5-0.1-0.9-0.4c-0.2-0.2-0.4-0.3-0.4-0.4
				c0-0.1,0.1-0.2,0.2-0.5c0.5-1.2,1-3.3,1.6-6.2c0.6-2.8,0.9-4.9,1-6.3c0-0.6,0-0.9-0.1-0.9s-0.2,0.1-0.4,0.4l-0.9,1.1
				c-0.3,0.4-0.5,0.4-0.5,0.1c0-0.1,0-0.2,0.1-0.4c0.4-0.9,0.9-1.7,1.4-2.4c0.1-0.2,0.3-0.3,0.4-0.3c0.1,0,0.4,0.1,0.6,0.4
				c0.4,0.2,0.7,0.3,0.7,0.3c0.2,0.2,0.3,0.5,0.3,1C57.1,234,57.1,234.2,57,234.5 M59,226c0.1,0.2,0.2,0.3,0.2,0.5
				c0,0.4-0.4,1-1.2,1.8c-0.5,0.5-1,0.7-1.5,0.5c-0.3-0.1-0.5-0.2-0.7-0.4c-0.1-0.1-0.1-0.2-0.1-0.2c0-0.1,0-0.2,0-0.2
				c0-0.1,0.1-0.1,0.2,0c0.8-1,1.4-1.8,1.7-2.2c0.2-0.3,0.4-0.5,0.5-0.5C58.1,225.1,58.4,225.4,59,226"/>
		</g>
	</g>
	<g>
		<g>
			<defs>
				<rect id="SVGID_67_" x="-145" y="-178" width="612" height="792"/>
			</defs>
			<clipPath id="SVGID_68_">
				<use xlink:href="#SVGID_67_"  style="overflow:visible;"/>
			</clipPath>
			<path class="st33" d="M57,234.5c-0.2,1.8-0.8,4.7-1.7,8.7c0.3-0.3,0.6-1,1.1-1.9c0.1-0.1,0.1-0.2,0.2-0.2c0.1,0,0.2,0.2,0.1,0.5
				c0,0.1-0.4,1-1.2,2.7c-0.5,1.2-0.9,2.4-1.2,3.3c-0.1,0.3-0.2,0.4-0.5,0.4s-0.5-0.1-0.9-0.4c-0.2-0.2-0.4-0.3-0.4-0.4
				c0-0.1,0.1-0.2,0.2-0.5c0.5-1.2,1-3.3,1.6-6.2c0.6-2.8,0.9-4.9,1-6.3c0-0.6,0-0.9-0.1-0.9s-0.2,0.1-0.4,0.4l-0.9,1.1
				c-0.3,0.4-0.5,0.4-0.5,0.1c0-0.1,0-0.2,0.1-0.4c0.4-0.9,0.9-1.7,1.4-2.4c0.1-0.2,0.3-0.3,0.4-0.3c0.1,0,0.4,0.1,0.6,0.4
				c0.4,0.2,0.7,0.3,0.7,0.3c0.2,0.2,0.3,0.5,0.3,1C57.1,234,57.1,234.2,57,234.5z M59,226c0.1,0.2,0.2,0.3,0.2,0.5
				c0,0.4-0.4,1-1.2,1.8c-0.5,0.5-1,0.7-1.5,0.5c-0.3-0.1-0.5-0.2-0.7-0.4c-0.1-0.1-0.1-0.2-0.1-0.2c0-0.1,0-0.2,0-0.2
				c0-0.1,0.1-0.1,0.2,0c0.8-1,1.4-1.8,1.7-2.2c0.2-0.3,0.4-0.5,0.5-0.5C58.1,225.1,58.4,225.4,59,226z"/>
		</g>
	</g>
	<g>
		<g>
			<defs>
				<rect id="SVGID_69_" x="-145" y="-178" width="612" height="792"/>
			</defs>
			<clipPath id="SVGID_70_">
				<use xlink:href="#SVGID_69_"  style="overflow:visible;"/>
			</clipPath>
			<path class="st34" d="M68.9,240.8c-0.5,1.2-1.3,2.9-2.1,5.1c-0.2,0.6-0.3,1.2-0.5,1.8c-0.1,0.4-0.3,0.6-0.5,0.6s-0.4-0.1-0.7-0.3
				c-0.4-0.2-0.5-0.4-0.5-0.6c0-0.1,0.1-0.3,0.2-0.6c0.6-1.7,1.1-3.9,1.6-6.4c0.5-2.7,0.7-4.7,0.6-6.2c0-0.6-0.1-0.9-0.3-0.9
				c-0.1,0-0.3,0.2-0.5,0.5c-2.3,3.2-4.3,7.5-6,12.8c-0.2,0.7-0.5,1-0.7,1s-0.5-0.2-1-0.5c-0.2-0.1-0.3-0.2-0.3-0.3s0.1-0.2,0.2-0.5
				c0.5-1.6,1.1-3.7,1.6-6.3c0.6-2.7,0.9-4.9,0.9-6.4c0-0.5,0-0.7,0-0.7s-0.1,0.2-0.4,0.5c-0.2,0.4-0.6,0.8-1,1.4
				c-0.1,0.1-0.2,0.2-0.3,0.2s-0.2-0.1-0.2-0.2c0-0.1,0-0.2,0.1-0.4c0.4-0.7,0.9-1.6,1.5-2.7c0.1-0.2,0.3-0.3,0.4-0.3
				c0.2,0,0.4,0.2,0.6,0.7c0.7,0.3,1.1,0.8,1,1.4c-0.1,1.4-0.6,4-1.5,7.7c0.6-1.7,1.5-3.5,2.7-5.6c1.2-2.1,2-3.3,2.6-3.7
				c0.3-0.2,0.5-0.3,0.6-0.3s0.3,0.1,0.6,0.4c0.8,0.4,1.1,1,1.1,1.9s-0.2,2.4-0.5,4.4c-0.2,1.7-0.5,3-0.7,3.9c0.3-0.5,0.6-1.1,1-1.9
				c0.1-0.1,0.1-0.2,0.2-0.2s0.2,0.1,0.2,0.4C68.9,240.7,68.9,240.8,68.9,240.8"/>
		</g>
	</g>
	<g>
		<g>
			<defs>
				<rect id="SVGID_71_" x="-145" y="-178" width="612" height="792"/>
			</defs>
			<clipPath id="SVGID_72_">
				<use xlink:href="#SVGID_71_"  style="overflow:visible;"/>
			</clipPath>
			<path class="st35" d="M68.9,240.8c-0.5,1.2-1.3,2.9-2.1,5.1c-0.2,0.6-0.3,1.2-0.5,1.8c-0.1,0.4-0.3,0.6-0.5,0.6s-0.4-0.1-0.7-0.3
				c-0.4-0.2-0.5-0.4-0.5-0.6c0-0.1,0.1-0.3,0.2-0.6c0.6-1.7,1.1-3.9,1.6-6.4c0.5-2.7,0.7-4.7,0.6-6.2c0-0.6-0.1-0.9-0.3-0.9
				c-0.1,0-0.3,0.2-0.5,0.5c-2.3,3.2-4.3,7.5-6,12.8c-0.2,0.7-0.5,1-0.7,1s-0.5-0.2-1-0.5c-0.2-0.1-0.3-0.2-0.3-0.3s0.1-0.2,0.2-0.5
				c0.5-1.6,1.1-3.7,1.6-6.3c0.6-2.7,0.9-4.9,0.9-6.4c0-0.5,0-0.7,0-0.7s-0.1,0.2-0.4,0.5c-0.2,0.4-0.6,0.8-1,1.4
				c-0.1,0.1-0.2,0.2-0.3,0.2s-0.2-0.1-0.2-0.2c0-0.1,0-0.2,0.1-0.4c0.4-0.7,0.9-1.6,1.5-2.7c0.1-0.2,0.3-0.3,0.4-0.3
				c0.2,0,0.4,0.2,0.6,0.7c0.7,0.3,1.1,0.8,1,1.4c-0.1,1.4-0.6,4-1.5,7.7c0.6-1.7,1.5-3.5,2.7-5.6c1.2-2.1,2-3.3,2.6-3.7
				c0.3-0.2,0.5-0.3,0.6-0.3s0.3,0.1,0.6,0.4c0.8,0.4,1.1,1,1.1,1.9s-0.2,2.4-0.5,4.4c-0.2,1.7-0.5,3-0.7,3.9c0.3-0.5,0.6-1.1,1-1.9
				c0.1-0.1,0.1-0.2,0.2-0.2s0.2,0.1,0.2,0.4C68.9,240.7,68.9,240.8,68.9,240.8z"/>
		</g>
	</g>
	<g>
		<g>
			<defs>
				<rect id="SVGID_73_" x="-145" y="-178" width="612" height="792"/>
			</defs>
			<clipPath id="SVGID_74_">
				<use xlink:href="#SVGID_73_"  style="overflow:visible;"/>
			</clipPath>
			<path class="st36" d="M79.9,234c-2.8,20.7-6.4,31-10.9,31c-1.6,0-3.4-1.3-5.2-3.8c-0.2-0.2-0.3-0.5-0.3-0.7
				c0-0.4,0.1-0.6,0.4-0.6c0.1,0,0.3,0.1,0.4,0.2c1.5,1.8,2.8,2.7,4,2.7c3.8,0,6.9-7.9,9.4-23.6c-1.5,3.7-2.9,6.4-4,8
				c-0.5,0.7-0.9,1-1.2,1c-0.3,0-0.7-0.3-1.2-0.8c-0.9-0.6-1.3-1.6-1.2-3c0.1-1.7,0.5-3.8,1.4-6.3s1.7-4.3,2.7-5.6
				c0.5-0.7,1-1.1,1.4-1.1c0.3,0,0.7,0.2,1,0.6c0.1,0.1,0.4,0.5,1.1,1.4c0.1,0.2,0.2,0.3,0.2,0.5s-0.1,0.4-0.3,0.4
				c-0.1,0-0.3-0.1-0.5-0.2c-0.3-0.2-0.5-0.3-0.8-0.3c-0.4,0-0.7,0.2-1,0.6c-0.7,0.8-1.4,2.2-2.1,4.1c-0.8,2.1-1.3,3.9-1.5,5.6
				c0,0.5-0.1,0.9-0.1,1.2c0,1,0.2,1.4,0.5,1.4c0.2,0,0.5-0.2,0.8-0.5c1.1-1.3,2.2-3.2,3.2-5.7c1-2.3,1.7-4.4,2.1-6.4
				c0.2-0.7,0.2-1.3,0.2-2c0-0.5,0.1-0.7,0.2-0.7c0.2,0,0.5,0.3,1,0.8C79.9,232.6,80,233.1,79.9,234"/>
		</g>
	</g>
	<g>
		<g>
			<defs>
				<rect id="SVGID_75_" x="-145" y="-178" width="612" height="792"/>
			</defs>
			<clipPath id="SVGID_76_">
				<use xlink:href="#SVGID_75_"  style="overflow:visible;"/>
			</clipPath>
			<path class="st37" d="M79.9,234c-2.8,20.7-6.4,31-10.9,31c-1.6,0-3.4-1.3-5.2-3.8c-0.2-0.2-0.3-0.5-0.3-0.7
				c0-0.4,0.1-0.6,0.4-0.6c0.1,0,0.3,0.1,0.4,0.2c1.5,1.8,2.8,2.7,4,2.7c3.8,0,6.9-7.9,9.4-23.6c-1.5,3.7-2.9,6.4-4,8
				c-0.5,0.7-0.9,1-1.2,1c-0.3,0-0.7-0.3-1.2-0.8c-0.9-0.6-1.3-1.6-1.2-3c0.1-1.7,0.5-3.8,1.4-6.3s1.7-4.3,2.7-5.6
				c0.5-0.7,1-1.1,1.4-1.1c0.3,0,0.7,0.2,1,0.6c0.1,0.1,0.4,0.5,1.1,1.4c0.1,0.2,0.2,0.3,0.2,0.5s-0.1,0.4-0.3,0.4
				c-0.1,0-0.3-0.1-0.5-0.2c-0.3-0.2-0.5-0.3-0.8-0.3c-0.4,0-0.7,0.2-1,0.6c-0.7,0.8-1.4,2.2-2.1,4.1c-0.8,2.1-1.3,3.9-1.5,5.6
				c0,0.5-0.1,0.9-0.1,1.2c0,1,0.2,1.4,0.5,1.4c0.2,0,0.5-0.2,0.8-0.5c1.1-1.3,2.2-3.2,3.2-5.7c1-2.3,1.7-4.4,2.1-6.4
				c0.2-0.7,0.2-1.3,0.2-2c0-0.5,0.1-0.7,0.2-0.7c0.2,0,0.5,0.3,1,0.8C79.9,232.6,80,233.1,79.9,234z"/>
		</g>
	</g>
	<g>
		<g>
			<defs>
				<rect id="SVGID_77_" x="-145" y="-178" width="612" height="792"/>
			</defs>
			<clipPath id="SVGID_78_">
				<use xlink:href="#SVGID_77_"  style="overflow:visible;"/>
			</clipPath>
			<path class="st38" d="M100.1,225.3c-0.4,2.5-0.9,4.5-1.5,5.9c-0.3,0.6-0.5,1-0.8,1c-0.1,0-0.2,0-0.4-0.1c-0.7-0.3-1-0.7-1-1.1
				c0-0.2,0.1-0.3,0.3-0.4c0.8-1.7,1.3-3.8,1.4-6.2c-0.5-0.6-1-1-1.4-1c-0.9,0-2.1,1.2-3.4,3.6c-1.2,2.2-2.2,4.9-3.1,7.9
				c-0.9,3.2-1.4,5.9-1.3,8c0,1.2,0.3,2.2,0.8,2.8c0.4,0.4,0.8,0.7,1.3,0.7c0.3,0,0.6-0.1,0.9-0.2c0.9-0.4,1.9-1.1,3-2.3
				c1.1-1.1,2-2.1,2.7-3.3c0.2-0.4,0.4-0.8,0.4-1.3c0-0.3,0.1-0.4,0.3-0.4c0.1,0,0.2,0.1,0.3,0.4c0.3,1.2,0.5,2,0.5,2.4
				s-0.1,0.8-0.4,1.2c-0.2,0.2-0.6,0.7-1.2,1.3c-1.9,2.1-3.6,3.4-5,3.9c-0.4,0.2-0.8,0.2-1.2,0.2c-0.7,0-1.3-0.4-1.7-1.1
				c-1.8-0.9-2.7-2.4-2.7-4.3c0-3.1,0.6-6.5,1.7-10.1c1-3.1,2.2-5.9,3.7-8.3c1.4-2.3,2.5-3.5,3.4-3.5c0.3,0,0.7,0.1,1.1,0.6
				c0.1,0.1,0.5,0.5,1.3,1.5c0-0.5,0.2-0.8,0.4-0.8c0.2,0,0.6,0.3,1.1,0.9c0.3,0.4,0.5,0.7,0.5,1.1
				C100.3,224.3,100.2,224.7,100.1,225.3"/>
		</g>
	</g>
	<g>
		<g>
			<defs>
				<rect id="SVGID_79_" x="-145" y="-178" width="612" height="792"/>
			</defs>
			<clipPath id="SVGID_80_">
				<use xlink:href="#SVGID_79_"  style="overflow:visible;"/>
			</clipPath>
			<path class="st39" d="M100.1,225.3c-0.4,2.5-0.9,4.5-1.5,5.9c-0.3,0.6-0.5,1-0.8,1c-0.1,0-0.2,0-0.4-0.1c-0.7-0.3-1-0.7-1-1.1
				c0-0.2,0.1-0.3,0.3-0.4c0.8-1.7,1.3-3.8,1.4-6.2c-0.5-0.6-1-1-1.4-1c-0.9,0-2.1,1.2-3.4,3.6c-1.2,2.2-2.2,4.9-3.1,7.9
				c-0.9,3.2-1.4,5.9-1.3,8c0,1.2,0.3,2.2,0.8,2.8c0.4,0.4,0.8,0.7,1.3,0.7c0.3,0,0.6-0.1,0.9-0.2c0.9-0.4,1.9-1.1,3-2.3
				c1.1-1.1,2-2.1,2.7-3.3c0.2-0.4,0.4-0.8,0.4-1.3c0-0.3,0.1-0.4,0.3-0.4c0.1,0,0.2,0.1,0.3,0.4c0.3,1.2,0.5,2,0.5,2.4
				s-0.1,0.8-0.4,1.2c-0.2,0.2-0.6,0.7-1.2,1.3c-1.9,2.1-3.6,3.4-5,3.9c-0.4,0.2-0.8,0.2-1.2,0.2c-0.7,0-1.3-0.4-1.7-1.1
				c-1.8-0.9-2.7-2.4-2.7-4.3c0-3.1,0.6-6.5,1.7-10.1c1-3.1,2.2-5.9,3.7-8.3c1.4-2.3,2.5-3.5,3.4-3.5c0.3,0,0.7,0.1,1.1,0.6
				c0.1,0.1,0.5,0.5,1.3,1.5c0-0.5,0.2-0.8,0.4-0.8c0.2,0,0.6,0.3,1.1,0.9c0.3,0.4,0.5,0.7,0.5,1.1
				C100.3,224.3,100.2,224.7,100.1,225.3z"/>
		</g>
	</g>
	<g>
		<g>
			<defs>
				<rect id="SVGID_81_" x="-145" y="-178" width="612" height="792"/>
			</defs>
			<clipPath id="SVGID_82_">
				<use xlink:href="#SVGID_81_"  style="overflow:visible;"/>
			</clipPath>
			<path class="st40" d="M111.3,217.5c0.1,0.1,0.2,0.3,0.2,0.4c0,0.2-0.1,0.4-0.3,0.4c-0.1,0-0.2,0-0.3-0.1
				c-0.4-0.3-0.7-0.4-0.9-0.4c-0.6,0-1.2,0.8-1.9,2.4c-2.4,5.6-4.2,12.9-5.4,21.9c1.5-4.1,3.2-7.3,5.1-9.7c0.4-0.5,0.7-0.8,0.9-0.8
				c0.1,0,0.3,0.2,0.7,0.5c0.5,0.3,0.8,0.5,0.8,0.5c0.2,0.3,0.4,0.8,0.4,1.6c0,0.2,0,0.4,0,0.7c-0.2,2.3-0.6,5.1-1.4,8.4
				c0.3-0.5,0.7-1.3,1.3-2.4c0.1-0.2,0.3-0.3,0.4-0.3s0.2,0.1,0.2,0.3s-0.1,0.4-0.2,0.7c-0.5,1.1-1.2,2.7-2.1,4.8
				c-0.1,0.2-0.3,0.8-0.5,1.6c-0.1,0.4-0.3,0.6-0.5,0.6s-0.6-0.2-1-0.7c-0.2-0.2-0.2-0.5-0.1-0.9c1.6-5.6,2.4-9.8,2.5-12.6
				c0-0.8-0.1-1.2-0.2-1.2s-0.4,0.2-0.8,0.7c-0.7,0.8-1.6,2.2-2.6,4.3c-1.4,2.7-2.4,5.5-3.1,8.3c-0.2,0.8-0.4,1.2-0.6,1.2
				s-0.5-0.3-0.9-0.8c-0.2-0.3-0.3-0.7-0.2-1.4c1.1-8.2,2.4-15.3,4.1-21.1c1.3-4.4,2.4-7.2,3.4-8.5c0.3-0.3,0.5-0.5,0.8-0.5
				s0.6,0.2,1,0.6C110.4,216.5,110.9,217,111.3,217.5"/>
		</g>
	</g>
	<g>
		<g>
			<defs>
				<rect id="SVGID_83_" x="-145" y="-178" width="612" height="792"/>
			</defs>
			<clipPath id="SVGID_84_">
				<use xlink:href="#SVGID_83_"  style="overflow:visible;"/>
			</clipPath>
			<path class="st41" d="M111.3,217.5c0.1,0.1,0.2,0.3,0.2,0.4c0,0.2-0.1,0.4-0.3,0.4c-0.1,0-0.2,0-0.3-0.1
				c-0.4-0.3-0.7-0.4-0.9-0.4c-0.6,0-1.2,0.8-1.9,2.4c-2.4,5.6-4.2,12.9-5.4,21.9c1.5-4.1,3.2-7.3,5.1-9.7c0.4-0.5,0.7-0.8,0.9-0.8
				c0.1,0,0.3,0.2,0.7,0.5c0.5,0.3,0.8,0.5,0.8,0.5c0.2,0.3,0.4,0.8,0.4,1.6c0,0.2,0,0.4,0,0.7c-0.2,2.3-0.6,5.1-1.4,8.4
				c0.3-0.5,0.7-1.3,1.3-2.4c0.1-0.2,0.3-0.3,0.4-0.3s0.2,0.1,0.2,0.3s-0.1,0.4-0.2,0.7c-0.5,1.1-1.2,2.7-2.1,4.8
				c-0.1,0.2-0.3,0.8-0.5,1.6c-0.1,0.4-0.3,0.6-0.5,0.6s-0.6-0.2-1-0.7c-0.2-0.2-0.2-0.5-0.1-0.9c1.6-5.6,2.4-9.8,2.5-12.6
				c0-0.8-0.1-1.2-0.2-1.2s-0.4,0.2-0.8,0.7c-0.7,0.8-1.6,2.2-2.6,4.3c-1.4,2.7-2.4,5.5-3.1,8.3c-0.2,0.8-0.4,1.2-0.6,1.2
				s-0.5-0.3-0.9-0.8c-0.2-0.3-0.3-0.7-0.2-1.4c1.1-8.2,2.4-15.3,4.1-21.1c1.3-4.4,2.4-7.2,3.4-8.5c0.3-0.3,0.5-0.5,0.8-0.5
				s0.6,0.2,1,0.6C110.4,216.5,110.9,217,111.3,217.5z"/>
		</g>
	</g>
	<g>
		<g>
			<defs>
				<rect id="SVGID_85_" x="-145" y="-178" width="612" height="792"/>
			</defs>
			<clipPath id="SVGID_86_">
				<use xlink:href="#SVGID_85_"  style="overflow:visible;"/>
			</clipPath>
			<path class="st42" d="M122.6,233.6c-1.2,3.2-2.1,7-2.7,11.3c0.3-0.6,0.6-1.4,0.9-2.4c0-0.2,0.1-0.3,0.2-0.3s0.2,0.1,0.2,0.4
				c0,0.1,0,0.2,0,0.3c-0.6,1.9-1,3.4-1.2,4.4c-0.1,0.6-0.3,1-0.4,1s-0.5-0.3-1.1-0.8c-0.3-0.3-0.4-0.8-0.3-1.5
				c0.4-2.8,0.8-5.3,1.4-7.4c-1.8,4.1-3.2,7.1-4.4,9c-0.3,0.4-0.6,0.6-0.9,0.6s-0.6-0.1-0.9-0.4c-0.6-0.2-0.9-0.6-0.9-1.4
				c0-0.1,0-0.3,0-0.5c0.2-3.7,0.7-6.8,1.4-9.3c-0.2,0.2-0.4,0.5-0.7,0.9c-0.1,0.1-0.2,0.2-0.3,0.1c-0.1-0.1-0.1-0.2,0-0.4
				c0.5-1,0.8-1.7,0.9-2c0.3-1,0.6-1.8,0.9-2.4c0.2-0.3,0.3-0.4,0.5-0.4s0.6,0.2,1.1,0.6c0.1,0.1,0.2,0.2,0.2,0.4l-0.3,0.6
				c-0.5,1-0.9,2.7-1.5,5.2c-0.6,2.7-0.8,4.9-0.8,6.6c0,0.6,0.1,0.8,0.2,0.8s0.4-0.2,0.7-0.7c0.7-1.1,1.7-3.1,3.1-6
				c1.2-2.6,1.9-4.3,2.1-5.1c0.4-1.3,0.7-2.1,1-2.3c0.2-0.2,0.3-0.2,0.4-0.2s0.4,0.1,0.7,0.4c0.4,0.3,0.5,0.5,0.5,0.6
				c0,0,0,0.1-0.1,0.2C122.7,233.5,122.6,233.6,122.6,233.6"/>
		</g>
	</g>
	<g>
		<g>
			<defs>
				<rect id="SVGID_87_" x="-145" y="-178" width="612" height="792"/>
			</defs>
			<clipPath id="SVGID_88_">
				<use xlink:href="#SVGID_87_"  style="overflow:visible;"/>
			</clipPath>
			<path class="st43" d="M122.6,233.6c-1.2,3.2-2.1,7-2.7,11.3c0.3-0.6,0.6-1.4,0.9-2.4c0-0.2,0.1-0.3,0.2-0.3s0.2,0.1,0.2,0.4
				c0,0.1,0,0.2,0,0.3c-0.6,1.9-1,3.4-1.2,4.4c-0.1,0.6-0.3,1-0.4,1s-0.5-0.3-1.1-0.8c-0.3-0.3-0.4-0.8-0.3-1.5
				c0.4-2.8,0.8-5.3,1.4-7.4c-1.8,4.1-3.2,7.1-4.4,9c-0.3,0.4-0.6,0.6-0.9,0.6s-0.6-0.1-0.9-0.4c-0.6-0.2-0.9-0.6-0.9-1.4
				c0-0.1,0-0.3,0-0.5c0.2-3.7,0.7-6.8,1.4-9.3c-0.2,0.2-0.4,0.5-0.7,0.9c-0.1,0.1-0.2,0.2-0.3,0.1c-0.1-0.1-0.1-0.2,0-0.4
				c0.5-1,0.8-1.7,0.9-2c0.3-1,0.6-1.8,0.9-2.4c0.2-0.3,0.3-0.4,0.5-0.4s0.6,0.2,1.1,0.6c0.1,0.1,0.2,0.2,0.2,0.4l-0.3,0.6
				c-0.5,1-0.9,2.7-1.5,5.2c-0.6,2.7-0.8,4.9-0.8,6.6c0,0.6,0.1,0.8,0.2,0.8s0.4-0.2,0.7-0.7c0.7-1.1,1.7-3.1,3.1-6
				c1.2-2.6,1.9-4.3,2.1-5.1c0.4-1.3,0.7-2.1,1-2.3c0.2-0.2,0.3-0.2,0.4-0.2s0.4,0.1,0.7,0.4c0.4,0.3,0.5,0.5,0.5,0.6
				c0,0,0,0.1-0.1,0.2C122.7,233.5,122.6,233.6,122.6,233.6z"/>
		</g>
	</g>
	<g>
		<g>
			<defs>
				<rect id="SVGID_89_" x="-145" y="-178" width="612" height="792"/>
			</defs>
			<clipPath id="SVGID_90_">
				<use xlink:href="#SVGID_89_"  style="overflow:visible;"/>
			</clipPath>
			<path class="st44" d="M131.9,233.1c0,1.7-0.2,3.3-0.5,4.9c-0.1,0.5-0.2,0.7-0.4,0.7c-0.1,0-0.4-0.3-0.8-0.8
				c-0.2-0.3-0.3-0.6-0.2-1.1c0.3-1.2,0.4-2.1,0.4-2.8c0-0.2,0-0.4-0.1-0.4s-0.3,0.2-0.5,0.7c-1.9,3.5-3.3,7.5-4.3,11.8
				c-0.3,1.4-0.6,2.1-0.8,2.1c-0.1,0-0.4-0.2-1.1-0.7c-0.3-0.2-0.4-0.6-0.3-1.3c0.7-4.5,1.5-8.3,2.3-11.4c-0.7,1-1.1,1.7-1.3,2.1
				c-0.1,0.2-0.2,0.2-0.3,0.2c-0.2,0-0.2-0.1-0.2-0.3c0-0.1,0-0.2,0.1-0.4c0.4-0.8,1-1.9,1.8-3.5c0.2-0.6,0.5-0.9,0.7-0.9
				s0.5,0.2,1,0.5c0.3,0.2,0.3,0.5,0.1,0.8c-0.2,0.4-0.6,1.7-1.1,4c-0.5,2.2-0.9,4-1.1,5.2c1.2-3.9,2.7-7.4,4.2-10.4
				c0.3-0.6,0.5-0.9,0.7-0.9s0.4,0.2,0.7,0.5c0.4,0.1,0.6,0.1,0.7,0.3C131.9,232.3,131.9,232.6,131.9,233.1"/>
		</g>
	</g>
	<g>
		<g>
			<defs>
				<rect id="SVGID_91_" x="-145" y="-178" width="612" height="792"/>
			</defs>
			<clipPath id="SVGID_92_">
				<use xlink:href="#SVGID_91_"  style="overflow:visible;"/>
			</clipPath>
			<path class="st45" d="M131.9,233.1c0,1.7-0.2,3.3-0.5,4.9c-0.1,0.5-0.2,0.7-0.4,0.7c-0.1,0-0.4-0.3-0.8-0.8
				c-0.2-0.3-0.3-0.6-0.2-1.1c0.3-1.2,0.4-2.1,0.4-2.8c0-0.2,0-0.4-0.1-0.4s-0.3,0.2-0.5,0.7c-1.9,3.5-3.3,7.5-4.3,11.8
				c-0.3,1.4-0.6,2.1-0.8,2.1c-0.1,0-0.4-0.2-1.1-0.7c-0.3-0.2-0.4-0.6-0.3-1.3c0.7-4.5,1.5-8.3,2.3-11.4c-0.7,1-1.1,1.7-1.3,2.1
				c-0.1,0.2-0.2,0.2-0.3,0.2c-0.2,0-0.2-0.1-0.2-0.3c0-0.1,0-0.2,0.1-0.4c0.4-0.8,1-1.9,1.8-3.5c0.2-0.6,0.5-0.9,0.7-0.9
				s0.5,0.2,1,0.5c0.3,0.2,0.3,0.5,0.1,0.8c-0.2,0.4-0.6,1.7-1.1,4c-0.5,2.2-0.9,4-1.1,5.2c1.2-3.9,2.7-7.4,4.2-10.4
				c0.3-0.6,0.5-0.9,0.7-0.9s0.4,0.2,0.7,0.5c0.4,0.1,0.6,0.1,0.7,0.3C131.9,232.3,131.9,232.6,131.9,233.1z"/>
		</g>
	</g>
	<g>
		<g>
			<defs>
				<rect id="SVGID_93_" x="-145" y="-178" width="612" height="792"/>
			</defs>
			<clipPath id="SVGID_94_">
				<use xlink:href="#SVGID_93_"  style="overflow:visible;"/>
			</clipPath>
			<path class="st46" d="M139.5,233.4c0,2-0.2,3.6-0.6,4.9c-0.2,0.5-0.4,0.6-0.8,0.4c-0.5-0.4-0.8-0.7-0.8-1c0-0.1,0.1-0.2,0.2-0.4
				c0.3-1.2,0.5-2.2,0.4-2.9c0-0.6-0.2-0.9-0.6-0.9c0,0-0.1,0-0.2,0c-0.1,0-0.2,0-0.2,0c-0.3,0-0.7,0.4-1.2,1.3c-0.5,1-1,2.3-1.5,4
				c-0.4,1.4-0.6,2.6-0.8,3.6c-0.1,0.7-0.1,1.4-0.1,2c0,2,0.4,3,1.3,2.9c0.8,0,1.9-1.4,3.4-4.1c0.1-0.2,0.3-0.4,0.4-0.4
				c0.1,0,0.2,0.1,0.2,0.3c0,0.1,0,0.2-0.1,0.4c-0.5,1.7-1.1,3.2-1.9,4.5c-0.2,0.3-0.5,0.5-1,0.5c-0.3,0-0.6-0.1-1.1-0.3
				c-0.8-0.1-1.5-0.5-2-1.2s-0.8-1.7-0.8-2.9c0-1.4,0.4-3.3,1-5.7c0.7-2.6,1.4-4.6,2.2-5.8c0.3-0.5,0.6-0.8,0.9-0.8
				c0.2,0,0.7,0.3,1.4,0.9c0.4-0.2,0.7-0.3,1.1-0.3C139.2,232.3,139.5,232.7,139.5,233.4"/>
		</g>
	</g>
	<g>
		<g>
			<defs>
				<rect id="SVGID_95_" x="-145" y="-178" width="612" height="792"/>
			</defs>
			<clipPath id="SVGID_96_">
				<use xlink:href="#SVGID_95_"  style="overflow:visible;"/>
			</clipPath>
			<path class="st47" d="M139.5,233.4c0,2-0.2,3.6-0.6,4.9c-0.2,0.5-0.4,0.6-0.8,0.4c-0.5-0.4-0.8-0.7-0.8-1c0-0.1,0.1-0.2,0.2-0.4
				c0.3-1.2,0.5-2.2,0.4-2.9c0-0.6-0.2-0.9-0.6-0.9c0,0-0.1,0-0.2,0c-0.1,0-0.2,0-0.2,0c-0.3,0-0.7,0.4-1.2,1.3c-0.5,1-1,2.3-1.5,4
				c-0.4,1.4-0.6,2.6-0.8,3.6c-0.1,0.7-0.1,1.4-0.1,2c0,2,0.4,3,1.3,2.9c0.8,0,1.9-1.4,3.4-4.1c0.1-0.2,0.3-0.4,0.4-0.4
				c0.1,0,0.2,0.1,0.2,0.3c0,0.1,0,0.2-0.1,0.4c-0.5,1.7-1.1,3.2-1.9,4.5c-0.2,0.3-0.5,0.5-1,0.5c-0.3,0-0.6-0.1-1.1-0.3
				c-0.8-0.1-1.5-0.5-2-1.2s-0.8-1.7-0.8-2.9c0-1.4,0.4-3.3,1-5.7c0.7-2.6,1.4-4.6,2.2-5.8c0.3-0.5,0.6-0.8,0.9-0.8
				c0.2,0,0.7,0.3,1.4,0.9c0.4-0.2,0.7-0.3,1.1-0.3C139.2,232.3,139.5,232.7,139.5,233.4z"/>
		</g>
	</g>
	<g>
		<g>
			<defs>
				<rect id="SVGID_97_" x="-145" y="-178" width="612" height="792"/>
			</defs>
			<clipPath id="SVGID_98_">
				<use xlink:href="#SVGID_97_"  style="overflow:visible;"/>
			</clipPath>
			<path class="st48" d="M151.3,217.5c0.1,0.1,0.2,0.3,0.2,0.4c0,0.2-0.1,0.4-0.3,0.4c-0.1,0-0.2,0-0.3-0.1
				c-0.4-0.3-0.7-0.4-0.9-0.4c-0.6,0-1.2,0.8-1.9,2.4c-2.4,5.6-4.2,12.9-5.4,21.9c1.5-4.1,3.2-7.3,5.1-9.7c0.4-0.5,0.7-0.8,0.9-0.8
				c0.1,0,0.3,0.2,0.7,0.5c0.5,0.3,0.8,0.5,0.8,0.5c0.2,0.3,0.4,0.8,0.4,1.6c0,0.2,0,0.4,0,0.7c-0.2,2.3-0.6,5.1-1.4,8.4
				c0.3-0.5,0.7-1.3,1.3-2.4c0.1-0.2,0.3-0.3,0.4-0.3c0.1,0,0.2,0.1,0.2,0.3s-0.1,0.4-0.2,0.7c-0.5,1.1-1.2,2.7-2.1,4.8
				c-0.1,0.2-0.3,0.8-0.5,1.6c-0.1,0.4-0.3,0.6-0.5,0.6s-0.6-0.2-1-0.7c-0.2-0.2-0.2-0.5-0.1-0.9c1.6-5.6,2.4-9.8,2.5-12.6
				c0-0.8,0-1.2-0.2-1.2c-0.1,0-0.4,0.2-0.8,0.7c-0.7,0.8-1.6,2.2-2.6,4.3c-1.4,2.7-2.4,5.5-3.1,8.3c-0.2,0.8-0.4,1.2-0.6,1.2
				c-0.2,0-0.5-0.3-0.9-0.8c-0.2-0.3-0.3-0.7-0.2-1.4c1.1-8.2,2.4-15.3,4.1-21.1c1.3-4.4,2.4-7.2,3.4-8.5c0.3-0.3,0.5-0.5,0.8-0.5
				s0.6,0.2,1,0.6C150.4,216.5,150.8,217,151.3,217.5"/>
		</g>
	</g>
	<g>
		<g>
			<defs>
				<rect id="SVGID_99_" x="-145" y="-178" width="612" height="792"/>
			</defs>
			<clipPath id="SVGID_100_">
				<use xlink:href="#SVGID_99_"  style="overflow:visible;"/>
			</clipPath>
			<path class="st49" d="M151.3,217.5c0.1,0.1,0.2,0.3,0.2,0.4c0,0.2-0.1,0.4-0.3,0.4c-0.1,0-0.2,0-0.3-0.1
				c-0.4-0.3-0.7-0.4-0.9-0.4c-0.6,0-1.2,0.8-1.9,2.4c-2.4,5.6-4.2,12.9-5.4,21.9c1.5-4.1,3.2-7.3,5.1-9.7c0.4-0.5,0.7-0.8,0.9-0.8
				c0.1,0,0.3,0.2,0.7,0.5c0.5,0.3,0.8,0.5,0.8,0.5c0.2,0.3,0.4,0.8,0.4,1.6c0,0.2,0,0.4,0,0.7c-0.2,2.3-0.6,5.1-1.4,8.4
				c0.3-0.5,0.7-1.3,1.3-2.4c0.1-0.2,0.3-0.3,0.4-0.3c0.1,0,0.2,0.1,0.2,0.3s-0.1,0.4-0.2,0.7c-0.5,1.1-1.2,2.7-2.1,4.8
				c-0.1,0.2-0.3,0.8-0.5,1.6c-0.1,0.4-0.3,0.6-0.5,0.6s-0.6-0.2-1-0.7c-0.2-0.2-0.2-0.5-0.1-0.9c1.6-5.6,2.4-9.8,2.5-12.6
				c0-0.8,0-1.2-0.2-1.2c-0.1,0-0.4,0.2-0.8,0.7c-0.7,0.8-1.6,2.2-2.6,4.3c-1.4,2.7-2.4,5.5-3.1,8.3c-0.2,0.8-0.4,1.2-0.6,1.2
				c-0.2,0-0.5-0.3-0.9-0.8c-0.2-0.3-0.3-0.7-0.2-1.4c1.1-8.2,2.4-15.3,4.1-21.1c1.3-4.4,2.4-7.2,3.4-8.5c0.3-0.3,0.5-0.5,0.8-0.5
				s0.6,0.2,1,0.6C150.4,216.5,150.8,217,151.3,217.5z"/>
		</g>
	</g>
	<g>
		<g>
			<defs>
				<rect id="SVGID_101_" x="-145" y="-178" width="612" height="792"/>
			</defs>
			<clipPath id="SVGID_102_">
				<use xlink:href="#SVGID_101_"  style="overflow:visible;"/>
			</clipPath>
			<path class="st50" d="M175.5,226.9c-0.3,3-1,6.3-2.1,9.8c-1,3.2-2.1,5.9-3.3,8.2s-2.2,3.4-2.9,3.4c-0.9,0-2.2-0.8-3.9-2.4
				c-0.1-0.1-0.2-0.3-0.2-0.4c0-0.4,0.2-0.6,0.5-0.6c0.1,0,0.2,0,0.3,0.1c0.7,0.6,1.4,0.9,2.3,1c1.1,0.1,2.6-2.3,4.4-7.2
				c1.8-4.8,2.8-9,3.1-12.8c0.1-1.2-0.4-2.1-1.4-2.7c-0.2-0.1-0.5-0.2-0.6-0.2c-1.8,0.4-3.5,1.3-5.1,2.7c-0.9,2.9-1.7,6.4-2.6,10.3
				c-1,4.3-1.7,8.1-2.1,11.3c-0.1,0.6-0.3,1-0.6,1c-0.1,0-0.2,0-0.4-0.1c-0.5-0.4-0.8-0.6-0.9-0.9c-0.2-0.3-0.3-0.7-0.3-1.2
				c0-1.1,0.1-2.4,0.4-3.9c0.1-0.4,0.2-0.6,0.3-0.6s0.4,0.3,0.9,0.9c1.2-6,2.4-11.2,3.5-15.5c-2,1.8-3.6,3.6-4.7,5.3
				c-0.3,0.4-0.4,0.9-0.4,1.4s0.1,1,0.3,1.6s0.3,1,0.3,1.1c0,0.2-0.1,0.3-0.3,0.3s-0.3-0.1-0.4-0.2c-1.1-1.9-1.7-3.2-1.7-4
				s0.4-1.6,1.1-2.6c1.5-2,3.8-4.2,6.7-6.6c0.5-1.6,0.8-2.4,1.1-2.4c0.2,0,0.5,0.4,1,1.1c0.5-0.3,1-0.6,1.5-1c0.4-0.3,0.8-0.4,1-0.4
				c0.4,0,1,0.4,1.8,1.1c0-0.1,0.1-0.1,0.2-0.1c0.5,0,1.3,0.7,2.3,2c0.6,0.7,0.9,1.5,0.9,2.4C175.5,226.4,175.5,226.6,175.5,226.9"
				/>
		</g>
	</g>
	<g>
		<g>
			<defs>
				<rect id="SVGID_103_" x="-145" y="-178" width="612" height="792"/>
			</defs>
			<clipPath id="SVGID_104_">
				<use xlink:href="#SVGID_103_"  style="overflow:visible;"/>
			</clipPath>
			<path class="st51" d="M175.5,226.9c-0.3,3-1,6.3-2.1,9.8c-1,3.2-2.1,5.9-3.3,8.2s-2.2,3.4-2.9,3.4c-0.9,0-2.2-0.8-3.9-2.4
				c-0.1-0.1-0.2-0.3-0.2-0.4c0-0.4,0.2-0.6,0.5-0.6c0.1,0,0.2,0,0.3,0.1c0.7,0.6,1.4,0.9,2.3,1c1.1,0.1,2.6-2.3,4.4-7.2
				c1.8-4.8,2.8-9,3.1-12.8c0.1-1.2-0.4-2.1-1.4-2.7c-0.2-0.1-0.5-0.2-0.6-0.2c-1.8,0.4-3.5,1.3-5.1,2.7c-0.9,2.9-1.7,6.4-2.6,10.3
				c-1,4.3-1.7,8.1-2.1,11.3c-0.1,0.6-0.3,1-0.6,1c-0.1,0-0.2,0-0.4-0.1c-0.5-0.4-0.8-0.6-0.9-0.9c-0.2-0.3-0.3-0.7-0.3-1.2
				c0-1.1,0.1-2.4,0.4-3.9c0.1-0.4,0.2-0.6,0.3-0.6s0.4,0.3,0.9,0.9c1.2-6,2.4-11.2,3.5-15.5c-2,1.8-3.6,3.6-4.7,5.3
				c-0.3,0.4-0.4,0.9-0.4,1.4s0.1,1,0.3,1.6s0.3,1,0.3,1.1c0,0.2-0.1,0.3-0.3,0.3s-0.3-0.1-0.4-0.2c-1.1-1.9-1.7-3.2-1.7-4
				s0.4-1.6,1.1-2.6c1.5-2,3.8-4.2,6.7-6.6c0.5-1.6,0.8-2.4,1.1-2.4c0.2,0,0.5,0.4,1,1.1c0.5-0.3,1-0.6,1.5-1c0.4-0.3,0.8-0.4,1-0.4
				c0.4,0,1,0.4,1.8,1.1c0-0.1,0.1-0.1,0.2-0.1c0.5,0,1.3,0.7,2.3,2c0.6,0.7,0.9,1.5,0.9,2.4C175.5,226.4,175.5,226.6,175.5,226.9z"
				/>
		</g>
	</g>
	<g>
		<g>
			<defs>
				<rect id="SVGID_105_" x="-145" y="-178" width="612" height="792"/>
			</defs>
			<clipPath id="SVGID_106_">
				<use xlink:href="#SVGID_105_"  style="overflow:visible;"/>
			</clipPath>
			<path class="st52" d="M179,234.5c-0.2,1.8-0.8,4.7-1.7,8.7c0.3-0.3,0.6-1,1.1-1.9c0.1-0.1,0.1-0.2,0.2-0.2c0.1,0,0.2,0.2,0.1,0.5
				c0,0.1-0.4,1-1.2,2.7c-0.5,1.2-1,2.4-1.2,3.3c-0.1,0.3-0.2,0.4-0.5,0.4c-0.2,0-0.5-0.1-0.9-0.4c-0.2-0.2-0.4-0.3-0.4-0.4
				c0-0.1,0-0.2,0.1-0.5c0.5-1.2,1-3.3,1.6-6.2c0.6-2.8,0.9-4.9,1-6.3c0-0.6,0-0.9-0.1-0.9s-0.2,0.1-0.4,0.4l-0.9,1.1
				c-0.3,0.4-0.5,0.4-0.5,0.1c0-0.1,0-0.2,0.1-0.4c0.4-0.9,0.9-1.7,1.4-2.4c0.1-0.2,0.3-0.3,0.4-0.3c0.1,0,0.4,0.1,0.6,0.4
				c0.4,0.2,0.7,0.3,0.7,0.3c0.2,0.2,0.3,0.5,0.3,1C179,234,179,234.2,179,234.5 M180.9,226c0.1,0.2,0.2,0.3,0.2,0.5
				c0,0.4-0.4,1-1.2,1.8c-0.5,0.5-1,0.7-1.5,0.5c-0.3-0.1-0.5-0.2-0.7-0.4c-0.1-0.1-0.1-0.2-0.1-0.2V228c0-0.1,0.1-0.1,0.2,0
				c0.8-1,1.4-1.8,1.7-2.2c0.2-0.3,0.4-0.5,0.5-0.5C180,225.1,180.3,225.4,180.9,226"/>
		</g>
	</g>
	<g>
		<g>
			<defs>
				<rect id="SVGID_107_" x="-145" y="-178" width="612" height="792"/>
			</defs>
			<clipPath id="SVGID_108_">
				<use xlink:href="#SVGID_107_"  style="overflow:visible;"/>
			</clipPath>
			<path class="st53" d="M179,234.5c-0.2,1.8-0.8,4.7-1.7,8.7c0.3-0.3,0.6-1,1.1-1.9c0.1-0.1,0.1-0.2,0.2-0.2c0.1,0,0.2,0.2,0.1,0.5
				c0,0.1-0.4,1-1.2,2.7c-0.5,1.2-1,2.4-1.2,3.3c-0.1,0.3-0.2,0.4-0.5,0.4c-0.2,0-0.5-0.1-0.9-0.4c-0.2-0.2-0.4-0.3-0.4-0.4
				c0-0.1,0-0.2,0.1-0.5c0.5-1.2,1-3.3,1.6-6.2c0.6-2.8,0.9-4.9,1-6.3c0-0.6,0-0.9-0.1-0.9s-0.2,0.1-0.4,0.4l-0.9,1.1
				c-0.3,0.4-0.5,0.4-0.5,0.1c0-0.1,0-0.2,0.1-0.4c0.4-0.9,0.9-1.7,1.4-2.4c0.1-0.2,0.3-0.3,0.4-0.3c0.1,0,0.4,0.1,0.6,0.4
				c0.4,0.2,0.7,0.3,0.7,0.3c0.2,0.2,0.3,0.5,0.3,1C179,234,179,234.2,179,234.5z M180.9,226c0.1,0.2,0.2,0.3,0.2,0.5
				c0,0.4-0.4,1-1.2,1.8c-0.5,0.5-1,0.7-1.5,0.5c-0.3-0.1-0.5-0.2-0.7-0.4c-0.1-0.1-0.1-0.2-0.1-0.2V228c0-0.1,0.1-0.1,0.2,0
				c0.8-1,1.4-1.8,1.7-2.2c0.2-0.3,0.4-0.5,0.5-0.5C180,225.1,180.3,225.4,180.9,226z"/>
		</g>
	</g>
	<g>
		<g>
			<defs>
				<rect id="SVGID_109_" x="-145" y="-178" width="612" height="792"/>
			</defs>
			<clipPath id="SVGID_110_">
				<use xlink:href="#SVGID_109_"  style="overflow:visible;"/>
			</clipPath>
			<path class="st54" d="M191.9,218.5c0.1,0.1,0.2,0.3,0.2,0.5c0,0.3-0.1,0.4-0.3,0.4c-0.1,0-0.2,0-0.3-0.1c-0.5-0.4-1-0.6-1.4-0.6
				c-0.3,0-0.6,0.1-0.8,0.3c-0.9,0.8-2.4,5.2-4.3,13c1.5,0.3,2.4,0.5,2.8,0.5c0.2,0,0.3,0.1,0.3,0.3s-0.1,0.4-0.3,0.5
				c-1.1,0.3-2.2,0.5-3.3,0.5c-1.3,5.3-2.2,10.1-2.9,14.7c-0.6,3.6-0.9,6.3-0.9,7.8c0,0.1,0,0.3,0,0.6c0,0.3,0,0.5,0,0.6
				c0,0.2,0,0.3-0.1,0.3s-0.5-0.2-1-0.7c-0.6-0.5-0.9-1.1-0.8-1.8c0.8-5.8,2.1-12.9,4-21.5c-0.7,0.1-1.1,0.1-1.3,0.1
				s-0.3-0.2-0.4-0.4c-0.1-0.4-0.1-0.5-0.1-0.6c0-0.2,0.1-0.3,0.4-0.4c0.4-0.1,0.8-0.3,1.3-0.4c0.4-0.2,0.6-0.4,0.7-0.6
				c1.5-6.1,2.6-10.2,3.5-12.4c0.7-1.8,1.4-2.7,2-2.7C189.5,216.4,190.5,217.1,191.9,218.5"/>
		</g>
	</g>
	<g>
		<g>
			<defs>
				<rect id="SVGID_111_" x="-145" y="-178" width="612" height="792"/>
			</defs>
			<clipPath id="SVGID_112_">
				<use xlink:href="#SVGID_111_"  style="overflow:visible;"/>
			</clipPath>
			<path class="st55" d="M191.9,218.5c0.1,0.1,0.2,0.3,0.2,0.5c0,0.3-0.1,0.4-0.3,0.4c-0.1,0-0.2,0-0.3-0.1c-0.5-0.4-1-0.6-1.4-0.6
				c-0.3,0-0.6,0.1-0.8,0.3c-0.9,0.8-2.4,5.2-4.3,13c1.5,0.3,2.4,0.5,2.8,0.5c0.2,0,0.3,0.1,0.3,0.3s-0.1,0.4-0.3,0.5
				c-1.1,0.3-2.2,0.5-3.3,0.5c-1.3,5.3-2.2,10.1-2.9,14.7c-0.6,3.6-0.9,6.3-0.9,7.8c0,0.1,0,0.3,0,0.6c0,0.3,0,0.5,0,0.6
				c0,0.2,0,0.3-0.1,0.3s-0.5-0.2-1-0.7c-0.6-0.5-0.9-1.1-0.8-1.8c0.8-5.8,2.1-12.9,4-21.5c-0.7,0.1-1.1,0.1-1.3,0.1
				s-0.3-0.2-0.4-0.4c-0.1-0.4-0.1-0.5-0.1-0.6c0-0.2,0.1-0.3,0.4-0.4c0.4-0.1,0.8-0.3,1.3-0.4c0.4-0.2,0.6-0.4,0.7-0.6
				c1.5-6.1,2.6-10.2,3.5-12.4c0.7-1.8,1.4-2.7,2-2.7C189.5,216.4,190.5,217.1,191.9,218.5z"/>
		</g>
	</g>
	<g>
		<g>
			<defs>
				<rect id="SVGID_113_" x="-145" y="-178" width="612" height="792"/>
			</defs>
			<clipPath id="SVGID_114_">
				<use xlink:href="#SVGID_113_"  style="overflow:visible;"/>
			</clipPath>
			<path class="st56" d="M198.7,218.5c0.1,0.1,0.2,0.3,0.2,0.5c0,0.3-0.1,0.4-0.3,0.4c-0.1,0-0.2,0-0.3-0.1c-0.5-0.4-1-0.6-1.4-0.6
				c-0.3,0-0.6,0.1-0.8,0.3c-0.9,0.8-2.4,5.2-4.3,13c1.5,0.3,2.4,0.5,2.8,0.5c0.2,0,0.3,0.1,0.3,0.3s-0.1,0.4-0.3,0.5
				c-1.1,0.3-2.2,0.5-3.3,0.5c-1.3,5.3-2.2,10.1-2.9,14.7c-0.6,3.6-0.9,6.3-0.9,7.8c0,0.1,0,0.3,0,0.6c0,0.3,0,0.5,0,0.6
				c0,0.2,0,0.3-0.1,0.3s-0.5-0.2-1-0.7c-0.6-0.5-0.9-1.1-0.8-1.8c0.8-5.8,2.1-12.9,4-21.5c-0.7,0.1-1.1,0.1-1.3,0.1
				s-0.3-0.2-0.4-0.4c-0.1-0.4-0.1-0.5-0.1-0.6c0-0.2,0.1-0.3,0.4-0.4c0.4-0.1,0.8-0.3,1.3-0.4c0.4-0.2,0.6-0.4,0.7-0.6
				c1.5-6.1,2.6-10.2,3.5-12.4c0.7-1.8,1.4-2.7,2-2.7C196.3,216.4,197.3,217.1,198.7,218.5"/>
		</g>
	</g>
	<g>
		<g>
			<defs>
				<rect id="SVGID_115_" x="-145" y="-178" width="612" height="792"/>
			</defs>
			<clipPath id="SVGID_116_">
				<use xlink:href="#SVGID_115_"  style="overflow:visible;"/>
			</clipPath>
			<path class="st57" d="M198.7,218.5c0.1,0.1,0.2,0.3,0.2,0.5c0,0.3-0.1,0.4-0.3,0.4c-0.1,0-0.2,0-0.3-0.1c-0.5-0.4-1-0.6-1.4-0.6
				c-0.3,0-0.6,0.1-0.8,0.3c-0.9,0.8-2.4,5.2-4.3,13c1.5,0.3,2.4,0.5,2.8,0.5c0.2,0,0.3,0.1,0.3,0.3s-0.1,0.4-0.3,0.5
				c-1.1,0.3-2.2,0.5-3.3,0.5c-1.3,5.3-2.2,10.1-2.9,14.7c-0.6,3.6-0.9,6.3-0.9,7.8c0,0.1,0,0.3,0,0.6c0,0.3,0,0.5,0,0.6
				c0,0.2,0,0.3-0.1,0.3s-0.5-0.2-1-0.7c-0.6-0.5-0.9-1.1-0.8-1.8c0.8-5.8,2.1-12.9,4-21.5c-0.7,0.1-1.1,0.1-1.3,0.1
				s-0.3-0.2-0.4-0.4c-0.1-0.4-0.1-0.5-0.1-0.6c0-0.2,0.1-0.3,0.4-0.4c0.4-0.1,0.8-0.3,1.3-0.4c0.4-0.2,0.6-0.4,0.7-0.6
				c1.5-6.1,2.6-10.2,3.5-12.4c0.7-1.8,1.4-2.7,2-2.7C196.3,216.4,197.3,217.1,198.7,218.5z"/>
		</g>
	</g>
	<g>
		<g>
			<defs>
				<rect id="SVGID_117_" x="-145" y="-178" width="612" height="792"/>
			</defs>
			<clipPath id="SVGID_118_">
				<use xlink:href="#SVGID_117_"  style="overflow:visible;"/>
			</clipPath>
			<path class="st58" d="M201.2,242.2c-2.2,4-3.8,6.1-4.7,6.1c-0.4,0-1-0.4-1.6-1.3c-0.7-0.5-1-1.1-1-1.8c0-0.1,0-0.3,0-0.4
				c0.2-1.8,0.5-3.7,1-5.9c-0.3-0.2-0.5-0.5-0.5-0.7s0.1-0.3,0.3-0.3c0.1,0,0.3,0.1,0.5,0.2c0.8-2.6,1.5-4.4,2.2-5.5
				c0.4-0.7,0.8-1.1,1.1-1.1c0.2,0,0.5,0.2,1.2,0.6c0-0.4,0-0.6,0.2-0.7h0.6c0.4,0,0.6,0.1,0.6,0.3c0,0,0,0.1,0,0.3s0,0.4,0,0.5
				c0,0.5,0,1,0,1.7s0,1.1,0,1.4c0,1.6-0.3,2.7-0.9,3.4c-0.6,0.6-1.2,0.9-1.9,0.9c-0.4,0-1-0.1-1.9-0.4c-0.2,0.4-0.3,1.2-0.5,2.4
				c-0.3,1.5-0.4,2.8-0.4,3.9c0,0.7,0.2,1,0.5,1c0.1,0,0.3,0,0.4-0.1c1.1-0.5,2.5-2.2,4.4-4.9c0.1-0.2,0.2-0.3,0.4-0.3
				s0.3,0.1,0.3,0.4C201.3,241.9,201.3,242.1,201.2,242.2 M199.6,233.6c0-0.5-0.1-0.8-0.2-0.8c-0.1,0-0.2,0.1-0.4,0.3
				c-0.9,1-1.7,2.8-2.4,5.4c0.2,0,0.5,0.1,1,0.1c0.7,0,1.3-0.2,1.7-0.7c0.3-0.4,0.4-1,0.5-1.9C199.6,236.7,199.6,235.9,199.6,233.6"
				/>
		</g>
	</g>
	<g>
		<g>
			<defs>
				<rect id="SVGID_119_" x="-145" y="-178" width="612" height="792"/>
			</defs>
			<clipPath id="SVGID_120_">
				<use xlink:href="#SVGID_119_"  style="overflow:visible;"/>
			</clipPath>
			<path class="st59" d="M201.2,242.2c-2.2,4-3.8,6.1-4.7,6.1c-0.4,0-1-0.4-1.6-1.3c-0.7-0.5-1-1.1-1-1.8c0-0.1,0-0.3,0-0.4
				c0.2-1.8,0.5-3.7,1-5.9c-0.3-0.2-0.5-0.5-0.5-0.7s0.1-0.3,0.3-0.3c0.1,0,0.3,0.1,0.5,0.2c0.8-2.6,1.5-4.4,2.2-5.5
				c0.4-0.7,0.8-1.1,1.1-1.1c0.2,0,0.5,0.2,1.2,0.6c0-0.4,0-0.6,0.2-0.7h0.6c0.4,0,0.6,0.1,0.6,0.3c0,0,0,0.1,0,0.3s0,0.4,0,0.5
				c0,0.5,0,1,0,1.7s0,1.1,0,1.4c0,1.6-0.3,2.7-0.9,3.4c-0.6,0.6-1.2,0.9-1.9,0.9c-0.4,0-1-0.1-1.9-0.4c-0.2,0.4-0.3,1.2-0.5,2.4
				c-0.3,1.5-0.4,2.8-0.4,3.9c0,0.7,0.2,1,0.5,1c0.1,0,0.3,0,0.4-0.1c1.1-0.5,2.5-2.2,4.4-4.9c0.1-0.2,0.2-0.3,0.4-0.3
				s0.3,0.1,0.3,0.4C201.3,241.9,201.3,242.1,201.2,242.2z M199.6,233.6c0-0.5-0.1-0.8-0.2-0.8c-0.1,0-0.2,0.1-0.4,0.3
				c-0.9,1-1.7,2.8-2.4,5.4c0.2,0,0.5,0.1,1,0.1c0.7,0,1.3-0.2,1.7-0.7c0.3-0.4,0.4-1,0.5-1.9C199.6,236.7,199.6,235.9,199.6,233.6z
				"/>
		</g>
	</g>
	<g>
		<g>
			<defs>
				<rect id="SVGID_121_" x="-145" y="-178" width="612" height="792"/>
			</defs>
			<clipPath id="SVGID_122_">
				<use xlink:href="#SVGID_121_"  style="overflow:visible;"/>
			</clipPath>
			<path class="st60" d="M211,233.1c0,1.7-0.2,3.3-0.5,4.9c-0.1,0.5-0.2,0.7-0.4,0.7c-0.1,0-0.4-0.3-0.9-0.8
				c-0.2-0.3-0.3-0.6-0.2-1.1c0.3-1.2,0.4-2.1,0.4-2.8c0-0.2,0-0.4-0.1-0.4s-0.3,0.2-0.5,0.7c-1.9,3.5-3.3,7.5-4.3,11.8
				c-0.3,1.4-0.6,2.1-0.8,2.1c-0.1,0-0.4-0.2-1.1-0.7c-0.3-0.2-0.4-0.6-0.3-1.3c0.7-4.5,1.5-8.3,2.3-11.4c-0.7,1-1.1,1.7-1.3,2.1
				c-0.1,0.2-0.2,0.2-0.3,0.2c-0.2,0-0.2-0.1-0.2-0.3c0-0.1,0-0.2,0.1-0.4c0.4-0.8,1-1.9,1.8-3.5c0.2-0.6,0.5-0.9,0.7-0.9
				s0.5,0.2,1,0.5c0.3,0.2,0.3,0.5,0.1,0.8c-0.2,0.4-0.6,1.7-1.1,4c-0.5,2.2-0.9,4-1.1,5.2c1.2-3.9,2.7-7.4,4.2-10.4
				c0.3-0.6,0.5-0.9,0.7-0.9s0.4,0.2,0.7,0.5c0.4,0.1,0.6,0.1,0.7,0.3C210.9,232.3,211,232.6,211,233.1"/>
		</g>
	</g>
	<g>
		<g>
			<defs>
				<rect id="SVGID_123_" x="-145" y="-178" width="612" height="792"/>
			</defs>
			<clipPath id="SVGID_124_">
				<use xlink:href="#SVGID_123_"  style="overflow:visible;"/>
			</clipPath>
			<path class="st61" d="M211,233.1c0,1.7-0.2,3.3-0.5,4.9c-0.1,0.5-0.2,0.7-0.4,0.7c-0.1,0-0.4-0.3-0.9-0.8
				c-0.2-0.3-0.3-0.6-0.2-1.1c0.3-1.2,0.4-2.1,0.4-2.8c0-0.2,0-0.4-0.1-0.4s-0.3,0.2-0.5,0.7c-1.9,3.5-3.3,7.5-4.3,11.8
				c-0.3,1.4-0.6,2.1-0.8,2.1c-0.1,0-0.4-0.2-1.1-0.7c-0.3-0.2-0.4-0.6-0.3-1.3c0.7-4.5,1.5-8.3,2.3-11.4c-0.7,1-1.1,1.7-1.3,2.1
				c-0.1,0.2-0.2,0.2-0.3,0.2c-0.2,0-0.2-0.1-0.2-0.3c0-0.1,0-0.2,0.1-0.4c0.4-0.8,1-1.9,1.8-3.5c0.2-0.6,0.5-0.9,0.7-0.9
				s0.5,0.2,1,0.5c0.3,0.2,0.3,0.5,0.1,0.8c-0.2,0.4-0.6,1.7-1.1,4c-0.5,2.2-0.9,4-1.1,5.2c1.2-3.9,2.7-7.4,4.2-10.4
				c0.3-0.6,0.5-0.9,0.7-0.9s0.4,0.2,0.7,0.5c0.4,0.1,0.6,0.1,0.7,0.3C210.9,232.3,211,232.6,211,233.1z"/>
		</g>
	</g>
	<g>
		<g>
			<defs>
				<rect id="SVGID_125_" x="-145" y="-178" width="612" height="792"/>
			</defs>
			<clipPath id="SVGID_126_">
				<use xlink:href="#SVGID_125_"  style="overflow:visible;"/>
			</clipPath>
			<path class="st62" d="M218.2,242.2c-2.2,4-3.8,6.1-4.7,6.1c-0.4,0-1-0.4-1.6-1.3c-0.7-0.5-1-1.1-1-1.8c0-0.1,0-0.3,0-0.4
				c0.2-1.8,0.5-3.7,1-5.9c-0.3-0.2-0.5-0.5-0.5-0.7s0.1-0.3,0.3-0.3c0.1,0,0.3,0.1,0.5,0.2c0.8-2.6,1.5-4.4,2.2-5.5
				c0.4-0.7,0.8-1.1,1.1-1.1c0.2,0,0.5,0.2,1.2,0.6c0-0.4,0-0.6,0.2-0.7h0.6c0.4,0,0.6,0.1,0.6,0.3c0,0,0,0.1,0,0.3s0,0.4,0,0.5
				c0,0.5,0,1,0,1.7s0,1.1,0,1.4c0,1.6-0.3,2.7-0.9,3.4c-0.6,0.6-1.2,0.9-1.9,0.9c-0.4,0-1-0.1-1.9-0.4c-0.2,0.4-0.3,1.2-0.5,2.4
				c-0.3,1.5-0.4,2.8-0.4,3.9c0,0.7,0.2,1,0.5,1c0.1,0,0.3,0,0.4-0.1c1.1-0.5,2.5-2.2,4.4-4.9c0.1-0.2,0.2-0.3,0.4-0.3
				s0.3,0.1,0.3,0.4C218.4,241.9,218.3,242.1,218.2,242.2 M216.6,233.6c0-0.5-0.1-0.8-0.2-0.8c-0.1,0-0.2,0.1-0.4,0.3
				c-0.9,1-1.7,2.8-2.4,5.4c0.2,0,0.5,0.1,1,0.1c0.7,0,1.3-0.2,1.7-0.7c0.3-0.4,0.4-1,0.5-1.9C216.7,236.7,216.6,235.9,216.6,233.6"
				/>
		</g>
	</g>
	<g>
		<g>
			<defs>
				<rect id="SVGID_127_" x="-145" y="-178" width="612" height="792"/>
			</defs>
			<clipPath id="SVGID_128_">
				<use xlink:href="#SVGID_127_"  style="overflow:visible;"/>
			</clipPath>
			<path class="st63" d="M218.2,242.2c-2.2,4-3.8,6.1-4.7,6.1c-0.4,0-1-0.4-1.6-1.3c-0.7-0.5-1-1.1-1-1.8c0-0.1,0-0.3,0-0.4
				c0.2-1.8,0.5-3.7,1-5.9c-0.3-0.2-0.5-0.5-0.5-0.7s0.1-0.3,0.3-0.3c0.1,0,0.3,0.1,0.5,0.2c0.8-2.6,1.5-4.4,2.2-5.5
				c0.4-0.7,0.8-1.1,1.1-1.1c0.2,0,0.5,0.2,1.2,0.6c0-0.4,0-0.6,0.2-0.7h0.6c0.4,0,0.6,0.1,0.6,0.3c0,0,0,0.1,0,0.3s0,0.4,0,0.5
				c0,0.5,0,1,0,1.7s0,1.1,0,1.4c0,1.6-0.3,2.7-0.9,3.4c-0.6,0.6-1.2,0.9-1.9,0.9c-0.4,0-1-0.1-1.9-0.4c-0.2,0.4-0.3,1.2-0.5,2.4
				c-0.3,1.5-0.4,2.8-0.4,3.9c0,0.7,0.2,1,0.5,1c0.1,0,0.3,0,0.4-0.1c1.1-0.5,2.5-2.2,4.4-4.9c0.1-0.2,0.2-0.3,0.4-0.3
				s0.3,0.1,0.3,0.4C218.4,241.9,218.3,242.1,218.2,242.2z M216.6,233.6c0-0.5-0.1-0.8-0.2-0.8c-0.1,0-0.2,0.1-0.4,0.3
				c-0.9,1-1.7,2.8-2.4,5.4c0.2,0,0.5,0.1,1,0.1c0.7,0,1.3-0.2,1.7-0.7c0.3-0.4,0.4-1,0.5-1.9C216.7,236.7,216.6,235.9,216.6,233.6z
				"/>
		</g>
	</g>
	<g>
		<g>
			<defs>
				<rect id="SVGID_129_" x="-145" y="-178" width="612" height="792"/>
			</defs>
			<clipPath id="SVGID_130_">
				<use xlink:href="#SVGID_129_"  style="overflow:visible;"/>
			</clipPath>
			<path class="st64" d="M229.7,240.8c-0.5,1.2-1.3,2.9-2.1,5.1c-0.2,0.6-0.3,1.2-0.5,1.8c-0.1,0.4-0.3,0.6-0.5,0.6
				s-0.4-0.1-0.7-0.3c-0.4-0.2-0.5-0.4-0.5-0.6c0-0.1,0.1-0.3,0.2-0.6c0.6-1.7,1.1-3.9,1.6-6.4c0.5-2.7,0.7-4.7,0.6-6.2
				c0-0.6-0.1-0.9-0.3-0.9c-0.1,0-0.3,0.2-0.5,0.5c-2.3,3.2-4.3,7.5-6,12.8c-0.2,0.7-0.5,1-0.7,1s-0.5-0.2-1-0.5
				c-0.2-0.1-0.3-0.2-0.3-0.3s0.1-0.2,0.2-0.5c0.5-1.6,1.1-3.7,1.6-6.3c0.6-2.7,0.9-4.9,0.9-6.4c0-0.5,0-0.7,0-0.7s-0.1,0.2-0.4,0.5
				c-0.2,0.4-0.6,0.8-1,1.4c-0.1,0.1-0.2,0.2-0.3,0.2s-0.2-0.1-0.2-0.2c0-0.1,0-0.2,0.1-0.4c0.4-0.7,0.9-1.6,1.5-2.7
				c0.1-0.2,0.3-0.3,0.4-0.3c0.2,0,0.4,0.2,0.6,0.7c0.7,0.3,1.1,0.8,1,1.4c-0.1,1.4-0.6,4-1.5,7.7c0.6-1.7,1.5-3.5,2.7-5.6
				s2-3.3,2.6-3.7c0.3-0.2,0.5-0.3,0.6-0.3s0.3,0.1,0.6,0.4c0.8,0.4,1.1,1,1.1,1.9s-0.2,2.4-0.5,4.4c-0.2,1.7-0.5,3-0.7,3.9
				c0.3-0.5,0.6-1.1,1-1.9c0.1-0.1,0.1-0.2,0.2-0.2c0.1,0,0.2,0.1,0.2,0.4C229.8,240.7,229.7,240.8,229.7,240.8"/>
		</g>
	</g>
	<g>
		<g>
			<defs>
				<rect id="SVGID_131_" x="-145" y="-178" width="612" height="792"/>
			</defs>
			<clipPath id="SVGID_132_">
				<use xlink:href="#SVGID_131_"  style="overflow:visible;"/>
			</clipPath>
			<path class="st65" d="M229.7,240.8c-0.5,1.2-1.3,2.9-2.1,5.1c-0.2,0.6-0.3,1.2-0.5,1.8c-0.1,0.4-0.3,0.6-0.5,0.6
				s-0.4-0.1-0.7-0.3c-0.4-0.2-0.5-0.4-0.5-0.6c0-0.1,0.1-0.3,0.2-0.6c0.6-1.7,1.1-3.9,1.6-6.4c0.5-2.7,0.7-4.7,0.6-6.2
				c0-0.6-0.1-0.9-0.3-0.9c-0.1,0-0.3,0.2-0.5,0.5c-2.3,3.2-4.3,7.5-6,12.8c-0.2,0.7-0.5,1-0.7,1s-0.5-0.2-1-0.5
				c-0.2-0.1-0.3-0.2-0.3-0.3s0.1-0.2,0.2-0.5c0.5-1.6,1.1-3.7,1.6-6.3c0.6-2.7,0.9-4.9,0.9-6.4c0-0.5,0-0.7,0-0.7s-0.1,0.2-0.4,0.5
				c-0.2,0.4-0.6,0.8-1,1.4c-0.1,0.1-0.2,0.2-0.3,0.2s-0.2-0.1-0.2-0.2c0-0.1,0-0.2,0.1-0.4c0.4-0.7,0.9-1.6,1.5-2.7
				c0.1-0.2,0.3-0.3,0.4-0.3c0.2,0,0.4,0.2,0.6,0.7c0.7,0.3,1.1,0.8,1,1.4c-0.1,1.4-0.6,4-1.5,7.7c0.6-1.7,1.5-3.5,2.7-5.6
				s2-3.3,2.6-3.7c0.3-0.2,0.5-0.3,0.6-0.3s0.3,0.1,0.6,0.4c0.8,0.4,1.1,1,1.1,1.9s-0.2,2.4-0.5,4.4c-0.2,1.7-0.5,3-0.7,3.9
				c0.3-0.5,0.6-1.1,1-1.9c0.1-0.1,0.1-0.2,0.2-0.2c0.1,0,0.2,0.1,0.2,0.4C229.8,240.7,229.7,240.8,229.7,240.8z"/>
		</g>
	</g>
	<g>
		<g>
			<defs>
				<rect id="SVGID_133_" x="-145" y="-178" width="612" height="792"/>
			</defs>
			<clipPath id="SVGID_134_">
				<use xlink:href="#SVGID_133_"  style="overflow:visible;"/>
			</clipPath>
			<path class="st66" d="M238.9,222.9c0.3,0.2,0.4,0.4,0.4,0.7c0,0.2-0.1,0.3-0.3,0.3c0,0-0.1,0-0.2,0c-0.1,0-0.1,0-0.2,0
				c-0.3,0-0.8,0.5-1.3,1.6c-0.4,1-1,3.1-1.8,6.3c-0.1,0.3-0.1,0.5-0.1,0.5c0,0.1,0.1,0.1,0.4,0.2c0.5,0.1,1.3,0,2.2-0.1
				c0.3,0,0.5,0.1,0.5,0.6c0,0.3-0.1,0.5-0.4,0.5c-0.2,0-1.2,0.2-3,0.4c-1.1,4.6-1.8,8.4-2,11.6c0,0.2,0,0.3,0,0.4
				c0,0.4,0.1,0.7,0.2,0.7c0.2,0,1-0.9,2.2-2.6c0.1-0.2,0.3-0.3,0.4-0.3c0.1,0,0.2,0.1,0.2,0.2c0,0.2,0,0.3-0.1,0.5
				c-0.7,1.4-1.5,2.6-2.2,3.5c-0.3,0.4-0.6,0.6-0.8,0.6s-0.5-0.2-0.9-0.7c-0.5-0.2-0.8-0.6-0.8-1.2c0-0.1,0-0.2,0-0.3
				c0.3-3.4,1-7.5,2-12.4c-0.5-0.1-0.9-0.2-1.3-0.3c-0.2,0-0.3-0.2-0.3-0.5s0.1-0.5,0.3-0.5c0.2-0.1,0.5-0.2,1-0.4
				c0.3-0.1,0.6-0.3,0.9-0.6c1-4.3,1.7-7.1,2.3-8.4c0.3-0.7,0.7-1.1,1-1.1C237.7,222.1,238.2,222.4,238.9,222.9"/>
		</g>
	</g>
	<g>
		<g>
			<defs>
				<rect id="SVGID_135_" x="-145" y="-178" width="612" height="792"/>
			</defs>
			<clipPath id="SVGID_136_">
				<use xlink:href="#SVGID_135_"  style="overflow:visible;"/>
			</clipPath>
			<path class="st67" d="M238.9,222.9c0.3,0.2,0.4,0.4,0.4,0.7c0,0.2-0.1,0.3-0.3,0.3c0,0-0.1,0-0.2,0c-0.1,0-0.1,0-0.2,0
				c-0.3,0-0.8,0.5-1.3,1.6c-0.4,1-1,3.1-1.8,6.3c-0.1,0.3-0.1,0.5-0.1,0.5c0,0.1,0.1,0.1,0.4,0.2c0.5,0.1,1.3,0,2.2-0.1
				c0.3,0,0.5,0.1,0.5,0.6c0,0.3-0.1,0.5-0.4,0.5c-0.2,0-1.2,0.2-3,0.4c-1.1,4.6-1.8,8.4-2,11.6c0,0.2,0,0.3,0,0.4
				c0,0.4,0.1,0.7,0.2,0.7c0.2,0,1-0.9,2.2-2.6c0.1-0.2,0.3-0.3,0.4-0.3c0.1,0,0.2,0.1,0.2,0.2c0,0.2,0,0.3-0.1,0.5
				c-0.7,1.4-1.5,2.6-2.2,3.5c-0.3,0.4-0.6,0.6-0.8,0.6s-0.5-0.2-0.9-0.7c-0.5-0.2-0.8-0.6-0.8-1.2c0-0.1,0-0.2,0-0.3
				c0.3-3.4,1-7.5,2-12.4c-0.5-0.1-0.9-0.2-1.3-0.3c-0.2,0-0.3-0.2-0.3-0.5s0.1-0.5,0.3-0.5c0.2-0.1,0.5-0.2,1-0.4
				c0.3-0.1,0.6-0.3,0.9-0.6c1-4.3,1.7-7.1,2.3-8.4c0.3-0.7,0.7-1.1,1-1.1C237.7,222.1,238.2,222.4,238.9,222.9z"/>
		</g>
	</g>
	<g>
		<g>
			<defs>
				<rect id="SVGID_137_" x="-145" y="-178" width="612" height="792"/>
			</defs>
			<clipPath id="SVGID_138_">
				<use xlink:href="#SVGID_137_"  style="overflow:visible;"/>
			</clipPath>
			<path class="st68" d="M248.6,217.5c0.1,0.1,0.2,0.3,0.2,0.4c0,0.2-0.1,0.4-0.3,0.4c-0.1,0-0.2,0-0.3-0.1
				c-0.4-0.3-0.7-0.4-0.9-0.4c-0.6,0-1.2,0.8-1.9,2.4c-2.5,5.8-4.3,13.2-5.3,22.3c0,0.2-0.1,0.6-0.1,1c0.2-0.3,0.5-0.8,0.9-1.5
				c0.2-0.4,0.4-0.6,0.5-0.6c0.2,0,0.3,0.2,0.1,0.6c-0.9,1.8-1.5,3.6-1.7,5.6c-0.1,0.5-0.2,0.7-0.4,0.7c-0.1,0-0.2-0.1-0.3-0.2
				c-0.5-0.4-0.7-0.7-0.8-0.8c-0.2-0.3-0.3-0.6-0.3-1c0-0.2,0-0.5,0.1-0.8c1.1-8.3,2.4-15.3,4.1-21.1c1.3-4.4,2.4-7.2,3.4-8.5
				c0.3-0.4,0.5-0.5,0.8-0.5c0.2,0,0.6,0.2,1,0.7C247.7,216.5,248.2,217,248.6,217.5"/>
		</g>
	</g>
	<g>
		<g>
			<defs>
				<rect id="SVGID_139_" x="-145" y="-178" width="612" height="792"/>
			</defs>
			<clipPath id="SVGID_140_">
				<use xlink:href="#SVGID_139_"  style="overflow:visible;"/>
			</clipPath>
			<path class="st69" d="M248.6,217.5c0.1,0.1,0.2,0.3,0.2,0.4c0,0.2-0.1,0.4-0.3,0.4c-0.1,0-0.2,0-0.3-0.1
				c-0.4-0.3-0.7-0.4-0.9-0.4c-0.6,0-1.2,0.8-1.9,2.4c-2.5,5.8-4.3,13.2-5.3,22.3c0,0.2-0.1,0.6-0.1,1c0.2-0.3,0.5-0.8,0.9-1.5
				c0.2-0.4,0.4-0.6,0.5-0.6c0.2,0,0.3,0.2,0.1,0.6c-0.9,1.8-1.5,3.6-1.7,5.6c-0.1,0.5-0.2,0.7-0.4,0.7c-0.1,0-0.2-0.1-0.3-0.2
				c-0.5-0.4-0.7-0.7-0.8-0.8c-0.2-0.3-0.3-0.6-0.3-1c0-0.2,0-0.5,0.1-0.8c1.1-8.3,2.4-15.3,4.1-21.1c1.3-4.4,2.4-7.2,3.4-8.5
				c0.3-0.4,0.5-0.5,0.8-0.5c0.2,0,0.6,0.2,1,0.7C247.7,216.5,248.2,217,248.6,217.5z"/>
		</g>
	</g>
	<g>
		<g>
			<defs>
				<rect id="SVGID_141_" x="-145" y="-178" width="612" height="792"/>
			</defs>
			<clipPath id="SVGID_142_">
				<use xlink:href="#SVGID_141_"  style="overflow:visible;"/>
			</clipPath>
			<path class="st70" d="M253.1,234.3c-1.3,8.3-2.5,14.6-3.6,18.7c-2.2,8-4.6,12-7.4,12c-1.6,0-3.4-1.3-5.3-3.8
				c-0.2-0.2-0.2-0.5-0.2-0.7c0-0.4,0.1-0.6,0.4-0.6c0.1,0,0.3,0.1,0.4,0.2c1.5,1.8,2.8,2.7,4,2.7c2.1,0,4.1-2.5,5.9-7.6
				c1.4-4,2.6-9.3,3.6-16.1c0.1-0.5,0.2-1.2,0.3-2.2c-1,2.2-2,4.4-3.2,6.6c-1.1,2.1-2,3.5-2.7,4.3c-0.4,0.4-0.7,0.6-0.9,0.6
				s-0.4-0.1-0.5-0.4c-0.2-0.4-0.4-0.7-0.6-1c-0.1-0.2-0.1-0.3-0.1-0.4l0,0c0-0.2,0.1-0.3,0.2-0.3c0.4-0.8,0.9-2.7,1.2-5.5
				c0.3-2.2,0.5-4.3,0.6-6.3c0-0.5,0-0.7-0.1-0.7c0,0-0.2,0.2-0.6,0.7c-0.6,0.8-1,1.1-1,1.1c-0.1,0-0.2-0.1-0.2-0.3
				c0-0.1,0-0.2,0.1-0.3c0.2-0.3,0.5-1,1-2s0.8-1.5,1-1.5c0.1,0,0.3,0.1,0.5,0.2c0.5-0.1,0.7-0.2,0.8-0.2c0.3,0,0.5,0.3,0.5,1
				c0,1.1-0.2,3.3-0.7,6.6s-0.8,5.4-1.1,6.4c0.9-1,2.1-3,3.6-6c1.4-2.9,2.3-5.1,2.7-6.6c0-0.9,0.2-1.3,0.4-1.3s0.5,0.3,1.1,0.8
				C253.1,232.8,253.2,233.4,253.1,234.3"/>
		</g>
	</g>
	<g>
		<g>
			<defs>
				<rect id="SVGID_143_" x="-145" y="-178" width="612" height="792"/>
			</defs>
			<clipPath id="SVGID_144_">
				<use xlink:href="#SVGID_143_"  style="overflow:visible;"/>
			</clipPath>
			<path class="st71" d="M253.1,234.3c-1.3,8.3-2.5,14.6-3.6,18.7c-2.2,8-4.6,12-7.4,12c-1.6,0-3.4-1.3-5.3-3.8
				c-0.2-0.2-0.2-0.5-0.2-0.7c0-0.4,0.1-0.6,0.4-0.6c0.1,0,0.3,0.1,0.4,0.2c1.5,1.8,2.8,2.7,4,2.7c2.1,0,4.1-2.5,5.9-7.6
				c1.4-4,2.6-9.3,3.6-16.1c0.1-0.5,0.2-1.2,0.3-2.2c-1,2.2-2,4.4-3.2,6.6c-1.1,2.1-2,3.5-2.7,4.3c-0.4,0.4-0.7,0.6-0.9,0.6
				s-0.4-0.1-0.5-0.4c-0.2-0.4-0.4-0.7-0.6-1c-0.1-0.2-0.1-0.3-0.1-0.4l0,0c0-0.2,0.1-0.3,0.2-0.3c0.4-0.8,0.9-2.7,1.2-5.5
				c0.3-2.2,0.5-4.3,0.6-6.3c0-0.5,0-0.7-0.1-0.7c0,0-0.2,0.2-0.6,0.7c-0.6,0.8-1,1.1-1,1.1c-0.1,0-0.2-0.1-0.2-0.3
				c0-0.1,0-0.2,0.1-0.3c0.2-0.3,0.5-1,1-2s0.8-1.5,1-1.5c0.1,0,0.3,0.1,0.5,0.2c0.5-0.1,0.7-0.2,0.8-0.2c0.3,0,0.5,0.3,0.5,1
				c0,1.1-0.2,3.3-0.7,6.6s-0.8,5.4-1.1,6.4c0.9-1,2.1-3,3.6-6c1.4-2.9,2.3-5.1,2.7-6.6c0-0.9,0.2-1.3,0.4-1.3s0.5,0.3,1.1,0.8
				C253.1,232.8,253.2,233.4,253.1,234.3z"/>
		</g>
	</g>
	<g>
		<g>
			<defs>
				<rect id="SVGID_145_" x="-145" y="-178" width="612" height="792"/>
			</defs>
			<clipPath id="SVGID_146_">
				<use xlink:href="#SVGID_145_"  style="overflow:visible;"/>
			</clipPath>
			<line class="st72" x1="29.2" y1="55" x2="169.8" y2="33.8"/>
		</g>
	</g>
	<g>
		<g>
			<defs>
				<rect id="SVGID_147_" x="-145" y="-178" width="612" height="792"/>
			</defs>
			<clipPath id="SVGID_148_">
				<use xlink:href="#SVGID_147_"  style="overflow:visible;"/>
			</clipPath>
			<path class="st73" d="M152.4,97c0,3.2-0.3,6.3-0.9,9.3c-0.2,0.9-0.4,1.3-0.8,1.3c-0.2,0-0.8-0.5-1.6-1.5
				c-0.4-0.5-0.5-1.2-0.3-2.1c0.5-2.2,0.7-4,0.7-5.3c0-0.5-0.1-0.7-0.2-0.7c-0.2,0-0.5,0.4-1,1.3c-3.6,6.6-6.3,14-8,22.3
				c-0.6,2.6-1.1,3.9-1.4,3.9c-0.2,0-0.8-0.4-2-1.3c-0.6-0.4-0.8-1.2-0.6-2.4c1.2-7.5,2.6-14.7,4.4-21.5c-1.3,1.9,0.1,3.5-0.3,4.2
				c-0.1,0.3,0.8,1.1,0.5,1.1s-1.1-0.5-1.1-0.8c0-0.2-0.1-0.3,0-0.6c0.8-1.5-0.4-4.4,1-7.4c0.4-1.1,0.9-1.6,1.3-1.6
				c0.3,0,0.9,0.3,1.9,1c0.5,0.4,0.6,0.9,0.3,1.6c-0.4,0.7-1.1,3.2-2.1,7.6c-1,4.2-1.7,7.5-2.1,9.9c2.3-7.4,5-14,8-19.6
				c0.6-1.1,1.1,0.1,0.9-0.8c-0.1-0.3,2.2-0.8,2.7-0.3c0.7,0.1,0.6,0.7,0.8,0.9C152.6,95.6,152.4,96.1,152.4,97"/>
		</g>
	</g>
	<g>
		<g>
			<defs>
				<rect id="SVGID_149_" x="-145" y="-178" width="612" height="792"/>
			</defs>
			<clipPath id="SVGID_150_">
				<use xlink:href="#SVGID_149_"  style="overflow:visible;"/>
			</clipPath>
			<path class="st74" d="M152.4,97c0,3.2-0.3,6.3-0.9,9.3c-0.2,0.9-0.4,1.3-0.8,1.3c-0.2,0-0.8-0.5-1.6-1.5
				c-0.4-0.5-0.5-1.2-0.3-2.1c0.5-2.2,0.7-4,0.7-5.3c0-0.5-0.1-0.7-0.2-0.7c-0.2,0-0.5,0.4-1,1.3c-3.6,6.6-6.3,14-8,22.3
				c-0.6,2.6-1.1,3.9-1.4,3.9c-0.2,0-0.8-0.4-2-1.3c-0.6-0.4-0.8-1.2-0.6-2.4c1.2-7.5,2.6-14.7,4.4-21.5c-1.3,1.9,0.1,3.5-0.3,4.2
				c-0.1,0.3,0.8,1.1,0.5,1.1s-1.1-0.5-1.1-0.8c0-0.2-0.1-0.3,0-0.6c0.8-1.5-0.4-4.4,1-7.4c0.4-1.1,0.9-1.6,1.3-1.6
				c0.3,0,0.9,0.3,1.9,1c0.5,0.4,0.6,0.9,0.3,1.6c-0.4,0.7-1.1,3.2-2.1,7.6c-1,4.2-1.7,7.5-2.1,9.9c2.3-7.4,5-14,8-19.6
				c0.6-1.1,1.1,0.1,0.9-0.8c-0.1-0.3,2.2-0.8,2.7-0.3c0.7,0.1,0.6,0.7,0.8,0.9C152.6,95.6,152.4,96.1,152.4,97z"/>
		</g>
	</g>
</g>
</svg>
