<?xml version="1.0" encoding="utf-8"?>
<!-- Generator: Adobe Illustrator 15.0.0, SVG Export Plug-In . SVG Version: 6.00 Build 0)  -->
<!DOCTYPE svg PUBLIC "-//W3C//DTD SVG 1.1//EN" "http://www.w3.org/Graphics/SVG/1.1/DTD/svg11.dtd">
<svg version="1.1" id="Layer_1" xmlns="http://www.w3.org/2000/svg" xmlns:xlink="http://www.w3.org/1999/xlink" x="0px" y="0px"
	 width="814.73px" height="225.639px" viewBox="0 0 814.73 225.639" enable-background="new 0 0 814.73 225.639"
	 xml:space="preserve">
<path fill="#46166B" stroke="#000000" d="M201.316,14.585H35.797C18.143,14.775,3.86,40.222,3.751,71.67v84.384
	c0.108,31.45,14.392,56.896,32.046,57.084h165.519c17.654-0.189,31.939-25.635,32.046-57.084V71.67
	C233.362,40.143,219.014,14.585,201.316,14.585z"/>
<g>
	<defs>
		<rect id="SVGID_1_" x="2.169" y="-12" width="233.661" height="184.689"/>
	</defs>
	<clipPath id="SVGID_2_">
		<use xlink:href="#SVGID_1_"  overflow="visible"/>
	</clipPath>
</g>
<g>
	<defs>
		<rect id="SVGID_3_" y="-4.523" width="189.753" height="215.662"/>
	</defs>
	<clipPath id="SVGID_4_">
		<use xlink:href="#SVGID_3_"  overflow="visible"/>
	</clipPath>
	<path display="none" clip-path="url(#SVGID_4_)" fill="none" stroke="#46166B" d="M252.137,345.184c0-0.458-0.15-0.769-0.45-0.939
		c-0.064-0.036-0.397-0.126-0.995-0.271c-0.404-0.265-0.71-0.398-0.918-0.398c-0.195,0-0.396,0.103-0.604,0.308
		c-0.689,0.711-1.339,1.462-1.952,2.258c-0.117,0.145-0.176,0.265-0.176,0.361c0,0.325,0.214,0.307,0.645-0.054l1.21-1.047
		c0.299-0.265,0.507-0.398,0.625-0.398c0.156,0,0.214,0.271,0.175,0.813c-0.104,1.264-0.566,3.197-1.386,5.798
		c-0.859,2.686-1.639,4.601-2.342,5.744c-0.143,0.241-0.215,0.398-0.215,0.47c0,0.084,0.169,0.211,0.507,0.379
		c0.534,0.278,0.957,0.415,1.268,0.415c0.313,0,0.528-0.137,0.645-0.415c0.365-0.89,0.937-1.914,1.718-3.07
		c1.027-1.518,1.573-2.342,1.639-2.474c0.156-0.337,0.13-0.506-0.079-0.506c-0.09,0-0.182,0.055-0.272,0.163
		c-0.664,0.831-1.184,1.402-1.562,1.715c1.313-3.78,2.127-6.484,2.44-8.109C252.11,345.647,252.137,345.401,252.137,345.184z
		 M253.288,337.236c-0.13,0-0.345,0.157-0.644,0.469c-0.377,0.422-1.166,1.115-2.362,2.078c-0.117-0.023-0.196-0.011-0.234,0.037
		c-0.026,0.047-0.017,0.111,0.029,0.189c0.045,0.079,0.114,0.154,0.205,0.226c0.287,0.192,0.624,0.325,1.015,0.397
		c0.69,0.133,1.406-0.037,2.147-0.506c1.119-0.734,1.679-1.276,1.679-1.626c0-0.179-0.104-0.341-0.312-0.486
		C254.029,337.496,253.522,337.236,253.288,337.236z"/>
	<path display="none" clip-path="url(#SVGID_4_)" fill="none" stroke="#46166B" d="M259.414,351.053
		c-0.65-1.854-1.041-3.025-1.171-3.512c-0.13-0.487-0.195-0.894-0.195-1.219c0-0.832,0.702-1.53,2.108-2.096
		c0.207-0.083,0.311-0.199,0.311-0.344c0-0.252-0.143-0.348-0.429-0.288c-2.902,0.59-4.404,1.637-4.509,3.142
		c-0.052,0.627,0.327,1.874,1.132,3.739c0.82,1.915,1.23,3.251,1.23,4.01c0,0.422-0.085,0.776-0.255,1.066
		c-0.286,0.565-0.768,0.921-1.443,1.065c-1.809,0.24-3.175,0.391-4.099,0.451c-0.677,0.06-1.041,0.253-1.094,0.578
		c0.066,0.301,0.254,0.475,0.567,0.524c1.118,0.157,2.062,0.289,2.829,0.397c0.43,0.06,0.833,0.078,1.21,0.055
		c0.586-0.049,1.028-0.218,1.328-0.507c0.195-0.192,0.402-0.541,0.624-1.047c1.771-0.529,2.635-1.517,2.597-2.962
		C260.142,353.409,259.895,352.391,259.414,351.053z M262.673,342.962c-0.182,0-0.593,0.15-1.23,0.451
		c-0.364,0.121-0.511,0.412-0.438,0.876c0.071,0.464-0.05,1.292-0.361,2.483c-0.052,0.217-0.078,0.392-0.078,0.524
		c0,0.241,0.097,0.36,0.293,0.36c0.117,0,0.415-0.083,0.897-0.252c0.377-0.12,0.599-0.21,0.663-0.271
		c0.144-0.12,0.274-0.386,0.392-0.795c0.312-1.191,0.468-2.059,0.468-2.601C263.278,343.222,263.076,342.962,262.673,342.962z"/>
	<path display="none" clip-path="url(#SVGID_4_)" fill="none" stroke="#46166B" d="M272.547,334.438
		c-0.521,0-1.009,0.337-1.464,1.012c-0.793,1.18-1.886,3.763-3.278,7.748c-0.404,0.229-0.819,0.408-1.25,0.542
		c-0.702,0.205-1.183,0.337-1.444,0.398c-0.259,0.059-0.39,0.228-0.39,0.505c0,0.253,0.124,0.396,0.371,0.434
		c0.56,0.084,1.185,0.169,1.875,0.252c-1.405,4.54-2.349,8.362-2.831,11.47c-0.026,0.108-0.04,0.205-0.04,0.288
		c0,0.542,0.372,0.904,1.114,1.084c0.598,0.421,1.041,0.632,1.327,0.632c0.287,0,0.644-0.186,1.073-0.559
		c1.015-0.903,2.049-2,3.103-3.288c0.157-0.192,0.215-0.36,0.177-0.505c-0.04-0.133-0.144-0.199-0.313-0.199
		c-0.194,0-0.397,0.097-0.604,0.289c-1.77,1.578-2.83,2.367-3.182,2.367c-0.221,0-0.332-0.206-0.332-0.614
		c0-0.121,0.006-0.259,0.02-0.415c0.338-2.928,1.288-6.503,2.85-10.729c2.602-0.181,4.04-0.29,4.312-0.326
		c0.338-0.061,0.507-0.223,0.507-0.488c0-0.386-0.221-0.559-0.663-0.523c-1.289,0.108-2.316,0.132-3.084,0.071
		c-0.299-0.011-0.468-0.059-0.507-0.143c-0.026-0.049,0.013-0.205,0.117-0.47c1.106-2.986,1.972-4.924,2.596-5.815
		c0.703-0.999,1.301-1.499,1.795-1.499c0.053,0,0.135,0.008,0.245,0.026c0.109,0.018,0.191,0.027,0.244,0.027
		c0.247,0,0.372-0.078,0.372-0.235c0-0.229-0.184-0.434-0.547-0.614C273.762,334.679,273.041,334.438,272.547,334.438z"/>
	<path clip-path="url(#SVGID_4_)" fill="#FFFFFF" d="M102.366,20.498c-1.474,2.447-3.126,7.641-4.957,15.588
		c-2.471,10.679-26.117,149.857-27.656,164.93c-0.107,1.161,0.006,1.991,0.338,2.49c0.666,0.974,1.111,1.46,1.337,1.46
		c0.252,0,0.525-0.733,0.816-2.204c1.078-5.136,2.602-10.169,4.57-15.095c1.489-3.739,2.746-6.342,3.771-7.813
		c0.559-0.803,0.925-1.206,1.097-1.206c0.265,0,0.379,0.722,0.339,2.17c-0.136,5.062-1.351,12.72-3.652,22.98
		c-0.176,0.711-0.128,1.232,0.137,1.565c0.654,0.83,1.153,1.246,1.502,1.246c0.305,0,0.547-0.381,0.72-1.14
		c0.412-1.612,0.673-2.606,0.78-2.985c1.276-3.843,1.061-12.559,1.832-14.551c0.173-0.45-0.577,3.978-0.577,3.622
		c0-0.309-0.152,1.084-0.089,0.682c3.238-20.14-0.948,1.794,0,0c-0.889,1.909-0.124,3.785-0.535,4.771
		c1.127-5.993,1.804-11.098,2.03-15.32c0.027-0.449,0.041-0.859,0.041-1.241c0-1.35-0.173-2.301-0.519-2.847
		c-0.093-0.141-0.158-0.33-0.864-0.851c-0.242-0.339-1.266-0.563-1.348-0.563c-0.279,0-0.702-0.099-1.301,0.85
		c-2.794,4.432-5.273,10.362-7.442,17.78c1.686-16.543,26.756-158.262,29.429-166.464C104.842,20.151,102.366,20.498,102.366,20.498
		"/>
	<path display="none" clip-path="url(#SVGID_4_)" fill="none" stroke="#46166B" stroke-width="8" d="M102.366,20.498
		c-1.474,2.447-3.126,7.641-4.957,15.588c-2.471,10.679-26.117,149.857-27.656,164.93c-0.107,1.161,0.006,1.991,0.338,2.49
		c0.666,0.974,1.111,1.46,1.337,1.46c0.252,0,0.525-0.733,0.816-2.204c1.078-5.136,2.602-10.169,4.57-15.095
		c1.489-3.739,2.746-6.342,3.771-7.813c0.559-0.803,0.925-1.206,1.097-1.206c0.265,0,0.379,0.722,0.339,2.17
		c-0.136,5.062-1.351,12.72-3.652,22.98c-0.176,0.711-0.128,1.232,0.137,1.565c0.654,0.83,1.153,1.246,1.502,1.246
		c0.305,0,0.547-0.381,0.72-1.14c0.412-1.612,0.673-2.606,0.78-2.985c1.276-3.843,1.061-12.559,1.832-14.551
		c0.173-0.45-0.577,3.978-0.577,3.622c0-0.309-0.152,1.084-0.089,0.682c3.238-20.14-0.948,1.794,0,0
		c-0.889,1.909-0.124,3.785-0.535,4.771c1.127-5.993,1.804-11.098,2.03-15.32c0.027-0.449,0.041-0.859,0.041-1.241
		c0-1.35-0.173-2.301-0.519-2.847c-0.093-0.141-0.158-0.33-0.864-0.851c-0.242-0.339-1.266-0.563-1.348-0.563
		c-0.279,0-0.702-0.099-1.301,0.85c-2.794,4.432-5.273,10.362-7.442,17.78c1.686-16.543,26.756-158.262,29.429-166.464
		C104.842,20.151,102.366,20.498,102.366,20.498z"/>
	<line display="none" clip-path="url(#SVGID_4_)" fill="#46166B" x1="42.302" y1="71.401" x2="150.482" y2="50.881"/>
	
		<line clip-path="url(#SVGID_4_)" fill="none" stroke="#FFFFFF" stroke-width="4" stroke-miterlimit="10" x1="43.392" y1="71.401" x2="149.392" y2="50.881"/>
</g>
<g>
	<path fill="#FFFFFF" d="M104.452,87.524c0.199,0.22,0.299,0.462,0.299,0.727c0,0.396-0.177,0.595-0.529,0.595
		c-0.154,0-0.315-0.066-0.483-0.198c-0.706-0.506-1.235-0.76-1.588-0.76c-0.936,0-1.979,1.344-3.13,4.031
		c-4.05,9.473-7.05,21.875-8.999,37.207c2.501-6.895,5.362-12.402,8.584-16.522c0.69-0.881,1.197-1.322,1.519-1.322
		c0.092,0,0.476,0.309,1.151,0.925c0.813,0.484,1.273,0.793,1.381,0.925c0.398,0.507,0.598,1.388,0.598,2.644
		c0,0.353-0.016,0.738-0.046,1.156c-0.261,3.921-1.044,8.669-2.348,14.242c0.475-0.925,1.228-2.28,2.256-4.064
		c0.245-0.374,0.452-0.562,0.621-0.562c0.168,0,0.253,0.144,0.253,0.43c0,0.331-0.1,0.705-0.299,1.124
		c-0.89,1.85-2.071,4.56-3.544,8.128c-0.123,0.353-0.422,1.278-0.897,2.775c-0.2,0.705-0.476,1.058-0.829,1.058
		c-0.399,0-0.975-0.386-1.726-1.157c-0.307-0.308-0.361-0.793-0.161-1.454c2.639-9.516,4.035-16.621,4.188-21.313
		c0.046-1.344-0.084-2.016-0.391-2.016c-0.2,0-0.622,0.375-1.266,1.124c-1.182,1.366-2.632,3.789-4.35,7.27
		c-2.271,4.582-4.027,9.263-5.27,14.043c-0.337,1.366-0.652,2.048-0.943,2.048c-0.261,0-0.775-0.451-1.542-1.355
		c-0.384-0.462-0.514-1.233-0.391-2.312c1.779-13.988,4.096-25.939,6.95-35.852c2.117-7.379,4.027-12.204,5.73-14.473
		c0.429-0.572,0.851-0.859,1.266-0.859c0.429,0,0.974,0.353,1.634,1.058C102.917,85.718,103.684,86.621,104.452,87.524z"/>
	<path fill="#FFFFFF" d="M123.252,114.851c-2.041,5.442-3.567,11.83-4.58,19.166c0.43-1.079,0.952-2.456,1.565-4.13
		c0.077-0.308,0.2-0.463,0.369-0.463c0.23,0,0.345,0.209,0.345,0.628c0,0.132-0.023,0.276-0.069,0.43
		c-0.982,3.216-1.626,5.695-1.933,7.435c-0.184,1.101-0.43,1.652-0.736,1.652c-0.307,0-0.906-0.43-1.795-1.289
		c-0.476-0.484-0.637-1.343-0.483-2.577c0.645-4.802,1.419-8.977,2.325-12.523c-2.961,6.917-5.447,12.017-7.457,15.299
		c-0.445,0.727-0.928,1.09-1.45,1.09c-0.43,0-0.937-0.253-1.519-0.76c-1.059-0.264-1.588-1.057-1.588-2.379
		c0-0.242,0.015-0.506,0.046-0.793c0.383-6.3,1.181-11.532,2.394-15.696c-0.261,0.353-0.652,0.871-1.174,1.553
		c-0.199,0.243-0.353,0.309-0.46,0.198c-0.123-0.132-0.1-0.385,0.069-0.76c0.828-1.74,1.319-2.885,1.473-3.437
		c0.476-1.718,0.974-3.051,1.496-3.998c0.276-0.484,0.567-0.727,0.874-0.727c0.415,0,1.021,0.353,1.818,1.058
		c0.215,0.199,0.322,0.396,0.322,0.595l-0.506,1.091c-0.767,1.674-1.58,4.625-2.439,8.855c-0.936,4.582-1.412,8.316-1.427,11.202
		c0,0.947,0.139,1.421,0.415,1.421c0.246,0,0.645-0.408,1.197-1.223c1.181-1.806,2.892-5.221,5.132-10.243
		c1.979-4.428,3.176-7.313,3.59-8.658c0.69-2.247,1.25-3.568,1.68-3.965c0.276-0.265,0.521-0.396,0.736-0.396
		s0.629,0.231,1.243,0.694c0.613,0.462,0.92,0.804,0.92,1.024c0,0.066-0.054,0.154-0.161,0.264
		C123.375,114.598,123.298,114.719,123.252,114.851z"/>
	<path fill="#FFFFFF" d="M138.853,113.959c0,2.886-0.268,5.639-0.805,8.261c-0.169,0.793-0.399,1.189-0.691,1.189
		c-0.214,0-0.69-0.44-1.426-1.322c-0.368-0.44-0.46-1.068-0.276-1.883c0.429-2.004,0.645-3.613,0.645-4.824
		c0-0.418-0.062-0.628-0.185-0.628c-0.184,0-0.483,0.396-0.897,1.189c-3.191,5.97-5.578,12.667-7.158,20.09
		c-0.506,2.357-0.936,3.536-1.288,3.536c-0.139,0-0.744-0.386-1.818-1.157c-0.522-0.374-0.698-1.101-0.529-2.181
		c1.212-7.622,2.516-14.054,3.912-19.297c-1.135,1.718-1.856,2.897-2.163,3.536c-0.123,0.264-0.292,0.396-0.506,0.396
		c-0.261,0-0.391-0.166-0.391-0.496c0-0.198,0.061-0.418,0.184-0.661c0.751-1.3,1.756-3.283,3.015-5.948
		c0.383-0.969,0.767-1.454,1.151-1.454c0.276,0,0.836,0.309,1.68,0.925c0.475,0.353,0.552,0.826,0.229,1.42
		c-0.337,0.64-0.974,2.897-1.91,6.774c-0.89,3.767-1.503,6.719-1.841,8.855c2.086-6.675,4.457-12.567,7.111-17.678
		c0.506-0.969,0.913-1.454,1.22-1.454c0.276,0,0.652,0.265,1.128,0.793c0.644,0.111,1.051,0.253,1.22,0.43
		C138.723,112.637,138.853,113.166,138.853,113.959z"/>
	<path fill="#FFFFFF" d="M146.238,131.307c0.046,2.643-0.975,4.45-3.061,5.419c-0.261,0.925-0.506,1.564-0.736,1.917
		c-0.354,0.528-0.875,0.836-1.565,0.925c-0.445,0.044-0.92,0.011-1.427-0.1c-0.905-0.198-2.018-0.44-3.337-0.727
		c-0.368-0.088-0.59-0.407-0.667-0.958c0.062-0.595,0.492-0.947,1.289-1.058c1.089-0.11,2.7-0.385,4.833-0.826
		c0.798-0.264,1.365-0.914,1.703-1.95c0.199-0.528,0.299-1.178,0.299-1.949c0-1.388-0.483-3.833-1.45-7.336
		c-0.951-3.414-1.396-5.694-1.334-6.84c0.123-2.753,1.895-4.67,5.316-5.75c0.337-0.11,0.506,0.066,0.506,0.529
		c0,0.264-0.123,0.474-0.368,0.628c-1.657,1.036-2.486,2.313-2.486,3.833c0,0.595,0.077,1.338,0.23,2.23
		c0.153,0.893,0.614,3.035,1.381,6.427C145.931,128.167,146.223,130.029,146.238,131.307z M149.92,112.34
		c0,0.991-0.184,2.577-0.552,4.758c-0.138,0.75-0.292,1.234-0.461,1.454c-0.077,0.11-0.337,0.276-0.782,0.496
		c-0.568,0.308-0.92,0.462-1.059,0.462c-0.23,0-0.345-0.22-0.345-0.661c0-0.242,0.031-0.562,0.092-0.958
		c0.369-2.181,0.51-3.695,0.426-4.543c-0.084-0.848,0.088-1.382,0.518-1.603c0.752-0.55,1.235-0.826,1.45-0.826
		C149.682,110.919,149.92,111.393,149.92,112.34z"/>
	<path fill="#FFFFFF" d="M178.777,87.524c0.185,0.198,0.276,0.418,0.276,0.661c0,0.418-0.184,0.627-0.552,0.627
		c-0.138,0-0.284-0.055-0.438-0.165c-0.721-0.506-1.258-0.76-1.611-0.76c-0.952,0-2.002,1.344-3.153,4.031
		c-4.22,9.892-7.296,23.064-9.229,39.52c0.399-0.55,0.936-1.409,1.611-2.577c0.398-0.683,0.69-1.024,0.875-1.024
		c0.414,0,0.453,0.342,0.115,1.024c-1.473,2.93-2.447,6.091-2.923,9.483c-0.184,0.815-0.414,1.223-0.69,1.223
		c-0.138,0-0.307-0.1-0.506-0.297c-0.767-0.749-1.196-1.189-1.289-1.322c-0.307-0.418-0.46-0.98-0.46-1.685
		c0-0.375,0.038-0.815,0.115-1.322c0.66-5.089,1.204-8.877,1.634-11.367c-1.503,3.106-3.203,6.207-5.097,9.301
		c-1.896,3.095-3.272,5.05-4.131,5.865c-0.66,0.639-1.151,0.958-1.473,0.958c-0.276,0-0.699-0.32-1.266-0.958
		c-0.998-0.881-1.496-1.905-1.496-3.073c0-0.198,0.016-0.418,0.046-0.661c0.322-3.282,1.346-7.088,3.073-11.417
		c1.726-4.329,3.701-7.969,5.926-10.921c0.721-0.969,1.365-1.442,1.933-1.421c0.599,0.044,1.665,1.091,3.199,3.139
		c0.138,0.176,0.207,0.364,0.207,0.562c0,0.353-0.161,0.528-0.483,0.528c-0.107,0-0.223-0.033-0.345-0.099
		c-1.074-0.661-1.949-0.639-2.624,0.066c-1.442,1.542-3.03,4.218-4.764,8.029c-2.011,4.406-3.192,8.372-3.544,11.896
		c-0.077,0.837,0.077,1.255,0.46,1.255c0.506,0,1.127-0.517,1.864-1.553c1.703-2.4,3.536-5.419,5.5-9.054
		c2.01-3.767,3.299-6.609,3.866-8.525c0.322-1.057,0.576-2.07,0.76-3.04c1.596-8.106,3.375-15.035,5.339-20.784
		c1.534-4.494,2.884-7.512,4.05-9.054c0.43-0.595,0.844-0.892,1.243-0.892c0.43,0,0.982,0.363,1.657,1.09
		C177.219,85.718,177.995,86.621,178.777,87.524z"/>
	<path fill="#FFFFFF" d="M185.265,116.801c-1.412,5.617-2.386,10.332-2.923,14.142c0.23-0.308,0.533-0.782,0.909-1.421
		c0.375-0.638,0.61-1.013,0.702-1.123c0.215-0.397,0.445-0.595,0.69-0.595c0.23,0,0.346,0.165,0.346,0.496
		c0,0.199-0.062,0.43-0.184,0.694c-1.442,3.062-2.401,6.158-2.876,9.285c-0.139,0.881-0.346,1.322-0.622,1.322
		c-0.261,0-0.744-0.353-1.45-1.058c-0.414-0.396-0.652-0.727-0.713-0.991c-0.077-0.242-0.077-0.727,0-1.454
		c0.645-5.595,1.45-10.244,2.417-13.944c-1.335,3.106-3.153,6.542-5.455,10.31c-2.01,3.283-3.46,5.375-4.35,6.278
		c-0.644,0.639-1.136,0.958-1.473,0.958c-0.276,0-0.699-0.32-1.266-0.958c-0.813-0.705-1.22-1.674-1.22-2.908
		c0-0.242,0.016-0.518,0.046-0.826c0.276-3.26,1.273-7.055,2.992-11.383c1.718-4.329,3.69-7.98,5.915-10.954
		c0.721-0.969,1.365-1.442,1.933-1.421c0.552,0.044,1.604,1.091,3.153,3.139c0.138,0.176,0.208,0.364,0.208,0.562
		c0,0.353-0.161,0.528-0.483,0.528c-0.123,0-0.238-0.033-0.345-0.099c-1.089-0.661-1.964-0.639-2.624,0.066
		c-1.442,1.52-3.038,4.196-4.787,8.029c-2.025,4.406-3.245,8.372-3.659,11.896c-0.015,0.154-0.023,0.297-0.023,0.43
		c0,0.55,0.153,0.825,0.46,0.825c0.521,0,1.143-0.517,1.864-1.553c1.718-2.4,3.56-5.419,5.523-9.054
		c2.01-3.767,3.298-6.609,3.866-8.525c0.415-1.409,0.683-2.4,0.806-2.974c0.199-0.991,0.414-1.487,0.644-1.487
		c0.23,0,0.767,0.452,1.611,1.355c0.353,0.375,0.544,0.716,0.575,1.024C185.502,115.677,185.434,116.14,185.265,116.801z"/>
	<path fill="#FFFFFF" d="M204.317,115.941c-2.132,14.121-4.135,24.683-6.006,31.688c-3.621,13.614-7.779,20.421-12.474,20.421
		c-2.746,0-5.7-2.147-8.86-6.443c-0.276-0.375-0.414-0.771-0.414-1.189c0-0.661,0.215-0.992,0.644-0.992
		c0.215,0,0.422,0.121,0.622,0.364c2.501,3.062,4.733,4.593,6.697,4.593c3.605,0,6.881-4.318,9.827-12.953
		c2.317-6.763,4.334-15.838,6.053-27.228c0.107-0.814,0.284-2.06,0.529-3.733c-1.611,3.767-3.414,7.479-5.408,11.135
		c-1.918,3.525-3.429,5.948-4.534,7.27c-0.614,0.728-1.104,1.091-1.473,1.091c-0.292,0-0.59-0.231-0.897-0.694
		c-0.322-0.595-0.652-1.178-0.99-1.751c-0.153-0.265-0.23-0.506-0.23-0.727c0-0.021,0-0.043,0-0.066
		c0.031-0.265,0.168-0.451,0.415-0.562c0.736-1.432,1.427-4.527,2.071-9.285c0.491-3.745,0.829-7.303,1.013-10.673
		c0.03-0.793-0.039-1.19-0.208-1.19c-0.046,0-0.407,0.396-1.082,1.19c-1.074,1.3-1.657,1.949-1.749,1.949
		c-0.215,0-0.322-0.154-0.322-0.463c0-0.154,0.046-0.308,0.138-0.462c0.261-0.463,0.844-1.619,1.749-3.469
		c0.813-1.652,1.358-2.479,1.634-2.479c0.215,0,0.506,0.132,0.875,0.396c0.783-0.176,1.22-0.264,1.312-0.264
		c0.521,0,0.782,0.573,0.782,1.718c0,1.917-0.383,5.667-1.151,11.251c-0.767,5.584-1.396,9.192-1.887,10.822
		c1.534-1.74,3.529-5.155,5.984-10.243c2.393-4.957,3.881-8.691,4.465-11.202c0.03-1.476,0.252-2.214,0.667-2.214
		c0.322,0,0.92,0.474,1.795,1.421C204.394,113.496,204.532,114.487,204.317,115.941z"/>
</g>
<g display="none">
	<defs>
		<rect id="SVGID_5_" x="7" width="800" height="800"/>
	</defs>
	<clipPath id="SVGID_6_" display="inline">
		<use xlink:href="#SVGID_5_"  overflow="visible"/>
	</clipPath>
	<path display="inline" clip-path="url(#SVGID_6_)" fill="none" stroke="#46166B" stroke-width="6" d="M211.83,195.052
		c-1.368-1.466-2.498-2.2-3.388-2.2c-0.859,0-1.735,0.596-2.625,1.787c-3.532,4.72-7.493,14.756-11.884,30.108
		c-5.917,20.622-10.722,45.483-14.412,74.582c-0.255,2.247,0.015,3.85,0.811,4.812c1.591,1.88,2.657,2.819,3.198,2.819
		c0.604,0,1.256-1.419,1.957-4.262c2.577-9.944,6.22-19.682,10.929-29.215c3.563-7.24,6.57-12.281,9.02-15.123
		c1.336-1.558,2.211-2.337,2.625-2.337c0.636,0,0.907,1.398,0.811,4.193c-0.318,9.761-3.214,24.54-8.686,44.337
		c-0.414,1.375-0.302,2.383,0.334,3.024c1.559,1.604,2.752,2.406,3.58,2.406c0.731,0,1.304-0.733,1.718-2.2
		c0.986-3.116,1.606-5.04,1.861-5.774c3.054-7.423,5.504-13.06,7.349-16.909c0.414-0.87,0.621-1.649,0.621-2.337
		c0-0.595-0.175-0.894-0.525-0.894c-0.351,0-0.779,0.39-1.288,1.168c-2.132,3.712-3.692,6.53-4.678,8.455
		c2.704-11.594,4.327-21.469,4.869-29.627c0.063-0.87,0.095-1.672,0.095-2.405c0-2.613-0.414-4.445-1.24-5.5
		c-0.223-0.274-1.178-0.916-2.863-1.924c-1.401-1.283-2.196-1.924-2.387-1.924c-0.668,0-1.718,0.916-3.149,2.749
		c-6.682,8.571-12.616,20.027-17.802,34.371c4.04-31.896,10.261-57.695,18.661-77.401c2.386-5.59,4.549-8.386,6.49-8.386
		c0.731,0,1.83,0.527,3.293,1.581c0.35,0.274,0.684,0.412,1.002,0.412c0.732,0,1.098-0.412,1.098-1.237
		c0-0.549-0.208-1.053-0.621-1.512C215.011,198.811,213.42,196.932,211.83,195.052z"/>
	<path display="inline" clip-path="url(#SVGID_6_)" fill="none" stroke="#46166B" stroke-width="6" d="M255.968,256.78
		c0.222-0.229,0.334-0.413,0.334-0.55c0-0.458-0.637-1.168-1.909-2.131c-1.273-0.962-2.132-1.443-2.578-1.443
		s-0.955,0.275-1.527,0.825c-0.891,0.825-2.052,3.575-3.484,8.249c-0.859,2.795-3.341,8.799-7.445,18.009
		c-4.646,10.449-8.193,17.552-10.643,21.31c-1.146,1.696-1.973,2.544-2.481,2.544c-0.573,0-0.86-0.985-0.86-2.957
		c0.031-6.002,1.018-13.771,2.959-23.303c1.781-8.799,3.467-14.939,5.059-18.422l1.05-2.269c0-0.412-0.224-0.824-0.668-1.236
		c-1.654-1.466-2.911-2.2-3.771-2.2c-0.636,0-1.241,0.505-1.813,1.512c-1.082,1.971-2.117,4.743-3.103,8.317
		c-0.318,1.146-1.336,3.53-3.054,7.149c-0.351,0.78-0.398,1.307-0.144,1.582c0.222,0.23,0.541,0.092,0.955-0.413
		c1.082-1.42,1.893-2.497,2.435-3.23c-2.515,8.661-4.169,19.545-4.964,32.651c-0.063,0.597-0.095,1.146-0.095,1.65
		c0,2.75,1.097,4.399,3.293,4.949c1.208,1.054,2.259,1.582,3.149,1.582c1.082,0,2.083-0.756,3.007-2.268
		c4.167-6.828,9.321-17.437,15.462-31.827c-1.877,7.379-3.483,16.063-4.82,26.053c-0.318,2.567,0.016,4.354,1.002,5.361
		c1.845,1.788,3.085,2.681,3.723,2.681c0.636,0,1.145-1.146,1.527-3.438c0.636-3.619,1.972-8.775,4.009-15.466
		c0.095-0.32,0.143-0.619,0.143-0.894c0-0.87-0.239-1.306-0.716-1.306c-0.35,0-0.604,0.321-0.763,0.962
		c-1.273,3.484-2.355,6.348-3.246,8.593c2.1-15.261,5.266-28.549,9.497-39.869C255.586,257.261,255.746,257.01,255.968,256.78z"/>
	<path display="inline" clip-path="url(#SVGID_6_)" fill="none" stroke="#46166B" stroke-width="6" d="M286.934,252.381
		c-0.35-0.366-1.193-0.664-2.529-0.894c-0.987-1.099-1.766-1.65-2.338-1.65c-0.637,0-1.479,1.009-2.529,3.024
		c-5.505,10.633-10.421,22.891-14.748,36.776c0.699-4.444,1.973-10.586,3.818-18.422c1.94-8.065,3.261-12.762,3.961-14.092
		c0.668-1.237,0.508-2.222-0.477-2.956c-1.75-1.283-2.912-1.925-3.484-1.925c-0.796,0-1.592,1.009-2.387,3.025
		c-2.609,5.545-4.693,9.669-6.251,12.374c-0.255,0.504-0.382,0.962-0.382,1.375c0,0.688,0.27,1.031,0.811,1.031
		c0.445,0,0.795-0.275,1.05-0.825c0.637-1.328,2.132-3.78,4.486-7.355c-2.896,10.907-5.6,24.288-8.113,40.144
		c-0.351,2.247,0.016,3.759,1.098,4.537c2.227,1.604,3.483,2.406,3.77,2.406c0.732,0,1.624-2.452,2.672-7.355
		c3.277-15.443,8.225-29.375,14.843-41.793c0.859-1.65,1.479-2.475,1.861-2.475c0.254,0,0.382,0.436,0.382,1.305
		c0,2.521-0.446,5.867-1.336,10.036c-0.381,1.696-0.191,3.003,0.573,3.918c1.527,1.834,2.514,2.75,2.959,2.75
		c0.604,0,1.081-0.824,1.432-2.475c1.113-5.453,1.67-11.181,1.67-17.185C287.746,254.031,287.476,252.931,286.934,252.381z"/>
	<path display="inline" clip-path="url(#SVGID_6_)" fill="none" stroke="#46166B" stroke-width="6" d="M301.149,280.152
		c-1.591-7.057-2.546-11.514-2.863-13.37c-0.319-1.856-0.478-3.403-0.478-4.64c0-3.162,1.718-5.819,5.155-7.974
		c0.508-0.32,0.764-0.756,0.764-1.307c0-0.961-0.351-1.328-1.05-1.099c-7.095,2.246-10.77,6.232-11.024,11.961
		c-0.127,2.383,0.795,7.126,2.768,14.229c2.004,7.287,3.007,12.373,3.007,15.26c0,1.604-0.208,2.957-0.621,4.056
		c-0.701,2.155-1.877,3.506-3.531,4.056c-4.423,0.917-7.763,1.489-10.022,1.718c-1.654,0.229-2.545,0.962-2.673,2.2
		c0.16,1.146,0.621,1.811,1.384,1.993c2.737,0.595,5.042,1.1,6.919,1.512c1.051,0.229,2.036,0.297,2.959,0.207
		c1.432-0.184,2.513-0.825,3.245-1.925c0.478-0.732,0.986-2.062,1.527-3.987c4.327-2.017,6.443-5.774,6.348-11.273
		C302.931,289.112,302.327,285.239,301.149,280.152z M309.12,249.356c-0.446,0-1.448,0.574-3.006,1.718
		c-0.892,0.459-1.25,1.57-1.074,3.334c0.174,1.765-0.119,4.915-0.883,9.452c-0.127,0.824-0.19,1.49-0.19,1.994
		c0,0.917,0.239,1.375,0.716,1.375c0.286,0,1.018-0.32,2.195-0.962c0.922-0.457,1.463-0.801,1.623-1.031
		c0.35-0.458,0.667-1.466,0.954-3.024c0.764-4.537,1.146-7.837,1.146-9.899C310.599,250.343,310.105,249.356,309.12,249.356z"/>
	<path display="inline" clip-path="url(#SVGID_6_)" fill="none" stroke="#46166B" stroke-width="6" d="M365.619,195.052
		c-1.401-1.512-2.546-2.269-3.436-2.269c-0.828,0-1.687,0.619-2.577,1.856c-2.418,3.208-5.218,9.486-8.4,18.835
		c-4.073,11.96-7.763,26.374-11.072,43.237c-0.381,2.017-0.906,4.124-1.574,6.324c-1.178,3.987-3.85,9.898-8.018,17.735
		c-4.073,7.562-7.875,13.841-11.406,18.834c-1.527,2.155-2.816,3.231-3.866,3.231c-0.796,0-1.114-0.87-0.955-2.612
		c0.731-7.332,3.181-15.58,7.349-24.746c3.595-7.927,6.888-13.495,9.879-16.704c1.4-1.466,3.214-1.512,5.441-0.138
		c0.254,0.138,0.493,0.207,0.716,0.207c0.668,0,1.002-0.366,1.002-1.101c0-0.412-0.143-0.801-0.43-1.168
		c-3.182-4.262-5.393-6.438-6.634-6.53c-1.178-0.045-2.514,0.939-4.009,2.956c-4.614,6.142-8.709,13.713-12.29,22.719
		c-3.579,9.004-5.703,16.921-6.371,23.749c-0.063,0.505-0.095,0.963-0.095,1.375c0,2.43,1.033,4.561,3.102,6.393
		c1.177,1.329,2.053,1.994,2.625,1.994c0.668,0,1.686-0.665,3.054-1.994c1.781-1.694,4.637-5.763,8.567-12.201
		c3.929-6.438,7.453-12.889,10.571-19.35c-0.891,5.179-2.021,13.061-3.388,23.646c-0.16,1.055-0.239,1.971-0.239,2.75
		c0,1.467,0.317,2.635,0.954,3.506c0.191,0.275,1.082,1.192,2.673,2.75c0.413,0.412,0.764,0.619,1.05,0.619
		c0.573,0,1.05-0.848,1.432-2.543c0.986-7.057,3.006-13.632,6.061-19.729c0.699-1.42,0.62-2.131-0.239-2.131
		c-0.382,0-0.987,0.71-1.813,2.131c-1.401,2.43-2.514,4.217-3.341,5.361c4.01-34.232,10.388-61.636,19.138-82.212
		c2.387-5.59,4.565-8.386,6.539-8.386c0.731,0,1.845,0.527,3.341,1.581c0.317,0.229,0.62,0.344,0.907,0.344
		c0.763,0,1.145-0.435,1.145-1.307c0-0.503-0.19-0.962-0.572-1.375C368.816,198.811,367.21,196.932,365.619,195.052z"/>
	<path display="inline" clip-path="url(#SVGID_6_)" fill="none" stroke="#46166B" stroke-width="6" d="M384.224,258.705
		c-0.063-0.641-0.461-1.352-1.193-2.131c-1.75-1.878-2.863-2.818-3.34-2.818s-0.923,1.031-1.336,3.093
		c-0.255,1.192-0.812,3.254-1.67,6.187c-1.177,3.987-3.85,9.898-8.018,17.734c-4.073,7.561-7.891,13.84-11.454,18.835
		c-1.497,2.154-2.785,3.231-3.866,3.231c-0.637,0-0.954-0.573-0.954-1.719c0-0.275,0.016-0.572,0.048-0.894
		c0.859-7.332,3.388-15.581,7.587-24.746c3.627-7.974,6.936-13.542,9.927-16.704c1.368-1.466,3.181-1.512,5.44-0.137
		c0.222,0.137,0.461,0.207,0.716,0.207c0.669,0,1.003-0.367,1.003-1.101c0-0.412-0.144-0.801-0.43-1.168
		c-3.213-4.262-5.393-6.438-6.538-6.53c-1.177-0.045-2.514,0.939-4.009,2.956c-4.614,6.186-8.702,13.782-12.265,22.787
		c-3.563,9.005-5.632,16.899-6.204,23.681c-0.064,0.642-0.095,1.214-0.095,1.718c0,2.566,0.843,4.583,2.529,6.049
		c1.177,1.329,2.052,1.994,2.625,1.994c0.7,0,1.718-0.665,3.055-1.994c1.845-1.878,4.852-6.232,9.02-13.061
		c4.772-7.836,8.543-14.985,11.311-21.447c-2.004,7.699-3.675,17.369-5.011,29.008c-0.16,1.512-0.16,2.521,0,3.024
		c0.126,0.55,0.621,1.237,1.479,2.062c1.463,1.466,2.465,2.2,3.007,2.2c0.573,0,1.002-0.917,1.289-2.75
		c0.985-6.507,2.974-12.945,5.966-19.316c0.253-0.549,0.381-1.031,0.381-1.443c0-0.688-0.238-1.032-0.715-1.032
		c-0.509,0-0.987,0.413-1.432,1.237c-0.191,0.23-0.677,1.009-1.456,2.337c-0.78,1.33-1.408,2.314-1.885,2.956
		c1.113-7.928,3.133-17.735,6.061-29.421C384.145,260.218,384.288,259.255,384.224,258.705z"/>
	<path display="inline" clip-path="url(#SVGID_6_)" fill="none" stroke="#46166B" stroke-width="6" d="M422.444,253.619
		c-1.813-1.97-3.054-2.956-3.722-2.956c-0.859,0-1.321,1.535-1.385,4.605c-1.209,5.224-4.295,12.992-9.259,23.303
		c-5.091,10.585-9.227,17.689-12.408,21.31c1.018-3.392,2.322-10.896,3.914-22.513c1.59-11.617,2.386-19.419,2.386-23.406
		c0-2.382-0.542-3.574-1.624-3.574c-0.19,0-1.097,0.184-2.72,0.549c-0.763-0.549-1.369-0.824-1.813-0.824
		c-0.573,0-1.702,1.718-3.389,5.155c-1.877,3.849-3.086,6.255-3.627,7.218c-0.191,0.32-0.286,0.642-0.286,0.962
		c0,0.642,0.222,0.961,0.668,0.961c0.191,0,1.399-1.351,3.627-4.055c1.399-1.65,2.147-2.475,2.244-2.475
		c0.349,0,0.492,0.825,0.429,2.475c-0.382,7.011-1.083,14.413-2.1,22.203c-1.336,9.898-2.768,16.337-4.295,19.316
		c-0.509,0.229-0.795,0.618-0.859,1.168v0.138c0,0.459,0.159,0.961,0.477,1.512c0.7,1.192,1.384,2.406,2.053,3.643
		c0.636,0.962,1.256,1.443,1.861,1.443c0.763,0,1.781-0.756,3.054-2.269c2.291-2.75,5.424-7.79,9.402-15.123
		c4.135-7.606,7.874-15.329,11.216-23.165c-0.51,3.483-0.876,6.072-1.099,7.768c-3.563,23.693-7.748,42.572-12.552,56.641
		c-6.108,17.964-12.902,26.946-20.377,26.946c-4.072,0-8.702-3.186-13.888-9.555c-0.413-0.504-0.843-0.756-1.289-0.756
		c-0.89,0-1.336,0.688-1.336,2.062c0,0.871,0.287,1.695,0.859,2.475c6.555,8.937,12.679,13.404,18.374,13.404
		c9.736,0,18.357-14.16,25.867-42.481c3.881-14.573,8.033-36.546,12.456-65.921C423.748,256.781,423.462,254.718,422.444,253.619z"
		/>
</g>
<g>
	<path fill="#FCFCFC" d="M68.305,168.025c-0.736,4.295-1.588,7.611-2.554,9.946c-0.445,1.102-0.883,1.652-1.312,1.652
		c-0.169,0-0.376-0.055-0.622-0.165c-1.167-0.507-1.75-1.112-1.75-1.817c0-0.352,0.161-0.583,0.484-0.694
		c1.35-2.908,2.147-6.399,2.394-10.475c-0.844-1.079-1.642-1.619-2.394-1.619c-1.596-0.021-3.483,1.994-5.662,6.047
		c-2.01,3.79-3.751,8.284-5.224,13.482c-1.534,5.419-2.271,9.936-2.209,13.548c0.015,2.093,0.453,3.657,1.312,4.692
		c0.628,0.749,1.342,1.124,2.14,1.124c0.46,0,0.99-0.133,1.588-0.397c1.473-0.661,3.176-1.938,5.109-3.833
		c1.841-1.806,3.375-3.646,4.603-5.518c0.383-0.595,0.614-1.354,0.69-2.28c0.046-0.484,0.199-0.727,0.46-0.727
		c0.214,0,0.376,0.199,0.483,0.595c0.553,1.983,0.829,3.36,0.829,4.13c0,0.728-0.207,1.41-0.621,2.049
		c-0.276,0.396-0.929,1.157-1.956,2.28c-3.253,3.502-6.045,5.684-8.377,6.542c-0.721,0.264-1.381,0.396-1.979,0.396
		c-1.258,0-2.217-0.606-2.877-1.817c-2.992-1.608-4.488-4.064-4.488-7.369c0-5.331,0.974-11.058,2.923-17.183
		c1.672-5.308,3.736-9.979,6.191-14.01c2.362-3.854,4.281-5.859,5.753-6.014c0.537-0.066,1.158,0.254,1.864,0.958
		c0.092,0.088,0.805,0.915,2.141,2.479c0.076-0.881,0.283-1.322,0.621-1.322c0.368,0,0.99,0.485,1.864,1.454
		c0.553,0.617,0.829,1.212,0.829,1.785C68.558,166.318,68.474,167.012,68.305,168.025z"/>
	<path fill="#FFFFFF" d="M102.956,182.167c-2.041,5.442-3.567,11.83-4.58,19.165c0.429-1.079,0.951-2.456,1.564-4.13
		c0.077-0.308,0.2-0.463,0.369-0.463c0.23,0,0.345,0.21,0.345,0.628c0,0.132-0.023,0.275-0.069,0.429
		c-0.982,3.217-1.627,5.695-1.934,7.435c-0.184,1.102-0.43,1.652-0.736,1.652c-0.307,0-0.906-0.429-1.795-1.288
		c-0.476-0.484-0.637-1.344-0.484-2.578c0.645-4.802,1.419-8.976,2.325-12.523c-2.961,6.917-5.447,12.017-7.457,15.299
		c-0.445,0.727-0.928,1.09-1.45,1.09c-0.43,0-0.937-0.253-1.519-0.76c-1.059-0.264-1.588-1.058-1.588-2.379
		c0-0.243,0.015-0.507,0.046-0.793c0.383-6.3,1.181-11.532,2.394-15.696c-0.261,0.354-0.652,0.871-1.174,1.553
		c-0.2,0.243-0.353,0.309-0.46,0.198c-0.123-0.132-0.1-0.385,0.069-0.76c0.828-1.739,1.319-2.885,1.473-3.436
		c0.476-1.718,0.974-3.051,1.496-3.999c0.276-0.484,0.567-0.727,0.874-0.727c0.415,0,1.021,0.353,1.818,1.057
		c0.215,0.198,0.322,0.396,0.322,0.595l-0.506,1.09c-0.767,1.675-1.58,4.626-2.439,8.856c-0.936,4.582-1.412,8.316-1.427,11.202
		c0,0.947,0.138,1.421,0.414,1.421c0.246,0,0.645-0.407,1.197-1.223c1.181-1.806,2.892-5.221,5.132-10.244
		c1.979-4.428,3.176-7.313,3.59-8.658c0.69-2.246,1.25-3.568,1.68-3.965c0.276-0.264,0.521-0.396,0.736-0.396
		c0.215,0,0.629,0.231,1.243,0.694c0.614,0.462,0.92,0.804,0.92,1.024c0,0.066-0.054,0.155-0.161,0.264
		C103.078,181.915,103.001,182.035,102.956,182.167z"/>
	<path fill="#FFFFFF" d="M118.557,181.275c0,2.886-0.269,5.64-0.806,8.261c-0.169,0.793-0.398,1.189-0.69,1.189
		c-0.215,0-0.69-0.44-1.427-1.322c-0.369-0.44-0.46-1.068-0.276-1.883c0.429-2.004,0.645-3.613,0.645-4.825
		c0-0.418-0.062-0.627-0.185-0.627c-0.184,0-0.483,0.396-0.897,1.189c-3.192,5.97-5.578,12.667-7.158,20.09
		c-0.506,2.358-0.936,3.536-1.289,3.536c-0.138,0-0.745-0.386-1.818-1.156c-0.522-0.375-0.698-1.102-0.529-2.181
		c1.212-7.622,2.516-14.054,3.913-19.297c-1.136,1.718-1.856,2.897-2.164,3.536c-0.123,0.265-0.292,0.396-0.506,0.396
		c-0.261,0-0.391-0.165-0.391-0.495c0-0.199,0.061-0.418,0.184-0.661c0.751-1.299,1.757-3.282,3.015-5.948
		c0.383-0.969,0.768-1.454,1.151-1.454c0.276,0,0.836,0.309,1.68,0.925c0.475,0.353,0.552,0.826,0.23,1.421
		c-0.337,0.639-0.975,2.896-1.91,6.774c-0.89,3.767-1.503,6.72-1.841,8.855c2.086-6.674,4.457-12.567,7.112-17.678
		c0.506-0.969,0.912-1.454,1.219-1.454c0.276,0,0.652,0.264,1.128,0.792c0.645,0.111,1.051,0.254,1.22,0.43
		C118.426,179.954,118.557,180.482,118.557,181.275z"/>
	<path fill="#FFFFFF" d="M131.235,181.771c0,3.415-0.33,6.168-0.99,8.261c-0.276,0.859-0.706,1.057-1.289,0.595
		c-0.859-0.683-1.289-1.244-1.289-1.686c0-0.198,0.1-0.407,0.3-0.627c0.521-2.115,0.759-3.755,0.713-4.923
		c-0.031-0.991-0.376-1.487-1.036-1.487c-0.077,0-0.192-0.027-0.345-0.083s-0.276-0.083-0.368-0.083
		c-0.537,0-1.196,0.727-1.979,2.181c-0.859,1.631-1.68,3.899-2.463,6.807c-0.644,2.401-1.074,4.461-1.288,6.179
		c-0.169,1.234-0.253,2.357-0.253,3.371c0,3.37,0.744,5.022,2.232,4.956c1.304-0.044,3.214-2.39,5.731-7.038
		c0.245-0.418,0.468-0.627,0.667-0.627c0.2,0,0.299,0.176,0.299,0.528c0,0.177-0.038,0.396-0.115,0.661
		c-0.813,2.864-1.88,5.386-3.199,7.567c-0.322,0.55-0.89,0.826-1.703,0.826c-0.491,0-1.089-0.144-1.795-0.43
		c-1.412-0.132-2.539-0.782-3.382-1.95c-0.906-1.256-1.328-2.896-1.266-4.923c0.061-2.335,0.629-5.573,1.703-9.715
		c1.15-4.494,2.355-7.754,3.613-9.781c0.583-0.925,1.073-1.388,1.473-1.388c0.398,0,1.181,0.485,2.347,1.455
		c0.628-0.331,1.25-0.496,1.864-0.496C130.629,179.92,131.235,180.538,131.235,181.771z"/>
	<path fill="#FFFFFF" d="M150.841,154.841c0.2,0.22,0.299,0.462,0.299,0.727c0,0.396-0.176,0.595-0.529,0.595
		c-0.153,0-0.314-0.066-0.483-0.198c-0.706-0.506-1.235-0.76-1.587-0.76c-0.937,0-1.979,1.344-3.13,4.031
		c-4.05,9.473-7.05,21.875-8.999,37.207c2.501-6.895,5.362-12.402,8.584-16.522c0.69-0.88,1.197-1.321,1.519-1.321
		c0.092,0,0.475,0.309,1.15,0.925c0.813,0.485,1.274,0.793,1.381,0.925c0.399,0.507,0.599,1.388,0.599,2.644
		c0,0.353-0.016,0.738-0.046,1.156c-0.261,3.921-1.043,8.669-2.347,14.242c0.475-0.925,1.227-2.28,2.255-4.064
		c0.245-0.374,0.453-0.562,0.621-0.562c0.169,0,0.253,0.144,0.253,0.429c0,0.331-0.1,0.706-0.299,1.124
		c-0.89,1.85-2.071,4.56-3.544,8.128c-0.123,0.353-0.422,1.278-0.898,2.776c-0.199,0.705-0.476,1.057-0.828,1.057
		c-0.399,0-0.975-0.386-1.726-1.157c-0.307-0.308-0.361-0.792-0.162-1.454c2.639-9.516,4.035-16.621,4.189-21.313
		c0.046-1.343-0.084-2.015-0.391-2.015c-0.2,0-0.622,0.375-1.266,1.123c-1.182,1.367-2.631,3.789-4.35,7.27
		c-2.271,4.582-4.027,9.263-5.271,14.043c-0.337,1.367-0.652,2.049-0.943,2.049c-0.261,0-0.774-0.451-1.542-1.354
		c-0.384-0.463-0.514-1.234-0.392-2.313c1.78-13.988,4.097-25.939,6.951-35.852c2.117-7.379,4.027-12.204,5.73-14.473
		c0.43-0.572,0.852-0.859,1.266-0.859c0.429,0,0.974,0.353,1.634,1.057C149.307,153.035,150.073,153.938,150.841,154.841z"/>
</g>
<g display="none">
	<path display="inline" fill="none" stroke="#46166B" stroke-width="6" d="M142.17,363.823c0-1.191-0.573-2.428-1.718-3.712
		c-1.813-2.015-3.102-3.024-3.865-3.024c-0.7,0-1.13,0.917-1.289,2.75c-2.768-3.252-4.248-4.972-4.439-5.155
		c-1.463-1.466-2.752-2.131-3.865-1.994c-3.054,0.321-7.032,4.492-11.932,12.511c-5.09,8.386-9.37,18.103-12.837,29.146
		c-4.041,12.74-6.061,24.655-6.061,35.745c0,6.874,3.102,11.984,9.306,15.329c1.368,2.52,3.356,3.78,5.965,3.78
		c1.241,0,2.609-0.274,4.104-0.825c4.836-1.787,10.626-6.324,17.372-13.61c2.131-2.337,3.483-3.918,4.056-4.743
		c0.859-1.328,1.289-2.749,1.289-4.262c0-1.604-0.573-4.468-1.718-8.593c-0.224-0.824-0.557-1.237-1.002-1.237
		c-0.542,0-0.858,0.505-0.955,1.513c-0.159,1.925-0.636,3.506-1.431,4.743c-2.546,3.896-5.728,7.723-9.545,11.479
		c-4.009,3.942-7.541,6.599-10.595,7.975c-1.241,0.549-2.339,0.824-3.292,0.824c-1.655,0-3.135-0.778-4.439-2.337
		c-1.782-2.154-2.689-5.408-2.72-9.762c-0.128-7.515,1.399-16.91,4.582-28.183c3.055-10.815,6.665-20.164,10.833-28.046
		c4.518-8.431,8.431-12.625,11.74-12.579c1.559,0,3.213,1.124,4.964,3.368c-0.51,8.478-2.165,15.741-4.964,21.791
		c-0.668,0.23-1.002,0.711-1.002,1.443c0,1.468,1.208,2.727,3.627,3.781c0.508,0.229,0.938,0.344,1.289,0.344
		c0.89,0,1.797-1.145,2.72-3.436c2.004-4.858,3.77-11.755,5.297-20.691C141.995,366.046,142.17,364.603,142.17,363.823z"/>
	<path display="inline" fill="none" stroke="#46166B" stroke-width="6" d="M213.879,396.818c0.222-0.229,0.334-0.412,0.334-0.55
		c0-0.458-0.637-1.168-1.909-2.131c-1.273-0.962-2.132-1.443-2.577-1.443c-0.446,0-0.955,0.275-1.527,0.825
		c-0.892,0.825-2.053,3.575-3.484,8.249c-0.859,2.796-3.341,8.799-7.445,18.01c-4.646,10.448-8.193,17.552-10.643,21.31
		c-1.146,1.696-1.973,2.543-2.481,2.543c-0.573,0-0.86-0.984-0.86-2.955c0.031-6.003,1.018-13.771,2.959-23.303
		c1.781-8.799,3.467-14.939,5.059-18.423l1.05-2.268c0-0.413-0.223-0.825-0.668-1.237c-1.654-1.466-2.911-2.2-3.771-2.2
		c-0.636,0-1.24,0.505-1.813,1.512c-1.083,1.971-2.117,4.743-3.103,8.318c-0.318,1.146-1.336,3.529-3.054,7.148
		c-0.351,0.779-0.398,1.307-0.143,1.581c0.222,0.23,0.541,0.092,0.954-0.412c1.082-1.421,1.893-2.497,2.435-3.231
		c-2.514,8.662-4.169,19.546-4.964,32.651c-0.064,0.597-0.095,1.146-0.095,1.65c0,2.749,1.097,4.399,3.292,4.949
		c1.208,1.054,2.259,1.581,3.15,1.581c1.081,0,2.083-0.756,3.007-2.269c4.167-6.828,9.322-17.437,15.462-31.826
		c-1.877,7.379-3.483,16.062-4.82,26.052c-0.318,2.567,0.016,4.354,1.002,5.362c1.845,1.787,3.086,2.681,3.723,2.681
		c0.636,0,1.145-1.146,1.527-3.438c0.637-3.62,1.972-8.775,4.009-15.466c0.095-0.321,0.143-0.619,0.143-0.894
		c0-0.87-0.239-1.307-0.716-1.307c-0.35,0-0.604,0.321-0.763,0.963c-1.272,3.483-2.355,6.347-3.246,8.592
		c2.1-15.26,5.266-28.549,9.497-39.869C213.498,397.3,213.657,397.048,213.879,396.818z"/>
	<path display="inline" fill="none" stroke="#46166B" stroke-width="6" d="M244.846,392.419c-0.351-0.366-1.193-0.664-2.529-0.894
		c-0.986-1.1-1.766-1.649-2.338-1.649c-0.637,0-1.48,1.008-2.529,3.024c-5.505,10.632-10.42,22.891-14.747,36.775
		c0.699-4.443,1.972-10.586,3.817-18.422c1.941-8.065,3.261-12.762,3.961-14.092c0.668-1.237,0.508-2.222-0.478-2.956
		c-1.75-1.283-2.912-1.925-3.484-1.925c-0.796,0-1.591,1.009-2.386,3.024c-2.609,5.546-4.693,9.671-6.251,12.374
		c-0.255,0.505-0.382,0.962-0.382,1.375c0,0.687,0.27,1.03,0.811,1.03c0.446,0,0.795-0.274,1.05-0.825
		c0.636-1.328,2.131-3.78,4.486-7.354c-2.896,10.907-5.6,24.288-8.113,40.144c-0.351,2.246,0.016,3.759,1.098,4.536
		c2.227,1.604,3.484,2.407,3.771,2.407c0.731,0,1.623-2.451,2.672-7.355c3.277-15.443,8.225-29.374,14.843-41.793
		c0.858-1.65,1.479-2.475,1.861-2.475c0.254,0,0.382,0.436,0.382,1.306c0,2.521-0.446,5.867-1.336,10.037
		c-0.382,1.695-0.191,3.002,0.573,3.918c1.527,1.833,2.513,2.749,2.959,2.749c0.603,0,1.081-0.824,1.431-2.475
		c1.113-5.452,1.67-11.181,1.67-17.185C245.657,394.069,245.387,392.969,244.846,392.419z"/>
	<path display="inline" fill="none" stroke="#46166B" stroke-width="6" d="M268.081,392.9c-1.272,0-2.561,0.344-3.865,1.031
		c-2.418-2.016-4.041-3.025-4.868-3.025c-0.828,0-1.846,0.962-3.055,2.887c-2.608,4.216-5.106,10.998-7.492,20.347
		c-2.228,8.616-3.405,15.353-3.532,20.21c-0.128,4.216,0.747,7.63,2.625,10.242c1.75,2.429,4.088,3.78,7.016,4.056
		c1.462,0.595,2.703,0.894,3.722,0.894c1.686,0,2.863-0.574,3.532-1.719c2.735-4.537,4.947-9.783,6.634-15.741
		c0.158-0.55,0.239-1.008,0.239-1.375c0-0.732-0.208-1.1-0.621-1.1c-0.414,0-0.876,0.436-1.384,1.306
		c-5.218,9.67-9.18,14.551-11.883,14.642c-3.086,0.138-4.629-3.299-4.629-10.311c0-2.107,0.175-4.444,0.525-7.012
		c0.445-3.574,1.336-7.858,2.672-12.854c1.623-6.049,3.324-10.769,5.106-14.16c1.624-3.024,2.991-4.537,4.104-4.537
		c0.191,0,0.445,0.058,0.764,0.171c0.317,0.116,0.556,0.172,0.715,0.172c1.368,0,2.083,1.031,2.147,3.093
		c0.096,2.429-0.398,5.843-1.479,10.242c-0.414,0.459-0.621,0.895-0.621,1.306c0,0.918,0.891,2.086,2.672,3.506
		c1.209,0.963,2.1,0.55,2.673-1.237c1.367-4.353,2.052-10.081,2.052-17.185C271.851,394.184,270.594,392.9,268.081,392.9z"/>
	<path display="inline" fill="none" stroke="#46166B" stroke-width="6" d="M307.638,335.09c-1.368-1.466-2.498-2.2-3.388-2.2
		c-0.859,0-1.735,0.596-2.625,1.787c-3.532,4.721-7.493,14.757-11.884,30.108c-5.917,20.622-10.722,45.484-14.412,74.583
		c-0.255,2.246,0.016,3.85,0.811,4.812c1.59,1.879,2.656,2.817,3.197,2.817c0.604,0,1.257-1.419,1.957-4.262
		c2.577-9.943,6.22-19.682,10.929-29.214c3.563-7.24,6.57-12.28,9.02-15.123c1.336-1.558,2.211-2.337,2.625-2.337
		c0.636,0,0.907,1.398,0.812,4.193c-0.318,9.761-3.214,24.54-8.686,44.337c-0.414,1.375-0.302,2.384,0.334,3.024
		c1.559,1.604,2.752,2.406,3.58,2.406c0.731,0,1.304-0.734,1.718-2.2c0.985-3.115,1.606-5.04,1.861-5.774
		c3.054-7.424,5.503-13.06,7.35-16.909c0.413-0.87,0.62-1.65,0.62-2.338c0-0.595-0.175-0.894-0.525-0.894
		c-0.351,0-0.779,0.391-1.288,1.169c-2.132,3.712-3.691,6.53-4.678,8.455c2.704-11.594,4.327-21.469,4.868-29.627
		c0.063-0.87,0.095-1.672,0.095-2.406c0-2.612-0.414-4.445-1.24-5.5c-0.223-0.275-1.178-0.915-2.863-1.924
		c-1.4-1.283-2.195-1.924-2.387-1.924c-0.668,0-1.718,0.916-3.15,2.749c-6.681,8.57-12.616,20.026-17.801,34.37
		c4.04-31.896,10.261-57.695,18.66-77.401c2.386-5.59,4.55-8.386,6.491-8.386c0.731,0,1.829,0.528,3.293,1.581
		c0.35,0.275,0.684,0.413,1.002,0.413c0.732,0,1.098-0.413,1.098-1.237c0-0.55-0.208-1.053-0.621-1.512
		C310.819,338.849,309.228,336.97,307.638,335.09z"/>
</g>
<rect x="220.297" y="29.011" fill="none" width="594.433" height="186.369"/>
<text transform="matrix(1 0 0 1 293.7974 87.6182)"><tspan x="0" y="0" stroke="#46166B" font-family="'Pristina-Regular'" font-size="72">Staying True to the </tspan><tspan x="-43.893" y="86.4" stroke="#46166B" font-family="'Pristina-Regular'" font-size="72">Message of Jesus Christ</tspan></text>
</svg>
