<?xml version="1.0" encoding="utf-8"?>
<!-- Generator: Adobe Illustrator 15.1.0, SVG Export Plug-In . SVG Version: 6.00 Build 0)  -->
<!DOCTYPE svg PUBLIC "-//W3C//DTD SVG 1.1//EN" "http://www.w3.org/Graphics/SVG/1.1/DTD/svg11.dtd">
<svg version="1.1" id="Layer_1" xmlns="http://www.w3.org/2000/svg" xmlns:xlink="http://www.w3.org/1999/xlink" x="0px" y="0px"
	 width="158.923px" height="178.305px" viewBox="0 0 158.923 178.305" enable-background="new 0 0 158.923 178.305"
	 xml:space="preserve">
<g>
	<path fill="#D15934" d="M158.922,126.173c0,4.871-3.451,10.85-7.668,13.285l-64.122,37.021c-4.219,2.436-11.121,2.436-15.339,0
		L7.669,139.458C3.451,137.022,0,131.044,0,126.173V52.132c0-4.871,3.451-10.849,7.669-13.284L71.792,1.827
		c4.218-2.436,11.121-2.436,15.339,0l64.122,37.021c4.217,2.436,7.668,8.414,7.668,13.284V126.173z"/>
</g>
<g>
	<path fill="#FFFFFF" d="M18.554,60.654c0-6.149,4.65-10.35,10.649-10.35c4.41,0,6.96,2.4,8.37,4.89l-3.66,1.8
		c-0.84-1.62-2.64-2.91-4.71-2.91c-3.63,0-6.27,2.79-6.27,6.569s2.64,6.57,6.27,6.57c2.07,0,3.87-1.26,4.71-2.909l3.66,1.77
		c-1.44,2.49-3.96,4.92-8.37,4.92C23.204,71.004,18.554,66.804,18.554,60.654z"/>
	<path fill="#FFFFFF" d="M57.193,70.644l-3.93-7.11h-3.12v7.11h-4.26V50.634h9.359c4.17,0,6.72,2.73,6.72,6.45
		c0,3.54-2.22,5.43-4.38,5.939l4.5,7.62H57.193z M57.613,57.084c0-1.68-1.29-2.7-3-2.7h-4.47v5.4h4.47
		C56.323,59.784,57.613,58.764,57.613,57.084z"/>
	<path fill="#FFFFFF" d="M69.973,60.654c0-6.03,4.41-10.35,10.439-10.35c6.059,0,10.469,4.32,10.469,10.35s-4.41,10.35-10.469,10.35
		C74.383,71.004,69.973,66.684,69.973,60.654z M86.503,60.654c0-3.75-2.4-6.569-6.09-6.569s-6.06,2.82-6.06,6.569
		c0,3.72,2.37,6.57,6.06,6.57S86.503,64.374,86.503,60.654z"/>
	<path fill="#FFFFFF" d="M98.293,67.824l2.31-3.24c1.41,1.47,3.6,2.699,6.36,2.699c2.34,0,3.479-1.08,3.479-2.219
		c0-3.541-11.52-1.111-11.52-8.64c0-3.33,2.88-6.09,7.59-6.09c3.18,0,5.82,0.96,7.8,2.79l-2.37,3.12
		c-1.619-1.5-3.779-2.19-5.82-2.19c-1.829,0-2.85,0.81-2.85,2.01c0,3.18,11.49,1.05,11.49,8.52c0,3.66-2.61,6.42-8.01,6.42
		C102.913,71.004,100.153,69.713,98.293,67.824z"/>
	<path fill="#FFFFFF" d="M122.053,67.824l2.31-3.24c1.41,1.47,3.6,2.699,6.36,2.699c2.34,0,3.479-1.08,3.479-2.219
		c0-3.541-11.52-1.111-11.52-8.64c0-3.33,2.88-6.09,7.59-6.09c3.18,0,5.82,0.96,7.8,2.79l-2.37,3.12
		c-1.619-1.5-3.779-2.19-5.82-2.19c-1.829,0-2.85,0.81-2.85,2.01c0,3.18,11.49,1.05,11.49,8.52c0,3.66-2.61,6.42-8.01,6.42
		C126.673,71.004,123.913,69.713,122.053,67.824z"/>
</g>
<g>
	<path fill="#FFFFFF" d="M73.646,38.56V19.884h8.736c4.061,0,6.271,2.744,6.271,6.02c0,3.248-2.24,6.02-6.271,6.02h-4.76v6.636
		H73.646z M84.594,25.904c0-1.568-1.176-2.52-2.744-2.52h-4.228v5.04h4.228C83.418,28.424,84.594,27.444,84.594,25.904z"/>
	<path fill="#FFFFFF" d="M78.546,102.56V83.884h3.976v18.676H78.546z"/>
	<path fill="#FFFFFF" d="M85.056,134.561l-8.904-12.181v12.181h-3.976v-18.676h4.088l8.652,11.73v-11.73h3.976v18.676H85.056z"/>
	<path fill="#FFFFFF" d="M78.546,166.561v-15.176h-5.46v-3.5h14.895v3.5H82.55v15.176H78.546z"/>
</g>
</svg>
